<svg width="30" height="30" fill="none" xmlns="http://www.w3.org/2000/svg"><g clip-path="url(#clip0_251_3180)"><g filter="url(#filter0_di_251_3180)"><path d="M4.5 4.2a2.7 2.7 0 012.7-2.7h10.258c.348 0 .682.134.934.375l5.942 5.694c.266.254.416.607.416.975V25.8a2.7 2.7 0 01-2.7 2.7H7.2a2.7 2.7 0 01-2.7-2.7V4.2z" fill="#E74341"/><path d="M7.2 1.75h10.258c.283 0 .556.11.76.306l5.943 5.693a1.1 1.1 0 01.339.795V25.8a2.45 2.45 0 01-2.45 2.45H7.2a2.45 2.45 0 01-2.45-2.45V4.2a2.45 2.45 0 012.2-2.437l.25-.013z" stroke="#27272A" stroke-opacity=".15" stroke-width=".5"/></g><path d="M18.375 2.85l5.4 5.4h-5.4v-5.4z" fill="#fff" fill-opacity=".5"/><path fill-rule="evenodd" clip-rule="evenodd" d="M14.507 17.458c.174.387.373.74.597 1.055.225.316.47.587.735.811l.352.275c-.378.072-.82.171-1.324.299a13.53 13.53 0 00-1.585.512l-.091.03.428-.902c.194-.377.365-.74.513-1.086.148-.347.273-.678.375-.994zm5.633 3.304a.686.686 0 00.183-.252.8.8 0 00.062-.314.56.56 0 000-.26.53.53 0 00-.108-.214c-.122-.204-.347-.357-.673-.46-.327-.101-.76-.152-1.301-.152l-1.133.061-.75-.505a3.677 3.677 0 01-.773-.91 6.607 6.607 0 01-.62-1.308l.031-.122c.143-.582.248-1.178.314-1.79.066-.612-.043-1.06-.33-1.346a.703.703 0 00-.244-.16.795.795 0 00-.29-.054h-.2a.596.596 0 00-.444.214.922.922 0 00-.245.459c-.163.581-.214 1.068-.153 1.46.061.393.174.855.337 1.385v.015c-.102.378-.23.783-.383 1.216a13.55 13.55 0 01-.55 1.324l-.843 1.575-.78.429c-.52.326-.91.657-1.171.994-.26.337-.41.617-.452.841a.762.762 0 00.031.475l.03.046.414.26.383.107c.357 0 .742-.215 1.155-.643.413-.428.89-1.106 1.431-2.034l.169-.062c.449-.142.959-.265 1.53-.367a37.42 37.42 0 011.975-.29c.449.224.913.39 1.393.497.48.107.887.16 1.224.16.184 0 .342-.023.475-.069a.641.641 0 00.306-.206zm-.352-.612l.076.092c0 .05-.008.081-.023.092a.5.5 0 01-.053.03h-.03l-.17.015a2.83 2.83 0 01-.742-.122 7.854 7.854 0 01-.91-.321.342.342 0 01.1-.076.272.272 0 01.099-.016c.612 0 1.03.04 1.255.122.224.082.357.143.398.184zm-7.99 1.27c-.276.52-.541.923-.796 1.208-.255.286-.48.464-.674.536.02-.164.126-.38.314-.65a4.89 4.89 0 01.743-.819l.413-.275zm2.633-6.012a4.447 4.447 0 01-.161-1.048c-.005-.311.028-.558.1-.742l.06-.092.138.03a.819.819 0 01.123.391c.01.148-.005.34-.046.574l-.03.137-.139.72-.046.03z" fill="#fff"/></g><defs><clipPath id="clip0_251_3180"><path fill="#fff" d="M0 0h30v30H0z"/></clipPath><filter id="filter0_di_251_3180" x="3.5" y="1.5" width="22.25" height="29" filterUnits="userSpaceOnUse" color-interpolation-filters="sRGB"><feFlood flood-opacity="0" result="BackgroundImageFix"/><feColorMatrix in="SourceAlpha" values="0 0 0 0 0 0 0 0 0 0 0 0 0 0 0 0 0 0 127 0" result="hardAlpha"/><feOffset dy="1"/><feGaussianBlur stdDeviation=".5"/><feComposite in2="hardAlpha" operator="out"/><feColorMatrix values="0 0 0 0 0 0 0 0 0 0 0 0 0 0 0 0 0 0 0.06 0"/><feBlend in2="BackgroundImageFix" result="effect1_dropShadow_251_3180"/><feBlend in="SourceGraphic" in2="effect1_dropShadow_251_3180" result="shape"/><feColorMatrix in="SourceAlpha" values="0 0 0 0 0 0 0 0 0 0 0 0 0 0 0 0 0 0 127 0" result="hardAlpha"/><feOffset dy="-.5"/><feComposite in2="hardAlpha" operator="arithmetic" k2="-1" k3="1"/><feColorMatrix values="0 0 0 0 0 0 0 0 0 0 0 0 0 0 0 0 0 0 0.1 0"/><feBlend in2="shape" result="effect2_innerShadow_251_3180"/></filter></defs></svg>