<svg width="192" height="72" fill="none" xmlns="http://www.w3.org/2000/svg"><path fill-rule="evenodd" clip-rule="evenodd" d="M26.108 70.955c.19-1.016-.01-1.79-.296-2.706a49.79 49.79 0 00-.806-2.368c-1.852-5.03-3.409-10.448-2.097-15.928.994-4.152 3.777-7.13 6.752-9.007.965-.61 2.938-1.871 3.763-2.548.318-.26 1.492-1.201 1.504-1.655-4.428-.15-9.467 3.668-13.393 2.53-2.761-.8-3.732-3.858-4.532-6.393-.439-1.39-.845-2.787-1.266-4.194-.472-1.577-2.087-7.488-3.027-7.931-.484 2.39.921 11.522 1.25 14.506 1.177 10.68 4.015 21.539 8.869 30.988.499.97 2.296 4.473 3.279 4.706z" fill="#8602FF"/><path fill-rule="evenodd" clip-rule="evenodd" d="M7.376 9.456L.142 9.194l4.132 4.27c.285.303.5.571.839.859.36.306.243.387.136 1.327L4.047 26.254c-.109.974-.3 2.119-.34 3.076l.028-.055c.034-.076.007-.01.025-.056.013-.033.025-.077.036-.115l.064-.23 4.191-14.805c-.018-.062-2.477-2.057-2.56-2.174l3.558-.015 1.642-6.07 2.045 4.383 3.648-.782c-.601.585-1.3 1.352-1.914 1.988-.32.33-.875.786-1.18 1.193l1.716 6.649c-.21-.128-.359-.387-.56-.558l-1.347-1.422c-.104-.115-.164-.158-.281-.271-.184-.178-.354-.387-.529-.58l-1.551-1.624c-.088-.07-.004-.02-.109-.069.1.225 2.526 3.521 2.858 4.001.23.332.475.65.71.988l2.155 2.983c.018-.212-.245-2.178-.29-2.561l-.862-7.145c-.042-.345.3-.522.601-.807.615-.582 1.91-1.956 2.513-2.58l2.168-2.188c.207-.212.568-.534.737-.771l-7.215 1.66c-.103-.105-1.307-3.655-1.473-4.123C12.348 3.66 11.168.161 11.05 0L7.376 9.456zM0 50.019c.197.633 1.837 1.628 2.513 2.075 1.242.822 1.61.948 2.61 1.967.09.09.199.174.282.27 1.61 1.847 2.283 3.78 2.277 6.388-.007 2.75-.845 5.017-1.694 7.487-.251.732-.615 1.689-.455 2.529.974-.31 2.873-4.753 3.454-6.174 2-4.893 3.18-10.187 3.735-15.532.235-2.265.71-5.428.744-7.686.003-.204.043-.971-.095-1.142-.731.832-1.368 3.462-1.752 4.81-.41 1.434-1.013 3.81-1.674 4.934-2.24 3.805-6.363-.04-9.945.074z" fill="#F0C228"/><path fill-rule="evenodd" clip-rule="evenodd" d="M22.865 27.931c-2.334.166-4.343 2.215-4.166 4.775.16 2.328 2.213 4.282 4.74 4.155 3.61-.181 5.776-5.094 2.65-7.754-.733-.623-1.878-1.271-3.224-1.175z" fill="#8602FF"/><path fill-rule="evenodd" clip-rule="evenodd" d="M6.9 44.621c-1.369.161-2.634 1.37-2.446 2.953.164 1.37 1.39 2.644 2.977 2.434 1.37-.18 2.561-1.392 2.391-2.974-.157-1.468-1.532-2.577-2.923-2.413z" fill="#F0C228"/><path d="M54.634 51.53v-2.186h-2V36.949h-2.75v12.395h-6.54c-.112 0-.25-.01-.417-.032a.605.605 0 01-.396-.197.603.603 0 01-.135-.438c.007-.18.01-.34.01-.479v-11.25h-2.75v12.458c0 .278.035.573.105.886.069.312.242.586.52.822.25.209.521.33.813.365a7.5 7.5 0 00.895.052h12.645zm10.625 0v-1.874h-5.396c-.222 0-.448-.014-.677-.042a2.338 2.338 0 01-.656-.177 1.51 1.51 0 01-.542-.395 1.78 1.78 0 01-.354-.698 4.929 4.929 0 01-.104-.709 9.191 9.191 0 01-.042-.812h6.416c.223 0 .434-.028.636-.083.201-.056.385-.167.552-.334.236-.236.382-.503.438-.802a4.76 4.76 0 00.083-.864c0-.347-.021-.691-.063-1.031a4.21 4.21 0 00-.24-.98 3.399 3.399 0 00-.479-.864 3.089 3.089 0 00-.78-.708 4.154 4.154 0 00-1.72-.594 16.044 16.044 0 00-1.926-.114c-.264 0-.57.007-.917.02a8.732 8.732 0 00-1.083.115 5.912 5.912 0 00-1.115.302c-.368.139-.705.34-1.01.604a3.143 3.143 0 00-.719.875c-.173.32-.305.67-.395 1.052-.09.382-.146.798-.167 1.25-.02.451-.032.934-.032 1.448 0 .736.042 1.458.126 2.166.083.709.305 1.326.666 1.854a2.9 2.9 0 00.75.76 3.503 3.503 0 001.75.605c.306.02.597.03.875.03h6.125zm-7.77-6.582c.013-.36.037-.698.072-1.01.035-.313.177-.608.427-.885.167-.181.35-.324.552-.427a2.33 2.33 0 01.615-.22c.208-.041.41-.065.604-.072.194-.007.375-.01.542-.01.347 0 .704.023 1.072.072.368.049.705.191 1.01.427.181.14.344.334.49.584.146.25.22.548.22.895 0 .153-.032.299-.095.438-.062.139-.212.208-.447.208h-5.063zm19.643 6.583V40.49h-2.437v4.416h-5.27V40.49h-2.438v11.04h2.438v-4.749h5.27v4.75h2.437zm7.417 0v-9.166h4.145V40.49H77.966v1.875h4.146v9.166h2.437zm7.416 0h3.083c.278 0 .587-.01.927-.031.34-.021.688-.084 1.042-.188a3.787 3.787 0 001.02-.479c.327-.215.622-.51.886-.885.194-.278.35-.584.468-.917.118-.333.209-.68.271-1.041.063-.362.1-.73.115-1.104.014-.375.02-.744.02-1.105 0-.305-.006-.635-.02-.99a6.403 6.403 0 00-.135-1.072 5.042 5.042 0 00-.355-1.062 3.516 3.516 0 00-.656-.959 3.28 3.28 0 00-.854-.656 4.665 4.665 0 00-1.74-.52 8.289 8.289 0 00-.656-.032h-3.854c-.208 0-.437.02-.687.063-.25.041-.48.138-.688.291a2.04 2.04 0 00-.416.49c-.14.215-.208.503-.208.864v12.874h2.437v-3.541zm0-1.875v-6.77c0-.14.055-.264.166-.375.042-.028.094-.06.157-.094a.366.366 0 01.177-.052h2.395c.542 0 .993.118 1.355.354.36.236.618.535.77.896.07.153.136.399.198.74.063.34.094.885.094 1.635 0 .82-.048 1.423-.146 1.812-.097.389-.201.667-.312.833-.14.223-.368.448-.688.677-.32.23-.784.344-1.396.344h-2.77zM45.784 69.53v-9.19h4.156v-1.88H39.183v1.88h4.157v9.19h2.444zm5.514-11.07v1.88h5.452c.194 0 .4.027.616.082.216.056.407.188.574.397.14.167.226.342.261.523.035.18.053.355.053.522v.773h-4.805c-.292 0-.616.03-.97.094-.356.062-.708.247-1.056.553-.418.362-.679.78-.783 1.253a6.662 6.662 0 00-.157 1.442c0 .208.007.445.021.71.014.264.052.536.115.814.063.279.16.547.292.805.133.257.31.483.533.678.32.28.658.44 1.013.481.355.042.686.063.992.063h5.285c.264 0 .536-.025.815-.073a1.305 1.305 0 001.075-1.076 4.21 4.21 0 00.073-.71v-5.745c0-.626-.076-1.159-.23-1.597-.153-.44-.347-.777-.584-1.014a2.594 2.594 0 00-.982-.626 3.675 3.675 0 00-1.316-.23h-6.287zm6.956 6.056v2.549c0 .083-.007.164-.021.24a.383.383 0 01-.146.22.482.482 0 01-.283.114 4.09 4.09 0 01-.26.01h-3.405c-.154 0-.303-.034-.45-.104a1.24 1.24 0 01-.344-.23 1.03 1.03 0 01-.282-.605 4.704 4.704 0 01-.052-.627c0-.404.035-.69.104-.856.07-.168.125-.279.167-.335a.8.8 0 01.491-.323 2.55 2.55 0 01.407-.053h4.074zm3.07 5.013h2.507l3.404-8.542c.028-.056.056-.122.084-.199.028-.076.07-.115.125-.115.056 0 .098.038.126.115.027.077.055.143.083.199l3.405 8.542h2.506l-4.49-10.276a1.445 1.445 0 00-.68-.7 2.142 2.142 0 00-.95-.219 2.14 2.14 0 00-.95.219c-.3.147-.526.38-.68.7l-4.49 10.276zm13.39-11.07v1.88h5.451c.195 0 .4.028.616.084.216.055.407.187.574.396.14.167.227.342.261.523.035.18.053.355.053.522v.773h-4.805c-.292 0-.616.03-.97.094-.356.062-.708.247-1.056.553-.417.362-.678.78-.783 1.253a6.674 6.674 0 00-.157 1.442c0 .208.007.445.021.71a4.9 4.9 0 00.115.814c.063.279.16.547.293.805.132.257.31.483.532.678.32.28.658.44 1.014.481.355.042.685.063.991.063h5.285a4.8 4.8 0 00.815-.073 1.305 1.305 0 001.075-1.076 4.24 4.24 0 00.073-.71v-5.745c0-.626-.076-1.159-.23-1.597-.153-.44-.347-.777-.584-1.014a2.595 2.595 0 00-.982-.626A3.675 3.675 0 0081 58.46h-6.287zm6.955 6.057v2.549c0 .083-.007.164-.021.24a.383.383 0 01-.146.22.481.481 0 01-.282.114c-.105.007-.192.01-.261.01h-3.405c-.153 0-.303-.034-.45-.104a1.237 1.237 0 01-.344-.23 1.03 1.03 0 01-.282-.605 4.7 4.7 0 01-.052-.627c0-.404.035-.69.104-.856a1.77 1.77 0 01.168-.335.8.8 0 01.49-.323 2.55 2.55 0 01.408-.053h4.073zm14.287 5.013V58.46h-2.444v4.428h-5.285V58.46h-2.444v11.07h2.444v-4.762h5.285v4.763h2.444zm7.436 0v-9.19h4.157v-1.88H96.791v1.88h4.157v9.19h2.444zm10.59-11.195c-.334 0-.696.007-1.086.02-.39.014-.787.06-1.191.137a5.659 5.659 0 00-1.17.355 3.62 3.62 0 00-1.023.657 3.32 3.32 0 00-.763 1.034c-.188.397-.33.801-.428 1.212-.097.41-.16.818-.188 1.222-.027.404-.041.759-.041 1.065 0 .278.014.61.041.992.028.383.087.78.178 1.19.09.412.23.812.418 1.202.187.39.449.738.783 1.044a3.6 3.6 0 001.023.658c.376.16.766.279 1.17.355a8.92 8.92 0 001.191.147c.39.02.752.031 1.086.031.32 0 .675-.01 1.065-.031.39-.021.79-.07 1.201-.147a5.879 5.879 0 001.191-.355c.383-.16.72-.38 1.013-.658.404-.39.741-.943 1.013-1.66.271-.717.407-1.668.407-2.852 0-.292-.014-.633-.042-1.023a7.243 7.243 0 00-.188-1.19 6.17 6.17 0 00-.428-1.202 3.304 3.304 0 00-.762-1.034 3.634 3.634 0 00-1.024-.657 5.669 5.669 0 00-1.169-.355 7.874 7.874 0 00-1.191-.136c-.39-.014-.752-.021-1.086-.021zm-3.363 5.681c0-.18.003-.397.01-.647s.032-.512.074-.784c.041-.271.111-.54.208-.804.098-.264.23-.494.397-.689.167-.195.366-.352.595-.47a3.466 3.466 0 011.421-.386 11.56 11.56 0 011.347-.001c.237.014.47.053.7.115.23.063.452.154.668.272.216.118.415.275.596.47.195.209.341.442.438.7.098.257.167.518.209.783.042.265.063.522.063.773v.668c0 .488-.032.982-.094 1.483a2.46 2.46 0 01-.637 1.358c-.362.404-.777.658-1.243.763-.467.104-.93.156-1.389.156-.446 0-.909-.052-1.389-.157-.481-.104-.902-.358-1.264-.762a2.537 2.537 0 01-.616-1.379 12.062 12.062 0 01-.094-1.462zm18.903-.23c.279-.027.529-.1.752-.219a2.07 2.07 0 00.564-.428c.223-.25.362-.547.418-.888.056-.34.083-.658.083-.95a7.09 7.09 0 00-.083-.982 2.046 2.046 0 00-.501-1.065 1.776 1.776 0 00-.575-.45 3.412 3.412 0 00-.658-.24 3.16 3.16 0 00-.668-.093c-.223-.007-.425-.01-.606-.01h-5.013c-.237 0-.484.024-.741.072a1.64 1.64 0 00-.742.366c-.237.195-.379.41-.428.647a3.216 3.216 0 00-.073.648V67.9c0 .181.02.39.062.627.042.237.16.439.356.606.194.18.428.292.699.334.272.042.526.063.763.063h5.263c.321 0 .689-.032 1.107-.094.418-.063.794-.262 1.128-.596.181-.18.321-.383.418-.606.097-.222.171-.445.219-.668.049-.223.08-.435.094-.637a6.288 6.288 0 00-.052-1.462 1.882 1.882 0 00-.407-.909 2.193 2.193 0 00-.543-.449 2.089 2.089 0 00-.836-.282v-.041zm-5.828-.919v-1.984c0-.07.008-.14.021-.209a.419.419 0 01.126-.209.362.362 0 01.229-.114 2.78 2.78 0 01.23-.01h3.217c.167 0 .334.013.501.04a.91.91 0 01.46.23c.153.14.247.3.282.481.035.181.052.355.052.522 0 .153-.017.31-.052.47a.911.911 0 01-.261.45.967.967 0 01-.512.281 2.84 2.84 0 01-.512.052h-3.781zm0 1.88h3.823c.139 0 .31.018.512.053a.922.922 0 01.532.302c.14.153.223.324.251.512.028.188.042.366.042.533 0 .18-.018.383-.052.605a.994.994 0 01-.282.564.983.983 0 01-.544.282 3.554 3.554 0 01-.584.053h-3.05a1.84 1.84 0 01-.282-.021.385.385 0 01-.24-.147.816.816 0 01-.094-.24 1.156 1.156 0 01-.032-.26v-2.236z" fill="#8602FF"/><path d="M139.327 68.983h1.854c.166 0 .352-.007.557-.019.204-.013.413-.05.626-.113.213-.062.417-.159.613-.288a2.03 2.03 0 00.533-.532c.116-.167.21-.35.281-.551.071-.2.125-.409.163-.626.038-.217.061-.438.069-.664a15.899 15.899 0 000-1.258 3.79 3.79 0 00-.081-.645 3.027 3.027 0 00-.213-.639 2.117 2.117 0 00-.395-.576 1.952 1.952 0 00-.513-.394 2.811 2.811 0 00-1.046-.313 4.995 4.995 0 00-.394-.019h-2.317a2.53 2.53 0 00-.413.038.954.954 0 00-.413.175 1.227 1.227 0 00-.251.294c-.083.13-.125.303-.125.52v7.738h1.465v-2.128zm0-1.127v-4.07c0-.083.034-.159.1-.225.025-.017.057-.036.094-.057a.223.223 0 01.107-.031h1.44c.325 0 .597.071.814.213.217.142.371.321.463.538.042.092.081.24.119.445.038.205.056.532.056.983 0 .492-.029.856-.087 1.09-.059.233-.121.4-.188.5-.084.134-.222.27-.413.407-.192.138-.472.207-.839.207h-1.666zm11.545 1.127v-1.127h-3.243a3.39 3.39 0 01-.407-.025 1.403 1.403 0 01-.394-.107.915.915 0 01-.326-.238 1.067 1.067 0 01-.213-.42 3.036 3.036 0 01-.062-.425 5.35 5.35 0 01-.025-.488h3.856c.134 0 .261-.017.382-.05a.75.75 0 00.332-.2.905.905 0 00.263-.483c.034-.18.05-.353.05-.52a5.12 5.12 0 00-.037-.62 2.525 2.525 0 00-.144-.588 1.86 1.86 0 00-.758-.946 2.5 2.5 0 00-1.033-.356 9.628 9.628 0 00-1.158-.069c-.159 0-.342.004-.551.013a5.225 5.225 0 00-.651.068 3.523 3.523 0 00-.67.182 2.017 2.017 0 00-.608.363 1.907 1.907 0 00-.432.526 2.587 2.587 0 00-.238.632 4.15 4.15 0 00-.1.752c-.012.271-.018.561-.018.87 0 .442.025.876.075 1.302.05.426.183.797.4 1.115.134.192.284.344.451.457a2.123 2.123 0 001.052.363c.184.013.359.019.526.019h3.681zm-4.67-3.957c.008-.217.023-.42.044-.608a.942.942 0 01.256-.532c.1-.108.211-.194.332-.257.121-.062.244-.106.37-.131.125-.025.246-.04.363-.044.116-.004.225-.006.325-.006.209 0 .424.015.645.044a1.19 1.19 0 01.902.607c.087.15.131.33.131.539 0 .091-.019.18-.056.262-.038.084-.127.126-.269.126h-3.043zm11.683-3.682v-1.127h-3.569a2.94 2.94 0 00-.808.1 2.241 2.241 0 00-.588.257 1.912 1.912 0 00-.401.332 2.057 2.057 0 00-.244.325 2.252 2.252 0 00-.301.827 5.19 5.19 0 00-.062.751v3.456c0 .293.014.58.044.864.029.284.127.572.294.864.158.267.351.472.576.614.225.142.463.246.713.313.251.067.508.106.771.119a15.592 15.592 0 001.502 0c.255-.013.505-.05.752-.113.246-.062.475-.16.688-.294a1.79 1.79 0 00.557-.576 2.13 2.13 0 00.27-.582c.062-.213.108-.424.137-.633.03-.208.046-.409.051-.6.004-.193.006-.364.006-.514 0-.36-.023-.728-.069-1.108a2.317 2.317 0 00-.369-1.02c-.167-.26-.428-.487-.783-.683-.355-.197-.837-.294-1.446-.294h-2.229a1.291 1.291 0 01.094-.551 1.08 1.08 0 01.256-.401 1.11 1.11 0 01.626-.282c.243-.03.456-.044.639-.044h2.893zm-4.508 2.405h1.903c.342 0 .601.06.776.181.176.121.297.223.363.307.109.142.192.336.251.582.058.246.088.582.088 1.008 0 .134-.005.28-.013.438a3.5 3.5 0 01-.056.47c-.029.154-.075.3-.138.438a1.215 1.215 0 01-.244.357 1.347 1.347 0 01-.576.3 2.64 2.64 0 01-.701.1 2.17 2.17 0 01-.795-.13 1.327 1.327 0 01-.52-.345 1.295 1.295 0 01-.238-.407 1.783 1.783 0 01-.1-.645v-2.654zm9.404-2.392h1.352V60.13h-1.352v1.227zm-1.34 0V60.13h-1.365v1.227h1.365zm3.669 7.626v-1.127h-3.243c-.134 0-.27-.008-.407-.025a1.42 1.42 0 01-.395-.107.902.902 0 01-.325-.238 1.067 1.067 0 01-.213-.42 3.01 3.01 0 01-.063-.425 5.735 5.735 0 01-.025-.488h3.857c.133 0 .261-.017.382-.05a.75.75 0 00.332-.2.919.919 0 00.263-.483c.033-.18.05-.353.05-.52 0-.208-.013-.415-.038-.62a2.525 2.525 0 00-.144-.588 1.873 1.873 0 00-.757-.946 2.504 2.504 0 00-1.034-.356 9.616 9.616 0 00-1.158-.069c-.158 0-.342.004-.551.013a5.245 5.245 0 00-.651.068 3.543 3.543 0 00-.67.182 2 2 0 00-.607.363 1.872 1.872 0 00-.432.526 2.509 2.509 0 00-.238.632 4.07 4.07 0 00-.1.752 18.24 18.24 0 00-.019.87c0 .442.025.876.075 1.302.05.426.184.797.401 1.115.133.192.284.344.451.457a2.123 2.123 0 001.051.363c.184.013.359.019.526.019h3.682zm-4.671-3.957a8.8 8.8 0 01.044-.608.944.944 0 01.257-.532c.1-.108.21-.194.332-.257.121-.062.244-.106.369-.131.125-.025.246-.04.363-.044.117-.004.225-.006.326-.006.208 0 .423.015.645.044a1.199 1.199 0 01.901.607c.088.15.132.33.132.539 0 .091-.019.18-.057.262-.037.084-.127.126-.269.126h-3.043zm11.808 3.957v-6.637h-1.465v2.655h-3.168v-2.655h-1.465v6.637h1.465v-2.855h3.168v2.855h1.465zm7.313 0l-2.83-2.956a1.02 1.02 0 01-.156-.219.517.517 0 01-.082-.244.49.49 0 01.113-.307c.075-.096.142-.173.2-.231l2.517-2.68h-1.74l-2.117 2.354a6.696 6.696 0 00-.3.388.798.798 0 00-.031.927c.087.134.169.242.244.326l2.417 2.642h1.765zm-4.846 0v-6.637h-1.465v6.637h1.465zm5.285-6.637v1.127h3.268c.117 0 .24.017.369.05a.655.655 0 01.345.238c.083.1.135.204.156.313.021.109.031.213.031.313v.463h-2.88c-.175 0-.369.02-.582.057-.213.037-.424.148-.632.332a1.377 1.377 0 00-.47.751 3.973 3.973 0 00-.094.864c0 .125.004.267.013.426.008.158.031.321.069.488.037.167.095.328.175.482.079.155.186.29.319.407.192.167.395.263.608.288.212.025.411.038.594.038h3.168c.159 0 .322-.015.489-.044a.779.779 0 00.645-.645c.029-.167.043-.309.043-.426v-3.443a2.92 2.92 0 00-.137-.958c-.092-.263-.209-.466-.351-.608a1.55 1.55 0 00-.589-.375 2.208 2.208 0 00-.788-.138h-3.769zm4.169 3.632v1.527a.84.84 0 01-.012.144.234.234 0 01-.088.132.287.287 0 01-.169.069 2.504 2.504 0 01-.156.006h-2.041a.748.748 0 01-.476-.2.611.611 0 01-.169-.364 2.82 2.82 0 01-.032-.375c0-.242.021-.414.063-.514.042-.1.075-.167.1-.2a.484.484 0 01.294-.194c.113-.021.195-.031.245-.031h2.441zm-77.115-14.512h1.857a9.4 9.4 0 00.558-.019c.205-.012.414-.05.627-.113.213-.063.418-.159.614-.288.197-.13.374-.308.533-.533.118-.167.211-.352.283-.552.071-.2.125-.41.163-.627.037-.218.06-.44.069-.665a15.949 15.949 0 000-1.26 3.907 3.907 0 00-.082-.646 3.034 3.034 0 00-.213-.64 2.118 2.118 0 00-.395-.577 1.975 1.975 0 00-.514-.395 2.794 2.794 0 00-1.048-.313 5.002 5.002 0 00-.395-.02h-2.32c-.125 0-.263.013-.414.038a.963.963 0 00-.414.176 1.25 1.25 0 00-.251.295c-.083.13-.125.303-.125.52v7.751h1.467v-2.132zm0-1.129v-4.076c0-.084.034-.159.101-.226.025-.016.056-.035.094-.056a.217.217 0 01.106-.032h1.443c.326 0 .598.072.815.214a1.2 1.2 0 01.464.539c.042.092.081.24.119.445.038.205.057.533.057.985 0 .493-.03.857-.088 1.091-.059.234-.121.401-.188.502a1.54 1.54 0 01-.414.407c-.193.138-.473.207-.841.207h-1.668zm5.857-5.518v1.128h3.274c.117 0 .24.017.37.05a.651.651 0 01.345.239.69.69 0 01.157.314c.021.108.031.213.031.313v.464h-2.885c-.175 0-.37.02-.583.056-.213.038-.424.149-.633.333a1.382 1.382 0 00-.471.753 4.046 4.046 0 00-.094.865c0 .125.005.267.013.426.008.16.031.322.069.49.037.167.096.328.175.482.08.155.186.29.32.408.193.167.395.263.609.288.213.026.411.038.595.038h3.173c.159 0 .322-.015.489-.044a.778.778 0 00.427-.22.776.776 0 00.219-.426c.03-.167.044-.31.044-.426V46.9c0-.376-.046-.695-.138-.959-.092-.263-.209-.466-.351-.608a1.556 1.556 0 00-.589-.376 2.216 2.216 0 00-.79-.138h-3.776zm4.177 3.637v1.53c0 .05-.004.098-.013.144a.228.228 0 01-.087.132.289.289 0 01-.17.069 2.334 2.334 0 01-.157.006h-2.044a.617.617 0 01-.269-.062.762.762 0 01-.208-.138.618.618 0 01-.169-.364 2.803 2.803 0 01-.031-.376c0-.243.021-.414.063-.515.041-.1.075-.167.1-.2a.483.483 0 01.295-.195c.113-.02.194-.03.244-.03h2.446zm2.471 3.01h3.925c.218 0 .443-.019.678-.056.234-.038.451-.149.652-.333.125-.117.242-.292.351-.527.109-.234.163-.547.163-.94 0-.31-.033-.556-.1-.74a1.286 1.286 0 00-.238-.427 1.199 1.199 0 00-.295-.25 1.036 1.036 0 00-.458-.138v-.038c.176-.017.326-.063.451-.138.126-.075.226-.159.302-.25.075-.093.144-.227.206-.402.063-.176.094-.414.094-.715 0-.2-.027-.42-.081-.659a1.221 1.221 0 00-.357-.62 1.202 1.202 0 00-.653-.351 4.26 4.26 0 00-.727-.063h-3.788v1.128h3.236c.059 0 .153.009.282.026a.66.66 0 01.345.15c.059.05.111.121.157.213a.852.852 0 01.069.377.851.851 0 01-.069.376.827.827 0 01-.144.213.496.496 0 01-.283.157 2.461 2.461 0 01-.319.019h-3.211v1.128h3.16c.076 0 .174.009.295.026a.712.712 0 01.333.138.57.57 0 01.232.313c.029.117.044.234.044.351 0 .192-.024.345-.07.458a.767.767 0 01-.156.257.55.55 0 01-.32.163 2.71 2.71 0 01-.37.025h-3.336v1.129zm11.614-3.449a1.215 1.215 0 00.79-.389 1.04 1.04 0 00.251-.533c.033-.205.05-.395.05-.57 0-.16-.017-.356-.05-.59a1.23 1.23 0 00-.301-.64 1.07 1.07 0 00-.345-.27 2.056 2.056 0 00-.395-.143 1.892 1.892 0 00-.402-.057 11.385 11.385 0 00-.363-.006h-3.01c-.143 0-.291.014-.446.044a.986.986 0 00-.445.22.688.688 0 00-.257.388 1.963 1.963 0 00-.044.389v4.628c0 .108.012.234.038.376a.609.609 0 00.213.364.779.779 0 00.42.2c.163.026.316.038.458.038h3.16c.193 0 .414-.019.665-.056.251-.038.477-.157.677-.358a1.17 1.17 0 00.251-.364c.059-.133.102-.267.132-.4.029-.135.048-.262.056-.383a3.826 3.826 0 00-.031-.878 1.127 1.127 0 00-.245-.546 1.298 1.298 0 00-.827-.439v-.025zm-3.5-.552v-1.191a.67.67 0 01.013-.126.247.247 0 01.075-.125.22.22 0 01.138-.07c.05-.003.096-.006.138-.006h1.932c.1 0 .2.009.301.026.1.016.192.062.276.138.091.083.148.18.169.288.021.109.031.213.031.313 0 .092-.01.187-.031.283a.544.544 0 01-.157.27.581.581 0 01-.307.169 1.7 1.7 0 01-.308.031h-2.27zm0 1.129h2.296c.083 0 .186.01.307.031a.557.557 0 01.32.182.582.582 0 01.15.307 2.15 2.15 0 01-.006.684.602.602 0 01-.496.508c-.125.02-.242.031-.351.031h-1.831a1.16 1.16 0 01-.169-.012.228.228 0 01-.144-.088.51.51 0 01-.057-.144.732.732 0 01-.019-.157v-1.342zm11.953 2.872v-5.707c0-.25-.042-.443-.125-.577a.937.937 0 00-.283-.3.747.747 0 00-.32-.12 1.43 1.43 0 00-.702.063c-.159.054-.305.178-.439.37l-2.96 4.352c-.025.042-.05.082-.075.12a.114.114 0 01-.1.056c-.051 0-.08-.015-.088-.044a.483.483 0 01-.013-.132l.063-4.728h-1.468V50.6c0 .092.011.192.032.3.021.11.065.21.132.302a.836.836 0 00.288.238c.125.067.297.1.514.1.251 0 .443-.044.577-.131.134-.088.259-.22.376-.395l2.923-4.277a.755.755 0 01.113-.145c.025-.02.046-.03.062-.03.051 0 .076.016.076.05v.125l-.051 4.728h1.468zm4.465 0v-5.519h2.496V44.82h-6.459v1.128h2.495v5.519h1.468zm9.506 0v-5.707c0-.25-.042-.443-.125-.577a.946.946 0 00-.282-.3.751.751 0 00-.32-.12 1.426 1.426 0 00-.702.063c-.159.054-.305.178-.439.37l-2.96 4.352c-.025.042-.051.082-.075.12a.116.116 0 01-.101.056c-.05 0-.079-.015-.087-.044a.483.483 0 01-.013-.132l.063-4.728h-1.468V50.6c0 .092.011.192.032.3a.73.73 0 00.131.302.831.831 0 00.289.238c.125.067.297.1.514.1.251 0 .443-.044.577-.131.134-.088.259-.22.376-.395l2.922-4.277a.798.798 0 01.113-.145c.025-.02.046-.03.063-.03.05 0 .075.016.075.05v.125l-.05 4.728h1.467zm.753 0h1.718l2.07-2.358a.936.936 0 00.251-.677.554.554 0 00-.076-.314.495.495 0 00-.182-.17.607.607 0 00-.213-.068 1.498 1.498 0 00-.169-.013h-.891c-.125 0-.242-.01-.351-.03a.466.466 0 01-.288-.208.86.86 0 01-.101-.263 2.36 2.36 0 01-.037-.49c0-.117.008-.24.025-.37a.63.63 0 01.138-.332.629.629 0 01.238-.163.836.836 0 01.326-.063h1.919c.067 0 .142.005.226.013.083.008.15.038.2.088.051.05.08.125.088.226.009.1.013.163.013.188v5.004h1.467v-5.43c0-.11-.014-.264-.044-.465a.86.86 0 00-.269-.514.763.763 0 00-.427-.207 3.156 3.156 0 00-.401-.031h-3.386c-.276 0-.506.041-.69.125a1.517 1.517 0 00-.452.301c-.217.218-.353.47-.407.759a4.272 4.272 0 00-.082.796c0 .226.021.49.063.79a1.7 1.7 0 00.313.79c.092.126.232.252.421.377.188.125.449.188.783.188h.352c.025 0 .052.002.081.006.029.005.044.028.044.07 0 .041-.029.091-.088.15l-2.182 2.295zm33.649 10.469c1.249.018 2.347-1.075 2.307-2.352.015-1.246-1.061-2.31-2.32-2.314-1.261-.002-2.347 1.05-2.344 2.342.002 1.335 1.136 2.36 2.357 2.324zm3.113-2.478v.363c-.008.058-.013.119-.02.176a3.134 3.134 0 01-3.473 2.725 3.111 3.111 0 01-2.123-1.196 3.173 3.173 0 01-.633-1.519c-.007-.065-.012-.128-.02-.194v-.41a.16.16 0 00.005-.037c.008-.16.036-.315.074-.47a3.147 3.147 0 011.042-1.699 3.049 3.049 0 011.04-.574 3.221 3.221 0 011.332-.136c.285.03.559.103.821.214.857.357 1.446.974 1.77 1.846.084.224.139.456.165.695.007.073.012.144.02.216z" fill="#F0C228"/><path d="M189.206 59.16h-.29a.069.069 0 01-.063-.034c-.028-.035-.053-.072-.081-.108-.259-.325-.594-.468-1.002-.378-.413.094-.672.363-.763.778a.985.985 0 00.557 1.086.984.984 0 001.176-.27l.09-.123a.136.136 0 01.111-.06c.189 0 .378 0 .57.002.05 0 .06.01.04.059-.048.115-.094.23-.157.336-.236.4-.587.663-1.037.766a1.64 1.64 0 01-1.999-1.297c-.119-.652.095-1.201.614-1.619.244-.197.528-.313.841-.335.589-.048 1.08.154 1.458.617.123.15.214.32.277.506.02.065.018.07-.05.073-.099.003-.194 0-.292 0z" fill="#F0C228"/></svg>