<svg width="754" height="755" fill="none" xmlns="http://www.w3.org/2000/svg"><path fill-rule="evenodd" clip-rule="evenodd" d="M505.336 192.908l-2.239 1.768c-.236.172-.088.179-.386.246l-.524.613c-.771.586-1.713 1.15-2.41 1.859-.176.177-.337.363-.509.492l-4.105 3.124c-.875.889-.657.192-1.466 1.027l-.839.734c-.067.046-.3.221-.349.26l-5.513 4.17c-.462.322-.783.614-1.216.995l-1.87 1.37c-.469.394-.17.372-.76.349-.271-.601-.161-12.335-.152-14.599.007-1.85-.135-2.891-1.284-3.725-1.38-1.003-1.892-.757-3.964-.764-12.786.004-17.848 1.872-17.817-12.984.008-3.702-.02-7.405-.005-11.105v-44.719c0-9.402 2.564-10.999 11.108-10.962l82.611.014c4.111.083 7.157 3.287 7.202 7.69.09 8.672-.061 17.464.001 26.209.03 4.217.214 36.979-.063 39.185-.145 1.16-.489 2.419-1.066 3.228-2.727 3.26-1.977 2.279-5.169 3.506-1.28.492-36.878.197-42.649.218-.73.002-1.459-.006-2.19-.001-.306.001-.741-.008-1.035.018l-2.604 1.49c-.301.185-.177.286-.738.294zm-19.477-52.084c0-2.366-.322-2.32 2.108-2.32l17.568-.002-.063-5.999c-7.916-.068-18.345-.142-26.132.022-.136 5.314-.044 12.451-.03 17.776.014 5.144-.185 13.966.018 18.65l26.827.023-.051-5.927-16.678-.002c-3.054.017-3.566.303-3.564-1.786v-4.739c.005-3.573-.475-4.079 2.105-4.082l15.863-.038.015-5.381-9.749-.021c-1.497.004-7.309.229-8.211-.355l-.026-5.819zm48.854 28.126l7.191.031-.046-36.509-6.359.051-.051 24.455c-.04.822.011.756-.484 1.06-.325-.129-1.98-3.103-2.21-3.601-3.864-6.886-7.525-13.613-11.386-20.57-.711-1.285-.668-1.641-1.719-1.68a91.305 91.305 0 00-6.742.022c-.364 1.044-.189 32.977-.163 36.812 1.261.038 5.751.175 6.695-.133l.006-25.569c1.007-.015.737-.321 1.826 1.774 4.476 8.005 8.771 15.681 13.442 23.857zm-75.58-60.657c-2.86 2.418-4.564 4.157-5.16 8.001l-.147 63.568c-.011 4.943.336 12.425 6.234 15.198.762.358.021.207 1.252.657.781.284.524.251 1.515.437.635.118.774.481 1.304.518 5.307.526 6.533.344 11.291.399.305.003.533-.013.806.076.677.221.336.059.491.409.322.636.131 14.35.126 17.01-.002.907-.062 1.865.074 2.746.262 1.7 1.99 2.519 3.416 2.256 1.545-.284 2.771-1.464 3.893-2.433.683-.589.755-.434 1.44-.944.996-.74 3.387-2.793 4.435-3.358l1.221-.958c.309-.209.625-.396.964-.566.262-.249.116-.078.369-.277l2.017-1.651c.282-.23.653-.421.866-.613 1.585-1.425 2.792-2.102 3.654-2.95l7.893-6.05c.667-.47 1.087-.788 1.692-1.249a10.7 10.7 0 01.867-.611l.438-.289c.306-.21-.122-.116.505-.256 1.183-.264 41.468.31 43.889-.194.645-.135-.026-.031.534-.171.544-.136 1.182-.057 1.921-.305 1.176-.393 2.559-.866 3.553-1.551 5.149-3.547 6.151-7.916 6.15-14.041-.001-9.927 1.767-62.682-1.408-68.306l-1.365-2.507c-4.883-5.318-8.364-5.186-15.179-5.209a939.404 939.404 0 00-6.715 0c-24.697.084-49.639-.167-74.29-.005-4.155.027-5.694.809-8.546 3.219zM57.705 666.021l10.758 4.321c-.485.735-2.876 3.141-3.653 3.799-1.424 1.206-3.148 3.255-3.966 3.476-.035-1.533-2.695-10.744-3.139-11.596zm-21.74 40.246c0 3.879.494 6.8 3.5 9.637 2.835 2.674 4.69 3.324 8.827 3.324 3.262 0 5.78-1.637 7.452-3.353 3.837-3.934 4.661-9.238 2.265-14.009-.353-.703-.58-1.093-1.044-1.67-.468-.581-.812-1.141-1.338-1.597-1.997-1.735-4.652-3.138-7.974-3.088-4.715.07-8.516 2.558-10.423 6.355-.571 1.137-1.264 2.816-1.264 4.401zm36.307-65.711c0 2.398 1.905 3.132 4.207 5.055l15.517 12.452c-.401.556-6.287 4.086-6.99 4.528-1.02.639-1.346.239-3.865-.792l-20.744-8.285c-1.737-.884-17.77-6.57-20.974-7.826-2.422-.947-11.962-4.677-13.32-4.677-1.075 0-2.053.9-2.466 1.59-1.685 2.816-1.572 5.148 1.345 6.596L44.635 659.5c1.753.997 6.531 3.027 7.916 4.248-3.489 0-4.958 3.452-6.993 6.549l-10.676 16.454c-1.675 2.624-1.058 7.92 4.669 7.921 3.162-.001 4.816-3.578 6.5-6.139.851-1.297 4.327-6.889 5.155-7.504.096 1.172.697 3.013 1.025 4.188l1.213 4.227c.628 2.181 2.948 4.598 4.414 6.436 6.162 7.721 4.778 4.543 4.778 16.981 0 4.107.224 6.089.223 10.004 0 3.274-.326 7.734.13 10.784.798 5.351-2.069 16.957 4.803 16.957 2.57 0 4.087-.918 4.8-4.45.473-2.334.367-5.115.35-7.831-.009-1.648.239-2.272.232-3.857-.033-8.105.471-15.998.438-24.113-.006-1.586.242-2.209.233-3.857-.03-5.112-.566-5.53 1.244-6.924 1.617-1.248 3-2.527 4.548-3.797 4.014-3.297 6.997-7.553 7.199-13.162.098-2.738.13-1.849 2.3-3.805.417-.377.597-.644 1.035-.998l9.722-8.552c2.223-2.003 8.464-7.181 8.463-10.059 0-1.612.056-2.21-.816-3.72-1.074-1.852-2.007-2.153-3.623-3.144-.752-.46-1.351-.82-2.102-1.279a1937.502 1937.502 0 00-8.404-5.117c-2.386-1.445-15.549-9.933-17.104-9.933-2.096 0-4.035 2.859-4.035 4.548zm538.319-263.621c-.015-3.762-.154-7.507-.237-11.242-.033-1.436-.27-4.382-.131-5.622.08-.709.947-1.077 1.362-1.406a97.99 97.99 0 011.568-1.219l4.803-3.707c.63-.489.811-.894 1.791-.551l12.69 4.148c1.08.331.863.406 1.203 1.59.212.739.421 1.42.648 2.149.451 1.453.88 2.969 1.322 4.408.923 3.009 1.08 2.564.03 3.978-.682.918-9.234 12.246-9.51 12.947.82 1.349 5.428 7.618 5.629 8.403-6.664.172-12.338-.849-18.066-2.921-3.429-1.241-10.348-4.754-12.693-7.109.458-.459 7.513-2.885 8.5-3.222 1.142-.39.861-.272 1.091-.624zm30.765-9.559c-.751-.246-.733-.116-.974-.824l-1.177-3.967c-.521-1.764-1.053-3.655-1.63-5.419-.508-1.552-.172-1.457.545-2.497 1.192-1.726 6.86-9.393 7.18-10.257l12.287.754c.501.463 1.941 2.942 2.427 3.715.842 1.338 6.607 10.599 7.053 11l9.769-2.508c-.447 2.057-2.501 6.36-3.494 8.038-3.088 5.218-5.702 8.816-10.131 12.793-1.103.99-5.24 4.488-6.486 4.886l.106-10.297-15.475-5.417zm-56.235-7.613c-.726-1.013-2.096-5.952-2.416-7.475-.573-2.736-1.08-5.529-1.204-8.484-.194-4.67.368-13.442 2.162-17.485.535.193 1.43 1.533 1.826 2.019l5.027 6.15 6.965-2.695a490.97 490.97 0 016.922-2.756c2.281-.895 1.907-1.068 3.382-.097 2.386 1.574 6.68 4.513 8.713 5.659l.013 14.874c-1.707 1.096-3.584 2.729-5.322 4.06-.902.691-1.756 1.343-2.647 2.047-.544.429-.713.744-1.544.506l-8.738-2.682c-1.263-.38-6.308-2.023-7.161-2.123-.86.847-5.15 7.784-5.978 8.482zm72.362-60.157c1.235.259 6.427 4.978 7.229 5.754 2.058 1.99 4.051 4.365 5.958 7.115 3.238 4.669 7.128 12.611 7.834 18.592l-9.544-3.764c-.658.472-2.16 2.553-2.79 3.312-.962 1.158-1.777 2.247-2.695 3.332l-5.408 6.782c-2.162.183-6.268-.254-8.593-.416-1.333-.092-3.433.022-3.922-.577l-5.593-7.785c-.638-.907-1.277-1.771-1.901-2.655-1.014-1.436-1.002-1.06-.362-3.011.756-2.306 1.444-4.487 2.185-6.817 1.402-4.408.321-3.441 4.208-4.728 3.203-1.06 10.83-3.759 13.405-4.435l-.011-10.699zm-59.813 4.55c1.21-1.439 5.185-4.206 6.881-5.282 7.792-4.946 18.786-8.345 28.462-7.499-.116.731-5.775 7.874-6.113 8.935.646 1.098 1.747 2.471 2.532 3.565.844 1.177 1.658 2.336 2.519 3.507.909 1.237 1.642 2.278 2.527 3.506.764 1.059 1.776 2.326 2.462 3.475-.141 1.203-1.136 3.766-1.523 5.023-.507 1.641-1.068 3.296-1.569 4.913-.828 2.669-.222 1.96-3.433 3.022l-9.567 3.173c-.889.293-1.605.774-2.355.315-2.911-1.78-6.72-4.585-9.582-6.255l-1.052-17.403c-.495-.435-6.954-2.015-7.754-2.23-.467-.126-.829-.219-1.271-.336l-1.164-.429zm29.614-20.209c-1.676-.3-7.553.851-9.238 1.233-2.801.635-5.444 1.497-7.931 2.469-14.488 5.664-25.523 16.766-31.661 31.185-4.332 10.177-5.941 24.176-2.77 36.012 3.663 13.673 9.289 21.611 17.747 29.485 2.378 2.214 6.293 4.901 9.132 6.565 14.947 8.756 34.974 9.971 50.263 2.807 5.315-2.49 9.008-4.685 13.039-7.927 9.86-7.931 17.213-19.723 19.869-32.48.352-1.691 1.468-7.785 1.115-9.339-.211-.831.159-2 .15-2.97-.01-1.005-.381-1.913-.154-2.805.423-2.014-1.175-9.741-1.733-11.801-2.732-10.096-7.928-19.122-14.7-25.917-7.363-7.388-15.46-11.948-25.61-14.837-1.983-.564-9.559-2.11-11.505-1.725-1.023.051-2.071-.143-3.127-.135-.93.009-2.009.369-2.886.18zm-314.998 42.124c-3.455 0-6.107-.918-8.747-2.318-4.521-2.4-8.687.782-10.889 5.004 3.317-.076 6.101-3.832 9.224-.852 1.609 1.536 1.795 3.925.326 5.615-.722.831-1.302 1.025-2.266 1.508-1.256.628-4.261 1.642-5.96 1.786.44.842.864 1.381 1.367 2.194a45.789 45.789 0 013.583 7.108c1.295 3.265 2.436 7.646 2.772 11.737l-3.693 4.088c-3.409 3.551-7.262 9.987-9.252 14.339-1.71 3.742-5.439 14.951-4.746 18.305.477 2.309 2.237 3.587 4.092 3.78h.989c1.778-.185 3.45-1.379 3.958-3.63.268-1.191.359-2.172.582-3.439.755-4.317 2.185-8.058 3.879-11.954 2.653-6.104 8.843-13.688 14.08-17.722.852-.656 1.759-.697 3.037-.949 5.384-1.064 9.423-3.199 13.677-5.821 6.418-3.954 13.371-12.634 16.169-19.631.741-1.857 2.013-4.493 2.013-6.462 0-4.195-6.142-6.455-8.602-2.013-.362.652-.6 1.513-.882 2.238-.33.851-.603 1.45-.978 2.366-3.034 7.414-8.291 13.088-15.139 17.095-1.436.84-2.993 1.267-4.403 2.024-2.308-3.497-6.22-5.523-8.198-10.485-1.28-3.214-1.126-4.594-.805-7.864 5.37 1.293 11.381-.031 15.991-2.54 1.233-.671 2.932-1.845 3.882-2.776 1.31-1.283 4.329-3.599 1.918-6.319-2.463-2.778-4.911.248-5.6.792-2.627 2.075-3.153 2.807-6.658 3.99-1.122.377-3.368.806-4.721.806zm-35.741-2.911c0 2.441 2.877 7.296 4.79 9.242 7.256 7.387 21.022 2.594 21.022-1.184 0-2.181-1.161-3.581-3.309-3.581-1.968 0-11.469 6.431-15.481-3.543-.242-.603-.417-1.251-.712-1.963-1.527-3.688-6.31-2.591-6.31 1.029zm22.062-11.638c0 3.485.507 5.088 2.921 7.556 4.453 4.555 12.156 3.228 15.104-2.7 1.83-3.682.999-8.279-1.858-11.186-6.155-6.262-16.167-1.105-16.167 6.33zm-20.077 7.61c1.982 0 1.854.103 3.31.447.349-.737.59-1.92.852-2.716l2.927-8.221c1.629-4.032 2.918-6.3 4.825-9.878 2.22-4.163 2.974-4.571 5.201-7.481.42-.548.441-.6.918-1.084l3.981-3.347a16.86 16.86 0 012.503-1.267c2.085-.817 6.15-1.233 6.15 1.092 0 2.069-6.684 7.087-1.102 10.518 1.117.686 2.933.907 4.478 1.068.866.09 3.723-.311 4.694-.489 4.426-.814 8.161-2.131 11.996-4.391 3.267-1.926 7.533-4.506 11.445-2.191 4.415 2.612-.846 6.813-.846 11.153 0 7.197 7.943 10.744 15.223 10.744 8.007 0 11.372-1.471 17.62-4.06 3.26-1.351 5.465-2.84 8.342-4.294l3.255-1.846c.833-.489 1.222-.352 1.449-1.216-2.114-1.029-4.552.703-6.932 2.144l-3.142 1.736c-1.247.621-2.05 1.15-3.309 1.791-6.789 3.452-17.168 7.159-24.566 2.167-8.783-5.925-1.762-12.896-1.762-15.672 0-3.203-5.186-4.923-7.501-4.923-5.665 0-7.796 1.399-12.945 4.324-2.595 1.473-11.202 5.487-14.774 2.982-.682-.479-1.403-1.714-1.403-2.83 0-2.811 3.31-5.046 3.31-6.938 0-2.719-5.21-2.687-7.281-2.687-2.889 0-6.252 1.509-8.477 3.04l-4.151 3.621c-4.229 4.871-6.153 8.557-8.99 14.383-1.783 3.663-4.403 10.43-5.298 14.321zm89.083-163.028c3.36.891 3.072 5.807-.548 6.227-3.199.373-8.102-.015-11.531.059-.567 2.624.81 7.002 1.723 9.005 5.956 13.064 23.424 17.824 35.069 6.439 2.963-2.897 6.995-9.365 6.317-15.41-3.53-.287-7.791.293-11.175-.082-3.663-.405-3.95-5.33-.582-6.253l11.817-.068.138-8.171-11.745-.204c-2.419.231-4.13-4.699-.346-6.057l11.931-.091c.439-1.502.305-6.982.099-8.683-3.856-.524-8.702.401-12.512-.309-2.975-2.23-1.867-5.769 1.247-6.073 3.117-.304 7.839-.02 11.128-.019.112-11.733-9.954-21.429-21.642-21.396-11.67.036-21.505 9.62-21.58 21.384 2.982.021 5.965.011 8.948.009 2.903-.003 5.529.095 5.59 3.167.11 5.568-10.267 2.529-14.582 3.381l-.042 8.45c3.752.215 7.875-.239 11.472.045 4.08.322 4.124 5.544.731 6.231-3.019.207-9.855-.362-12.202.235l-.075 8.008 12.352.176zm5.017 45.523l.066 9.047c-4.61.184-9.439.024-13.971.023-2.425-.001-4.504-.337-6.1 1.014-1.293 1.095-2.171 3.025-1.244 5.17 1.562 3.623 6.978 2.598 11.374 2.599l28.217-.001c4.534.001 9.984 1.022 11.694-2.533.916-1.902.212-4.026-1.078-5.183-1.52-1.363-3.656-1.069-6.048-1.068-3.941.002-10.439.393-14.069-.06l-.081-8.964c7.189-1.989 7.674-.755 15.686-5.401 11.861-6.878 18.843-20.042 19.011-33.985.026-2.159.332-9.069-.391-10.661-1.14-2.509-4.637-3.627-6.954-1.3-3.424 3.441 1.539 15.475-5.13 26.959-12.23 21.066-40.66 21.092-53.079.118-6.648-11.232-1.924-23.264-4.966-26.846-2.177-2.562-5.889-1.654-7.143.953-1.342 2.788-.166 16.664.564 19.839 2.38 10.351 8.891 19.217 17.791 24.81 6.355 3.995 9.413 3.933 15.851 5.47zM53.243 505.592c1.534 1.089 3.111 2.926 4.604 4.291 4.725 4.322 8.65 9.651 12.757 14.156 3.534 3.874 9.141 10.452 13.143 13.77 1.656 1.373 3.148 2.722 4.781 4.184.733.656 1.645 1.28 2.507 1.976 2.886 2.335 5.287 4.837 9.16 4.2 2.638-.433 9.51-5.033 11.423-6.451 3.358-2.488 6.729-5.572 9.108-8.837 4.038-5.541 9.55-19.774 4.983-27.037-.802-1.276-1.649-1.196-1.423-2.993.411-3.273 1.522-7.833 2.681-10.808 1.752-4.493 3.769-8.398 6.211-11.794 1.929-2.683 6.961-8.242 7.696-10.238 2.779-7.546-6.764-14.111-12.651-6.98-1.381 1.673-2.752 3.241-4.038 4.936-4.597 6.059-7.016 9.528-10.069 16.875-.758 1.824-1.547 5.038-2.328 6.5-.557-.613-1.075-2.344-1.357-3.213a50.197 50.197 0 01-.961-3.3c-2.998-11.852.425-18.747-3.64-22.72-3.661-3.578-9.516-2.112-11.512 1.976-1.553 3.183-.94 12.604-.398 16.439 1.262 8.952 4.257 18.564 9.132 25.965 1.896 2.877 3.032 3.582 2.807 6.045-.629 6.884-5.811 11.771-11.212 15.184-1.746-1.049-3.248-3.06-4.807-4.444l-4.431-4.54c-2.793-3.115-5.485-6.263-8.324-9.619l-8.582-9.36c-3.002-2.895-6.036-5.641-9.373-8.558-1.515-1.325-3.375-2.615-5.001-3.966-1.558-1.295-3.661-2.613-6.545-2.079-2.81.52-9.32 4.967-11.343 6.502-7.342 5.57-11.38 9.904-14.642 21.266-1.477 5.143-2.208 10.826.78 14.884.89 1.209.631 1.363.347 3.64-2.48 19.887-14.838 28.599-16.54 32.921-3.018 7.668 6.732 14.192 12.492 7.262 6.124-7.368 10.226-12.492 14.141-21.78.801-1.899 1.586-5.143 2.393-6.653.142.152.141.142.302.413l1.043 2.799c.383 1.188.69 2.176 1.02 3.486 3.044 12.101-.66 18.663 3.824 22.75 3.898 3.554 9.83 1.555 11.484-2.671 1.325-3.387.643-12.619.144-16.364-1.34-10.061-4.858-18.987-9.445-26.083-1.58-2.445-2.603-2.97-1.68-6.877 1.256-5.321 7.52-13.099 11.339-15.055zm38.83 53.682c.588-6.736-3.779-11.863-9.448-12.62-6.684-.893-11.954 4.053-12.626 9.674-.802 6.714 3.836 11.96 9.618 12.735 6.376.856 11.962-4.132 12.456-9.789zM64.46 464.436c-1.935.55-2.4.606-3.967 1.695a11.558 11.558 0 00-2.817 2.79c-1.662 2.296-2.604 5.695-1.756 9.094 1.32 5.299 6.414 10.029 13.273 8.478 5.237-1.184 9.946-6.642 8.484-13.424-1.372-6.361-7.82-10.166-13.217-8.633zm129.334-107.03l1.336 1.009c2.676 1.85 4.395 3.016 7.465 4.401.632.284 2.901 1.24 3.468 1.287l-2.439.677c-1.421.288-3.943.673-5.405.663-.592-.004-.875.08-1.394.082l-2.897-.139c-.465-.063-.916-.07-1.37-.108-1.92-.159-4.391-.748-6.28-1.27-.328-.09-.885-.232-1.181-.377.18-.275 3.747-2.687 4.315-3.106l4.382-3.119zm-49.39-30.412c0 4.498.374 8.734 1.398 13.001.398 1.664.817 3.352 1.41 4.952 1.106 2.991 2.274 6.051 3.914 8.79.412.689.741 1.296 1.156 1.982 1.405 2.33 3.589 5.334 5.419 7.342.293.32.469.463.748.817.48.613 1.792 1.88 2.36 2.413l3.387 2.944c.3.244.584.429.883.681 1.521 1.28 3.988 2.786 5.726 3.804l3.161 1.676c3.691 1.882 7.689 3.116 11.72 4.025 1.803.407 3.646.712 5.48.901.524.052.925.046 1.452.101.404.044 1.104.056 1.487.147v7.8c-2.159-.003-4.501.43-6.543.845a82.702 82.702 0 00-2.992.668 82.17 82.17 0 00-7.209 2.06l-2.715.95c-1.588.618-2.906.977-2.906 3.118 0 .896.62 1.66 1.343 2.026.831.419 2.177.258 3.162.26l20.408.068c2.378-.199 10.545-.07 13.526-.07l8.544.002c.753.004.9-.016 1.425-.287 1.853-.954 1.677-3.686-.208-4.574-.865-.41-1.808-.711-2.723-1.019-3.801-1.285-7.634-2.393-11.6-3.202-2.077-.421-4.36-.846-6.541-.846l-.002-7.799c.384 0 .607-.074 1.09-.078 3.198-.02 8.511-1.265 11.509-2.112 3.069-.866 5.981-2.166 8.81-3.587 1.441-.728 5.279-2.961 6.346-3.961l.156-.159c.122-.134.192-.211.278-.348.906-1.459-.243-3.858-1.94-3.859-.872 0-1.199.154-1.879.615-2.989 2.023-5.936 3.707-9.348 5.092-.992.402-1.992.805-3.03 1.102-4.556 1.308-5.654 1.606-10.269 2.108-.532.058-1.281.149-1.876.146-.637-.005-1.431.136-1.998.056-1.153-.164-2.727.014-3.95-.169-1.255-.191-2.478-.233-3.682-.44-2.256-.389-4.548-.9-6.689-1.566-2.028-.632-4.056-1.396-5.943-2.322-3.325-1.633-5.886-3.182-8.903-5.466-.772-.584-1.569-1.208-2.248-1.894l-2.134-2.008c-.351-.354-.732-.697-1.049-1.064l-2.831-3.354c-.327-.405-.588-.791-.9-1.213a42.377 42.377 0 01-2.459-3.728 49.59 49.59 0 01-3.422-7.009c-3.847-9.751-4.432-21.278-1.329-31.444.739-2.418 1.582-4.757 2.702-7.028.645-1.312 1.262-2.609 2.03-3.852 1.282-2.076 3.585-5.519 5.312-7.292.94-.962 1.863-2.126 2.88-2.989l1.031-.921c1.278-1.009 2.464-2.133 3.808-3.072.801-.562 1.583-1.184 1.583-2.332 0-.867-.28-1.424-.716-1.874-.929-.958-2.191-1.01-3.276-.287-1.254.836-4.045 3.003-5.191 4.19-.237.244-.325.301-.579.514-.676.574-1.452 1.467-2.101 2.124l-1.449 1.602c-.792 1.039-1.855 2.202-2.819 3.522-1.046 1.432-1.975 2.939-2.91 4.453l-.736 1.303c-.982 1.858-1.898 3.736-2.676 5.713-.196.496-.378.989-.588 1.531a38.593 38.593 0 00-1.06 3.18c-1.357 4.672-2.225 9.501-2.225 14.601zm53.817 27.338c.132-.18.324-.267.528-.408l4.565-3.246c.229-.16.38-.25.607-.41l1.145-.807c.201-.151.335-.244.549-.389l1.136-.818c.193-.144.39-.315.634-.38l1.025 1.48c2.236 3.405 4.854 6.97 7.128 10.418-4.06.959-7.3.044-11.028-1.656l-2.48-1.264c-.831-.487-3.449-2.018-3.809-2.52zm-30.675-2.992l12.116-8.587c.287.196.916 1.138 1.174 1.486.378.51.769.988 1.171 1.489.406.503.774.985 1.206 1.456l5.811 6.159c.263.206.483.415.654.677l-5.094 3.575c-.514.346-5.024 3.593-5.079 3.594-.59-.001-4.221-2.461-5.037-3.084l-2.243-1.821c-.151-.142-.187-.203-.363-.342-.19-.15-.209-.157-.376-.327-.12-.121-.186-.203-.308-.317-.168-.157-.222-.167-.389-.315l-2.011-2.134c-.375-.477-.908-1.018-1.232-1.509zm43.955-6.46c.238-.128.343-.204.565-.373.213-.162.396-.269.598-.415l2.284-1.624c.417-.28.736-.521 1.151-.802.217-.148.327-.248.541-.395.226-.157.378-.26.596-.421l2.837-2.006c.237-.158.389-.286.589-.425.079.343.185.665.28 1.056 1.132 4.569 1.865 11.304-.226 15.542-.168.342-.29.61-.466.945-.164.312-.439.584-.518.894-.355-.242-7.119-10.316-7.721-11.156l-.51-.82zm-27.646-5.121c.58-.312 5.276-3.697 6.074-4.237l2.235-1.593c.273-.184.515-.363.776-.552.502-.361 1.005-.676 1.52-1.057.517-.383.995-.721 1.509-1.07l4.752 6.918c.701 1.076 3.393 4.84 3.712 5.451l-10.483 7.327-1.42-1.241c-.235-.24-.413-.434-.655-.67-.16-.157-.189-.159-.344-.283-1.062-.859-4.427-4.775-5.401-5.946l-2.022-2.595c-.114-.151-.013.016-.131-.182-.108-.178-.078-.183-.122-.27zm-24.229-7.406c.33-.088 2.232-1.539 2.592-1.781.262-.175.388-.282.636-.458l1.927-1.355c.459-.309.863-.589 1.291-.898l2.561-1.81c.277-.2 1.009-.783 1.321-.867.286 1.247 2.449 5.545 3.156 6.96l.881 1.628c.739 1.379 2.044 3.546 2.875 4.805-.323.172-.447.295-.746.505-2.533 1.781-5.961 4.119-8.384 5.91-.271.199-.474.343-.734.517l-2.328 1.655c-.643-1.232-1.001-1.765-1.71-3.23l-1.427-3.514c-.209-.643-.412-1.205-.601-1.833-.381-1.258-.957-3.803-1.143-5.144-.04-.293-.077-.897-.167-1.09zm67.405 17.017l.003-2.998c-.005-.438-.08-.5-.083-.938-.016-2.54-.838-6.053-1.474-8.512-.122-.475-.277-1.179-.466-1.576 2.313-1.569 4.87-3.509 7.1-5.01l1.677-1.135-.257 3.05c-.395 3.209-.921 5.205-1.907 8.227-.701 2.146-2.065 4.92-3.226 6.891-.186.314-1.143 1.849-1.367 2.001zm-26.947-21.033c1.951-1.327 4.121-2.983 6.089-4.304 1.072-.72 5.487-3.954 6.103-4.286.067.288.735 1.253.929 1.58.315.529.624 1.057.932 1.576l1.327 2.435c.166.29.305.554.461.87.279.563.54 1.094.829 1.681.301.607.535 1.175.804 1.783.12.272.258.598.388.869.14.293.228.565.365.889l.721 1.868c-.485.261-.849.577-1.302.883l-7.877 5.562c-.347.233-.998.792-1.382.883-.089-.336-1.877-2.781-2.083-3.088l-5.76-8.415c-.185-.264-.361-.513-.544-.786zm-25.937-6.226l8.496-5.955c.262-.185.419-.313.683-.489.39-.264 1.023-.798 1.383-.883.087.334 1.877 2.781 2.082 3.087.186.279.321.462.512.741l5.793 8.461c-1.933 1.315-4.144 2.998-6.044 4.271-.528.356-.983.716-1.504 1.073l-2.253 1.574c-.286.194-.485.354-.777.551-.275.185-.441.328-.731.521-.263.175-.529.444-.806.52-.224-.165-.339-.473-.512-.741-.651-1.007-2.245-3.738-2.75-4.774l-1.294-2.546c-.155-.314-.23-.554-.388-.868l-1.707-4.021c-.065-.188-.117-.372-.183-.522zm-14.756 4.097c.002-.344.064-.388.08-.708.014-.311-.015-.524.032-.834.08-.544.082-1.029.155-1.576.438-3.26.657-3.946 1.488-6.921.735-2.63 3.086-7.687 4.897-10.08.108-.142.042-.052.106-.129 0 1.331-.02 2.733.074 3.943.052.687.071 1.226.144 1.823.203 1.641 1.181 7.03 1.8 8.337l-8.776 6.145zm56.923-9.375l7.612-5.358c.5-.36 1.002-.677 1.519-1.057l3.062-2.174 1.683 3.178c1.21 2.454 2.544 6.592 2.976 9.27.493 3.053.861 1.831-2.162 4.11l-4.484 3.172c-.534.373-3.022 2.177-3.293 2.253-.133-.579-.487-1.25-.709-1.802-.636-1.569-2.527-5.45-3.326-6.79l-2.878-4.802zm-27.568-5.043l1.941-1.339c1.495-1.075 3.874-2.651 5.226-3.681l3.317-2.306c.362.245.406.317.718.61.159.151.189.147.346.279l1.712 1.651c.46.466.86.878 1.321 1.339l4.893 5.75c.233.286 1.03 1.268 1.106 1.557-.307.083-5.407 3.788-6.073 4.238l-3.013 2.145c-.501.36-1.004.676-1.521 1.056-.518.382-.995.722-1.508 1.069l-2.109-3.059c-.188-.258-.311-.478-.5-.753-.198-.293-.34-.491-.544-.788l-5.312-7.768zm-17.627-4.175c-.001-2.571.362-5.08 1.321-7.247.181-.411.792-1.595 1.086-1.814 1.117 1.692 2.504 3.563 3.573 5.201.407.624 4.481 6.399 4.58 6.775l-6.879 4.839c-.211.147-.357.235-.561.376l-1.133.819c-.207.154-.386.324-.668.347-.006-.336-.149-.767-.217-1.039-.645-2.609-1.102-5.492-1.102-8.257zm32.382-6.225c.929-.63 10.158-7.169 10.174-7.169.443.001 2.974 1.645 3.432 1.954a45.744 45.744 0 013.135 2.334l4.16 4.052c.412.523.867.957 1.231 1.509-.15.101-.181.145-.356.268l-1.15.802c-.537.361-.98.717-1.506 1.073-.53.358-.985.713-1.506 1.072-.546.376-1.019.698-1.57 1.085-1.032.724-1.975 1.441-3.013 2.143-.794.538-2.372 1.758-3.091 2.144-.155-.237-.353-.478-.532-.719l-1.744-2.251c-.605-.756-2.334-2.857-3.063-3.587-.262-.264-.363-.454-.62-.712l-3.981-3.998zm-25.86-5.829c.309-.027 1.498-.304 2.49-.391.561-.047 2.139.149 2.718.228 1.556.213 3.329.819 4.588 1.332 1.893.774 4.127 1.963 5.799 3.1.363.247 1.545.974 1.723 1.246-.126.173-.863.643-1.121.832l-3.99 2.806c-.227.157-.347.266-.59.428l-2.842 2c-.203.147-.343.32-.62.394l-3.06-4.46c-1.217-1.87-2.867-4.072-4.085-5.94l-.888-1.306c-.096-.169-.076-.182-.122-.269zm9.475-4.413c.386-.009.822-.178 1.211-.267.436-.101.834-.186 1.214-.264.808-.165 1.783-.344 2.62-.416 1.808-.155 3.825-.393 5.675-.238l2.784.169c.882.085 1.776.25 2.638.396.855.147 1.655.362 2.49.547l2.336.704-7.022 5.009c-1.968 1.386-1.309 1.494-3.053.169-.967-.735-1.87-1.264-2.848-1.916l-1.518-.902a12.61 12.61 0 00-.756-.417c-.306-.153-.444-.278-.749-.422l-3.306-1.452c-.295-.108-1.541-.454-1.716-.7zm-32.771 35.532l.057 3.762c-.201 1.562.022 1.03.223 2.177.14.8.166 1.499.307 2.289.384 2.143.911 4.328 1.578 6.359 1.001 3.052 2.419 6.248 4.138 8.956l1.06 1.604c1.811 2.707 3.79 4.857 6.012 7.137 1.833 1.879 5.318 4.343 7.472 5.657.582.356 1.04.595 1.648.926 1.296.707.981 1.133 2.522 1.381.517.083.575.17.985.338 4.738 1.939 9.872 3.297 15.077 3.298 5.349-.001 8.382-.358 13.247-1.766l1.931-.644c.643-.251 1.245-.434 1.856-.714 1.797-.82 3.521-1.581 5.208-2.594.57-.342 1.079-.627 1.6-.978.531-.357 1.041-.69 1.584-1.071 1.328-.931 3.026-2.354 4.219-3.521l1.36-1.298c.571-.578 1.366-1.356 1.844-1.989l1.763-2.152c.203-.252.339-.455.535-.717.207-.284.373-.487.561-.77 2.134-3.196 4.072-6.631 5.287-10.316 1.724-5.234 2.666-10.447 2.337-16.22a3.617 3.617 0 01.031-.835c.141-.742.178-1.188-.131-1.899-.18-.412-.439-2.693-.53-3.243-.224-1.351-.589-2.785-.955-4.073-1.299-4.592-3.395-8.915-6.101-12.798-.85-1.218-1.797-2.377-2.741-3.522-.216-.26-.363-.379-.587-.665-.584-.742-2.891-2.977-3.849-3.737l-2.075-1.676c-1.659-1.27-3.448-2.485-5.323-3.425-1.07-.536-1.447-1.204-2.423-1.402-1.231-.247-2.468-.907-3.65-1.34-3.804-1.395-8.533-2.353-12.668-2.353-4.257 0-7.258.206-11.352 1.245-1.332.336-2.765.722-3.946 1.198-3.709 1.492-6.1 2.588-9.397 4.804-.782.526-1.46 1.114-2.217 1.688-.515.391-.942.748-1.415 1.166-2.711 2.398-4.607 4.35-6.851 7.388-1.704 2.309-3.093 4.818-4.35 7.406a29.081 29.081 0 00-1.485 3.693c-1.388 4.257-2.397 8.352-2.396 13.246zM53.106 371.786l-.009-10.454c1.244.136 3.198 1.251 4.355 1.723 2.139.872 12.06 5.449 12.74 5.425 1.056-.037 16.16-7.144 16.962-7.18l.04 10.852c-1.638-.147-3.662-3.44-6.779-3.514-4.81-.114-6.977 5.879-3.28 9.088 4.933 4.283 8.246 4.809 9.984 5.96l.053 3.396c-2.727.693-15.95 6.668-17.117 6.582l-16.952-6.677.002-3.51A33.318 33.318 0 0059.71 380c1.74-1.189 4.347-2.86 4.694-5.432.422-3.12-1.695-5.526-4.254-5.88-3.712-.513-4.729 2.556-7.044 3.098zM68.2 283.912c-1.326-.317-10.853 3.583-12.688 4.323l-18.677 7.127c-.977.373-2.104.738-3.024 1.2-5.175 2.598 8.6 5.186 11.685 7.337-.002 1.743-.114 3.47.395 4.994 1.298 3.886 2.775 1.702 1.431 4.959-.251.609-.37 1.093-.566 1.75-.323 1.086-.726 2.634-.84 3.79-.267 2.739.463 6.258 3.313 5.698 4.038-.795 6.527-2.744 9.238-4.576 2.789-1.883 4.172-.148 6.376 1.107 6.92 3.941 19.02 5.638 26.66 4.743.387-3.964.946-8.34.375-12.374-.09-.641-.52-2.254-.51-2.646.016-.577.752-1.394 1.034-2.097.793-1.98.252-3.845.561-5.928.86-.56 9.912-4.34 10.373-4.344.209 1.892.052 4.678.05 6.666-.002 2.672.275 11.173-.321 13.166-.32 1.074-1.364 4.022-1.425 4.991l5.112-.023c-.02-1.163-1.257-4.38-1.623-5.724-.334-1.224-.156-12.682-.161-14.911-.002-1.191-.25-4.387.275-5.336 1.196-2.17-.871-2.349-3.583-3.361-5.002-1.864-28.456-10.54-29.866-10.51-.909.177-1.006-.054-1.857-.148-.79-.087-.868.173-1.737.127zM50.303 398.073c.617-.023 1.187.215 2.124.215 6.595-.002 34.714.277 36.289-.215 4.47-.617 2.218-10.038 2.907-13.542 3.484-.303 4.418-.449 6.623-2.212 1.321-1.055 2.772-3.13 3.008-5.64.322-3.43-2.508-10.091-4.38-13.094-1.328-2.13-2.44-3.337-3.815-5.059-.59-.738-1.463-1.636-2.165-2.265-.422-.381-.755-.572-1.166-.963-2.006-1.903-6.419-5.146-8.957-6.447-.5-.257-2.415-1.199-2.63-1.598 2.106-1.129 3.228-1.609 4.963-2.983 4.365-3.457 7.854-9.332 8.166-15.566-1.128-.17-2.325-.024-3.468 0-3.336.075-6.488-.283-9.704-.66-5.331-.627-11.034-2.549-15.465-5.253-.694-.424-1.409-1.218-2.596-.892-.513.141-1.543 1.024-2.02 1.38-4.04 3.008-8.247 3.512-9.49 4.329-.23 6.615 3.686 13.162 8.35 16.739.78.599 1.566 1.155 2.424 1.648.475.273.9.503 1.384.735.656.316.858.247 1.258.701-.43.424-2.198 1.243-2.841 1.594-.978.536-1.762.979-2.673 1.57-5.314 3.455-9.891 7.093-13.521 12.529-4.114 6.161-8.23 16.688.886 20.571 1.052.448 2.74.58 3.357.879.896.863-.665 9.409.82 11.854.502.827 1.485 1.606 2.332 1.645zm191.074-288.277c-1.944.001-3.259-.232-4.13.946-.893 1.205-.502 3.182 1.006 3.507.945.203 1.533.166 2.311.223.363.027.416.1.813.11v2.334l-9.087.233c.182.799 3.667 5.652 4.37 7.002-1.285.001-3.378-.121-4.554.048-.82.118-1.497-.013-2.19 1.279-.793 1.482.441 3.342 2.143 3.342-.221.424-2.301 4.792-2.3 4.901 0 .413.702 2.014.888 2.484.782 1.97 1.891 6.031 2.323 8.146 1.105 5.406 1.389 7.559 1.39 13.294 0 6.33-.846 11.548-2.235 16.524-.394 1.415-1.834 6.133-2.456 6.961-.579.771-1.682.093-3.106 1.517-1.243 1.245-1.521 2.162-1.521 3.942 0 2.443 2.343 4.253 4.486 4.435-.112.425-.819 1.363-1.103 1.797l-1.197 1.82-7.017 10.737c.646.439 4.026 3.972 4.486 4.67-.31.15-4.371.459-4.371 4.783 0 1.721.988 3.441 2.229 4.157.92.532 4.277.628 5.823.628h28.881c3.688-.047 6.335-.131 6.742-.271 3.331-1.15 3.999-4.76 2.479-7.224-.902-1.463-2.099-1.722-3.592-2.075.449-.68 3.882-4.258 4.487-4.667l-2.324-3.595c-.578-.879-6.865-10.274-6.994-10.76.536-.046 1.188-.319 1.679-.515 4.265-1.701 3.376-8.018-.579-8.887-.386-.085-.636-.051-.936-.218-1.013-.561-3.129-8.603-3.455-9.916-1.777-7.172-1.876-14.429-1.081-21.778.342-3.159.909-5.361 1.635-8.262.212-.842.5-1.798.767-2.607.206-.624 1.625-4.737 1.624-5.003.001-.639-1.835-4.348-2.185-5.018 3.094 0 2.926-4.295.571-4.548-1.801-.194-3.306-.121-5.172-.121.804-1.54 4.158-6.072 4.371-7.002l-2.186-.116c-.755-.001-1.554.026-2.304.003l-4.597-.12-.001-2.334 3.128-.329c2.013-.621 1.892-3.578.085-4.214-.816-.287-2.114-.242-3.213-.242-.394-1.718.112-3.549-.964-4.273-1.569-1.054-3.212-.35-3.553 1.09-.21.88-.096 2.234-.314 3.182zm23.697 32.911c0 4.663 1.207 7.596 4.17 10.591.856.865 1.497 1.448 2.502 2.131 0 3.983-1.144 17.191-4.306 18.738-.547.268-2.666-.056-4.13 2.579-.545.982-.549 1.032.756 2.463.84.921 1.052.917 1.907 2.266.88 1.388 1.287 2.489 1.287 4.531 0 1.482-.205 2.867-.689 3.853-1.675 3.422-2.255 2.181-.645 4.619l4.21 6.466c.353.537.682 1.098 1.034 1.635.354.542.689 1.049 1.059 1.608.243.366.927 1.406 1.013 1.775l-1.415 1.6c-1.608 1.352-2.474 2.375.495 2.367.806-.003 1.46.117 2.415.117h7.362c2.586 0 4.776-.116 7.363-.116 2.379 0 5.022.112 7.367.007.794-.037 1.683-.94 2.211-1.493 1.081-1.128 1.12-2.216 1.119-3.649 0-2.322-2.244-4.139-4.371-4.318.109-.413.508-.652 1.019-1.302 1.018-1.294 2.321-1.959 3.237-3.717l-7.91-10.063c-.21-.261-.354-.444-.566-.71-.209-.262-.457-.548-.612-.781.771-.374 1.912-.256 3.08-1.426 2.527-2.529 1.654-7.088-2.134-8.051-1.415-.36-1.585-.355-2.328-1.489-.448-.683-.889-1.886-1.163-2.79-.613-2.03-.958-4.103-1.301-6.499-.345-2.406-.639-5.323-.64-7.754.001-.88.879-.948 2.273-2.363 4.428-4.496 5.673-10.645 3.133-16.425-2.048-4.661-7.256-8.171-12.423-8.17-3.518-.001-5.723.709-8.422 2.541-1.221.828-2.513 2.22-3.41 3.426-1.505 2.023-2.547 4.94-2.547 7.803zm-70.632.351c.001 3.927 1.089 6.505 3.089 9.003.201.25.332.339.545.616.53.692 1.8 1.917 2.516 2.348.359.214.523.219.523.754-.001 3.763-.967 15.346-3.82 18.065-.854.814-2.638.267-4.034 1.86-1.022 1.168-1.119 2.408-1.118 3.883 0 1.759 1.412 3.184 2.795 3.815.541.246 1.225.276 1.691.502l-9.088 11.554c.929 1.782 2.188 2.361 3.221 3.735.316.419.889.728 1.036 1.284-2.132.18-4.372 1.983-4.372 4.318 0 1.385.038 2.483 1.062 3.59.322.348.557.613.96.894.357.249.739.603 1.197.652l7.364-.001c2.559 0 4.726.116 7.247.118 2.108-.002 6.778.101 8.629 0 .525-.029.625-.124 1.262-.12 2.738.012 2.57-.887.692-2.332l-1.496-1.634c.124-.538 3.744-5.987 4.119-6.558.553-.842 4.049-6.005 4.049-6.629 0-.454-.296-.8-.506-1.121-2.32-3.541-2.377-7.539.127-10.936.426-.576 1.82-1.944 2.277-2.599.321-.46.29-.511.026-1.061-1.551-3.235-3.768-2.281-4.832-3.274-.191-.178-.556-.679-.697-.927-.824-1.455-1.256-3.064-1.664-4.847-.702-3.069-.878-5.568-1.191-8.595l-.212-3.287c0-.898.371-1.064.913-1.407 1.346-.852 2.589-2.406 3.458-3.727 1.903-2.888 2.301-4.849 2.301-8.637 0-2.612-1.186-5.622-2.596-7.519-.296-.397-.44-.62-.769-.971-.308-.328-.459-.636-.809-.929-1.72-1.442-1.939-1.692-3.992-2.719-3.593-1.8-8.209-1.641-11.849.002-3.071 1.385-5.343 4.093-6.827 7.078-.812 1.634-1.226 3.352-1.227 5.759zm38.799 358.124c.969 0 1.411-.135 2.406-.13l3.62-.073c1.857.184 9.204.078 11.582.073 1.414-.002 1.617-.504 3.126 2.098l2.961 4.965c1.121 1.991 2.747 4.685 3.751 6.732 2.363 4.818 2.246 2.352.042 6.897l-7.665 13.3c-.43.6-1.147.458-2.09.45-.983-.008-1.49.134-2.532.13-1.853-.006-3.234.129-5.067.129-3.42 0-6.738-.257-10.134-.257-.439-.664-.832-1.389-1.268-2.056l-3.712-6.259c-.623-1.13-4.567-8.126-4.608-8.796-.051-.804 4.848-9.391 5.763-10.931l3.825-6.272zm-1.141 16.064c0 2.547-.147 4.025 1.146 6.292.305.535.642 1.07 1.006 1.549.365.481.777 1.048 1.249 1.432 1.106.897 1.818 1.415 3.187 2.036 7.686 3.492 15.074-3.467 15.074-8.225 0-3.627.394-4.918-1.259-7.718-.745-1.261-1.208-1.865-2.316-2.79-3.721-3.113-8.939-3.658-13.199-.854l-1.498 1.179c-1.709 1.525-3.39 4.499-3.39 7.099zm13.809-40.998c0 .331 1.504 1.981 1.804 2.283.746.748 1.299 1.614 1.996 2.087l6.406-5.324c1.437-1.05 3.727-2.648 5.332-3.458.719-.363 1.4-.625 2.069-.984 2.708 4.101 5.672 3.212 8.994 3.212 1.775 3.403.602 12.002 0 15.679-.665 4.066-.73 3.903 1.672 4.474 3.98.943 3.626 1.236 4.501-3.866.304-1.772.541-3.509.76-5.27.52-4.203.228-9.548-1.104-13.203-.526-1.445-1.294-2.744-1.619-4.269-.426-2-.227-4.118-2.85-6.105-2.527-1.914-5.374-2.063-8.101-.32-2.52 1.61-1.891 2.999-3.722 3.679-3.808 1.413-6.284 2.93-9.532 5.365-.766.573-6.606 5.084-6.606 6.02zm57.257 41.344v2.353c0 3.465-3.422 7.312-5.971 9.236-1.677 1.266-3.448 2.54-5.375 3.414l-4.271 1.964c-.675.271-1.102.461-1.811.733-.621.24-1.111.431-1.737.68l-3.763 1.195-1.773-5.913c1.714-.834 6.043-1.844 10.025-3.964 1.257-.67 2.531-1.321 3.707-2.151 2.081-1.469 5.016-4.009 5.016-6.865 0-2.45-2.326-4.709-4.144-6.078l-2.954-2.014c-1.776-1.046-3.707-1.9-5.605-2.668a39.242 39.242 0 00-2.325-.855 94.167 94.167 0 00-10.339-2.876c-2.264-.492-8.867-1.831-11.243-1.831.127.486.984 1.816 1.274 2.306.427.725.839 1.43 1.266 2.186.421.748 2.118 4.013 2.654 4.376.784-1.188 1.244-2.926 2.027-4.112.565 0 5.573.93 5.573 1.413 0 1.288-1.805 5.168-2.407 6.426-.485 1.014-.888 2.051-1.363 3.122-.29.653-.186.856.1 1.502 1.443 3.252 3.348 7.687 4.446 11.04l1.677 4.981a87.646 87.646 0 013.593 16.275c.338 2.77.255 5.453.032 8.187-.106 1.298-.504 2.469-.504 3.858 0 .168 1.873 3.739.29 7.107-.303.645-.956 1.548-1.467 1.981-1.276 1.08-2.753 1.965-5.03 1.965-2.046 0-2.62-.592-4.015-1.196-1.284-.556-2.673-.578-4.167-.914-2.859-.643-5.082-1.705-7.358-2.945-2.168-1.18-4.178-2.686-6.124-4.196l-5.572-4.757.979-1.192c.62-.651 2.533-2.939 3.075-3.307.534.145 1.502 1.096 1.931 1.51.586.567 1.173.976 1.775 1.543 1.141 1.077 2.487 1.949 3.733 2.896 1.569 1.193 3.402 2.322 5.211 3.066 1.212.497 2.216 1.267 3.691 1.267.134-1.643 1.577-3.459 2.5-4.404 1.001-1.026 3.465-1.765 4.974-1.765l.128-3.084c.058-1.009-.135-1.489-.131-2.439.01-1.716-.181-3.317-.399-4.864-.987-7.046-3.064-13.805-5.66-20.347-.495-1.248-.951-2.456-1.538-3.581-.955.711-4.166 7.118-5.321 8.869 1.444-.122 3.098-.481 4.561-.514.546.827.811 1.632 1.156 2.681 1.062 3.237 1.187 3.104-.504 3.378-2.657.432-7.08 1.137-9.646 1.137-.158.597-1.29 2.074-1.701 2.645-2.195 3.06-6.909 9.085-9.603 11.848-1.145 1.173-5.034 5.36-6.413 6.475-.467.378-.717.685-1.139 1.029-.397.322-.721.578-1.121.92-1.919 1.639-4.014 3.223-6.171 4.534-3.628 2.203-7.439 3.907-11.983 3.907-3.419 0-6.255-1.677-8.255-4.219-1.525-1.941-2.43-4.356-2.84-6.885-.323-1.996-.186-2.367-.312-3.925-.041-.502-.122-.629-.125-1.287-.004-1.76.206-3.577.258-5.274.036-1.15 1.077-8.307 1.647-9.51.511.042 1.053.213 1.574.331.553.125.976.192 1.465.311.492.118.912.19 1.469.311.458.099 1.192.077 1.192.588 0 1.852-.57 3.742-.869 5.545-.775 4.678-1.904 17.718 5.05 17.718 4.012 0 7.434-2.119 10.16-3.959 3.343-2.256 6.255-4.945 9.063-7.768l3.18-3.457c.262-.334.513-.531.813-.847 1.366-1.438 2.612-3.016 3.853-4.573.432-.543 2.66-3.183 2.827-3.815h-10.261l2.17 2.81c1.098 1.386.48 1.141-.865 2.754-.728.874-1.659 2.04-2.572 2.661-.957-.65-2.929-3.618-3.727-4.7l-1.738-2.35c-.732-.929-1.011-1.602-2.352-1.855-1.437-.271-3.253-.432-4.84-.616-5.184-.603-9.125-1.538-13.956-2.548-.838-.177-1.401-.37-2.218-.578-6.15-1.56-11.336-3.659-16.652-6.882l-2.383-1.694c-.67-.508-1.755-1.319-2.262-1.947-.846-1.049-1.31-1.018-2.589-1.487-1.349-.494-2.352-1.243-3.188-2.291a7.528 7.528 0 01-1.607-4.099v-1.03a6.361 6.361 0 01.598-2.274c1.33-2.787 2.897-3.035 4.344-4.075 1.344-.966 2.375-2.336 3.672-3.342.327-.253.423-.394.73-.674 2.511-2.285 5.636-3.794 8.774-5.236 1.472-.676 6.858-2.829 8.358-2.829.76 0 1.774 5.103 1.774 5.654l-6.788 2.497a47.5 47.5 0 00-6.128 3.164c-1.426.869-2.29 1.921-3.426 2.693.253.384.492.519.793.866.191.221.499.738.636 1.026.773 1.611.826 4.299.093 5.949-.25.559-.752 1.334-.888 1.927.395.107.466.286.831.57.302.235.507.39.795.607 3.752 2.807 8.982 4.78 13.432 6.165 4.313 1.342 14.59 3.71 18.638 3.71-.635-1.216-4.824-8.49-4.941-8.996-.463.343-1.304 2.761-1.553 3.437-.184.503-.197.804-.854.804-1.032 0-2.559-.44-3.522-.668-1.409-.335-2.187-.217-1.513-1.998.286-.754 3.664-8.064 3.571-8.83-.101-.823-.777-2.34-1.073-3.023-2.585-5.982-4.824-11.984-6.557-18.408-1.888-6.996-2.307-10.525-2.307-17.838 0-4.257 1.131-8.224 2.931-10.65.529-.715.931-1.246 1.599-1.847 7.944-7.162 20.099 1.15 26.663 7.068l2.219 2.118c1.691 1.512 3.216 3.27 4.813 4.886l9.659 12.048c.61.818 1.299 1.659 1.774 2.57 3.65 0 11.495 1.369 14.938 2.067 8.744 1.775 17.458 4.188 24.866 9.217 1.438.975 3.411 2.713 4.461 4.082 2.366 3.082 2.696 4.292 2.732 6.957zm-90.574-35.688c0-4.405-.147-7.738 2.628-10.572 1.119-1.142 1.588-1.252 3.199-1.252 4.467 0 10.972 4.35 14.345 7.551l1.772 1.673c.361.361.594.468.955.83 1.153 1.158 2.206 2.242 3.354 3.408.305.31.526.525.827.833l1.582 1.737c.384.385.488.578.823.964 2.147 2.471 2.502 2.798 4.646 5.567.268.348.467.594.734.926.152.187.239.301.396.499.264.335.216.108.335.558h-10.387c.474-.717 2.659-3.37 2.787-3.855-.267-.405-3.481-4.24-3.928-4.24-.829 0-5.321 6.603-6.131 7.658-.718.937-.887 1.055-2.247 1.19l-9.229 1.176c0 1.416.897 3.761 1.333 4.945.382 1.037.529.769 2.086.711 1.062-.04 1.881-.259 2.914-.259-1.239 1.879-3.68 6.839-4.981 8.826-.159.242-.047.106-.213.299l-2.57-6.516c-.459-1.18-.757-2.23-1.149-3.461-1.17-3.665-2.151-7.015-2.92-10.917-.517-2.621-.961-5.188-.961-8.279zm211.968 67.505c-.485.815-3.679 3.277-4.438 3.835-14.509 10.683-26.011 4.664-25.07-12.87.082-1.513.487-6.007 1.009-7.128.381.168 2.482 2.467 2.815 2.798.919.919 1.856 1.854 2.869 2.718 5.782 4.931 6.472 5.641 14.085 8.199l8.73 2.448zm-64.152-46.18c.589-1.535 4.047-5.56 5.233-6.734 1.044-1.031 5.192-4.463 6.64-5.082.949 1.867.737 7.772-1.491 10.601-.978 1.243-2.474 1.762-4.634 1.826-1.313.039-4.214-.064-5.52-.513l-.228-.098zm21.355-14.87c1.852-.487 7.014-.153 9.04.073 1.464.163 6.529 1.273 7.398 2.067-1.292 1.811-6.008 6.028-9.274 5.314-2.771-.606-4.764-2.917-6.114-5.047-.209-.329-1.034-1.715-1.085-2.116-.031-.244-.023-.142.035-.291zm-40.94-1.825l.027.912c.035 1.151 2.178 6.529 2.746 8.03 1.648 4.349 3.034 7.142 5.016 11.197 4.262 8.727 11.124 17.82 18.724 23.923 3.21 2.578 5.975 4.218 9.737 6.062.405-1.692.596-3.931.916-5.722.32-1.784.762-3.621 1.205-5.305 1.129-4.29 2.146-6.562 3.16-9.996-2.143.734-4.921 3.613-6.037 5.307-.79 1.2-1.074 2.792-3.007 2.701-1.529-.073-2.533-1.568-1.956-3.141.767-2.097 2.692-4.218 4.293-5.724 2.114-1.987 4.535-3.596 7.755-4.703 1.232-.423 1.258.071 1.779-1.154l2.686-5.725c.568-1.153 3.344-6.716 4.069-7.265 5.19-3.932 12.127-3.952 18.305-3.538.123-2.73-1.171-9.099-1.706-11.737-.43-2.124-3.298-14.396-4.541-15.667-2.83-2.891-11.542-5.573-14.969-4.924l-3.648.015c-3.336-.412-11.999 1.838-14.95 2.786-5.873 1.887-13.233 5.055-18.065 8.614-1.226.902-3.907 2.925-4.804 4.002-.426.511-.665.661-1.19 1.159-1.746 1.654-5.689 7.542-5.545 9.893zm78.978 44.661c3.915-1.113 7.924-2.005 10.719.869 1.628 1.674 3.829 6.258 4.079 9.648-1.033-.332-3.28-1.688-4.112-2.215-4.172-2.644-3.582-2.386-7.242-5.378-.764-.625-2.982-2.356-3.444-2.924zm-22.357-10.574c.375-.399.778-.461 1.282-.633.472-.16.859-.291 1.323-.43a22.582 22.582 0 012.739-.625c4.405-.76 7.173.045 9.271 4.031.579 1.098 1.608 3.575 1.814 4.991-1.769-.252-10.606-4.262-12.606-5.286-1.08-.553-2.824-1.707-3.823-2.048zm.25 53.899c.719-.198 3.266-.214 3.956-.018 2.272.296 8.046-1.156 9.954-1.773 5.766-1.864 10.671-4.498 15.456-8.002 3.059-2.239 6.744-5.432 9.306-8.175.496-.532.905-1.018 1.418-1.524 3.226-3.177 8.952-11.042 11.446-15.026.393-.628 4.171-6.488 4.242-7.359a3.37 3.37 0 01.026-1.585c.38-2.469-2.284-7.643-3.297-9.338-4.425-7.407-12.391-13.205-20.045-17.555-4.961-2.819-11.652-5.819-18.133-6.913-3.844-.648-7.733-.79-11.525-.028-1.776.356-3.172.852-4.662 1.632-.899.47-.97.812-1.432 1.653l-3.241 6.178c-8.29 17.031-14.04 37.547-6.59 56.007 1.044 2.585 5.214 10.186 7.756 11.078 1.046.367 4.196.96 5.365.748zM563.57 463.584l15.818-.032c.232 1.504.054 32.548.054 34.947v26.124c-.008 5.027 2.034 2.748 5.292 3.434l.006 42.828-21.131.048-.039-107.349zm-22.791 64.407c.934-.023 3.287.144 4.016-.14 1.276-.497 1.142-1.852 1.14-3.228v-52.247c0-2.348-.249-6.703.049-8.81l15.779-.012.067 107.203c-.186.329.187.147-.451.273l-10.046-.003c-1.827 0-9.552.228-10.715-.107-.232-1.905.006-35.308-.043-41.574-.005-.663-.115-1.011.204-1.355zm-2.037.009c.287.196.22.019.205 1.198-.083 6.498.213 39.65-.041 41.717-.846.301-16.249.1-19.869.128l-1.02-.022c-.32-.085-.187-.056-.339-.19l.034-42.831c6.222-.248 5.285 1.921 5.285-12.085 0-4.265-.172-50.441.035-52.327l10.508-.035c.226 1.784.05 54.839.045 60.922-.001 1.607-.111 2.818 1.077 3.331.831.357 3.017.135 4.08.194zm56.089 42.933l-8.272-.008-.056-42.925c5.838-.178 5.29.699 5.29-6.034 0-5.955-.175-56.568.039-58.382 4.418-.379 8.785.301 8.785 5.84v95.639c-.001 3.668-2.199 5.852-5.786 5.87zm-84.172-107.352c-.217 11.556-.008 23.337-.008 34.918v26.124c-.005 4.783 1.738 2.925 5.293 3.41l.004 42.865c-2.103.21-16.191.176-17.416-.225-2.088-.685-3.69-2.48-3.754-5.161-.071-3.02-.004-6.128-.004-9.157v-81.47c0-6.194-1.145-11.326 6.805-11.319 3.005.002 6.084-.069 9.08.015zm-12.69-3.228c-1.622.083-3.482 1.564-4.26 2.416-.598.653-2.557 3.321-2.138 4.656.109.821.004.659-.221 1.367-.322 1.011-.062 83.867-.1 95.238-.002.507-.06 1.084.063 1.559.177.683.392.551.257 1.474-.413 1.316 1.467 3.895 2.07 4.578.568.644 2.788 2.524 4.186 2.426 1.394 0 1.789.398 2.726.446l9.319-.004c6.895 0 84.661.168 85.48-.08.597-.18.509-.39 1.45-.245 1.361.437 4.147-1.715 4.739-2.314.606-.615 2.766-3.506 2.292-4.941-.082-.918.072-.688.245-1.341.126-.476.067-1.05.065-1.558-.121-30.083-.001-60.363-.001-90.474l-.065-4.658c-.181-.686-.387-.55-.255-1.475.406-1.296-1.488-3.922-2.069-4.578-.541-.609-2.811-2.53-4.18-2.425-1.117-.068-1.898-.434-2.88-.447-1.062-.015-2.143.005-3.207.005l-90.786-.006c-1.037.014-1.652.445-2.73.381zM87.877 157.405c1.06 0 2.787.235 4.726.235 2.956 0 5.443-.561 8.116-1.239.889-.225 1.555-.556 2.373-.75 0 1.975.195 3.334.336 5.039.139 1.685.371 3.375.471 5.018.106 1.751.922 8.636.922 9.939-2.061-.487-3.496.457-3.688 2.807l-10.913-5.65c-1.062-.539-4.143-2.334-4.993-2.535 1.952-2.959 2.65-7.89 2.65-12.864zm-19.249-52.387c.431 0 .778.755 1.023 1.068.306.389.553.691.872 1.103l8.725 11.027c.35.447 3.3 3.916 3.443 4.459.482-.13 1.421-.809 1.922-1.09a125.617 125.617 0 019.795-4.914c1.413-.637 2.76-1.136 4.19-1.712 3.468-1.399 7.44-2.623 11.178-3.627.773-.208 1.467-.398 2.355-.535 11.97-1.845 24.65 2.084 31.327 12.204 3.125 4.736 4.836 10.074 5.657 15.778.24 1.663.536 4.62.658 7.563v4.707c-.054.934-.15 1.766-.3 2.427-.149.654-.246 1.18-.415 1.8l-1.474 5.054c-.934 3.492-2.928 7.566-4.379 10.876-2.484 5.666-6.119 11.198-9.782 16.152a53.287 53.287 0 01-1.941 2.475c-.828.999-1.58 2.057-2.483 2.977-.191.196-.339.316-.515.529l-5.307 5.492c-1.582 1.613-4.056 3.701-5.843 5.064-2.063 1.574-4.049 3.097-6.219 4.565l-9.52 5.661c-.462.232-.923.465-1.384.701-3.876 1.985-8.961 3.279-13.239 3.992-2.568.428-5.292.729-8.036.802h-2.543c-4.02-.112-7.99-.776-11.485-2.306-1.497-.655-2.865-1.469-4.212-2.393l-1.837-1.527c-.521-.534-1.144-1.084-1.608-1.643-2.14-2.584-3.554-5.391-4.63-8.634-2.293-6.916-2.356-18.692-.36-26.297 1.118-4.262 2.475-7.946 4.342-11.732.372-.755.683-1.394 1.07-2.071l4.863-7.93c.868-1.166 1.97-2.458 2.75-3.641-.162-.614-2.031-3.094-2.518-3.76-.27-.367-.712-.842-.824-1.269-1.587 1.852-2.959 3.842-4.413 5.814-1.453 1.971-2.724 3.998-4.07 6.044-2.14 3.251-5.125 8.349-6.809 11.803-.217.446-.359.641-.577 1.051-1.35 2.545-2.991 5.843-4.118 8.569l-.3.514c0-1.537.86-4.251 1.268-5.73 1.52-5.514 3.747-10.972 6.338-16.022.21-.407.39-.661.616-1.128l1.828-3.291c1.9-3.193 3.92-6.33 6.218-9.245l1.483-1.887c-.296-.448-.555-.866-.89-1.319a31.767 31.767 0 01-.862-1.23l-4.44-6.371a26.623 26.623 0 01-.864-1.229c-.372-.568-7.006-9.855-7.006-10.198 0-1.248 2.628-5.422 3.556-6.682.782-1.062 1.494-1.774 2.408-2.702 1.728-1.752 3.675-3.157 5.828-4.378 2.797-1.587 8.16-3.778 11.49-3.778zm-2.65 25.375c.09.342.926 1.369 1.185 1.721l10.044 13.431c.445.602.818 1.062 1.252 1.653.866 1.178 1.667 2.218 2.536 3.392.85 1.149 1.643 2.184 2.486 3.324.21.284.39.536.592.803.872 1.157 1.038 1.031 1.038 3.507 0 5.306-2.348 8.971-2.651 10.29-.38-.102-.626-.618-.987-1.103-.33-.445-.573-.732-.906-1.185l-16.5-21.733c-.639-.83-1.184-1.563-1.794-2.39l-2.305-3.041c-.73-.986-.863-.699-.215-2.004 1.105-2.224 2.02-3.182 3.715-4.884.419-.42 1.941-1.646 2.51-1.781zm25.934 3.742c.314-.085.731-.407 1.031-.59.339-.206.605-.393.993-.63 1.87-1.143 4.73-2.561 6.752-3.324 8.253-3.113 16.683-3.149 24.612.841 5.456 2.745 10.066 9.559 10.066 16.332 0 5.883-2.564 12.243-5.718 17.002-2.279 3.44-3.273 4.871-5.958 8.105l-6.793 7.258c-.369.37-.653.535-1.04.932-.354.364-.627.671-1.008.966l-2.141 1.92c-.805.634-2.403 2.164-3.276 2.757 0-1.127-.408-4.43-.557-5.866l-1.73-17.773c-.106-1.034-.749-9.243-1-9.745l-.963-1.244c-.645-.822-1.233-1.574-1.895-2.404l-10.915-13.834c-.087-.112-.186-.218-.26-.321-.259-.362-.048-.087-.2-.382zm-22.938-4.677c.366-.554 1.194-1.178 1.76-1.606 1.68-1.267 4.942-2.955 7.115-2.955.346 0 1.286 1.474 1.498 1.756l10.275 13.197c.985 1.255 1.886 2.482 2.893 3.73.518.644.982 1.263 1.472 1.898.235.306.458.588.718.908l5.888 7.592c.372.464.616.606.655 1.089l-2.285.371c-3.17.462-6.905.298-9.82-.836-.885-.344-.822-.506-1.66-1.59-.503-.648-.94-1.191-1.435-1.819L71.82 133.119c-.51-.638-.928-1.188-1.436-1.817-.496-.616-.985-1.201-1.41-1.844zm20.517 1.871c-.097-.368-.28-.477-.51-.769-.692-.88-3.69-4.398-3.87-5.078 2.585-1.388 5.234-2.931 7.97-4.076 5.264-2.205 11.2-3.98 17.046-3.989.927-.001 1.85-.226 2.762-.239.996-.013 3.26-.039 4.318-.188.534-.075.763.069 1.325.077 2.037.028 3.784.161 5.54.462 1.681.288 3.332.678 4.825 1.185 1.375.466 2.973 1.123 4.2 1.819 2.561 1.453 4.79 3.279 6.549 5.518 1.862 2.371 3.096 4.76 4.149 7.952 2.097 6.363 1.72 11.889.928 18.512a61.388 61.388 0 01-3.874 15.248c-.218.551-.375.952-.592 1.504-1.172 2.982-2.654 5.8-4.248 8.553l-1.588 2.6c-1.575 2.493-4.026 5.932-5.884 7.946-1.625 1.761-3.929 4.664-5.686 6.041l-9.171 7.769c-.831.636-1.667 1.159-2.502 1.788-.395.298-.804.572-1.249.838l-7.976 4.653c-.503.229-.943.459-1.473.728-1.92.974-3.867 1.762-5.868 2.584-2.097.861-4.243 1.414-6.458 1.984-6.308 1.622-13.87 1.367-19.564-1.528-2.806-1.426-5.553-3.55-7.27-6.072a32.158 32.158 0 01-1.257-1.999l-1.784-3.218c-2.556-4.754-3.828-10.064-3.828-15.996 0-5.118 1.621-11.311 3.765-15.826l2.227-4.756c.899-1.751 5.755-10.765 6.687-11.458a67.27 67.27 0 001.862 2.671l7.639 10.96c.671.942 1.272 1.819 1.911 2.739 1.318 1.895.967 1.796 3.034 2.769l2.381 1.092c.273.138.525.223.807.351.27.122.466.249.775.383l15.057 6.942c1.615.787 8.328 4.016 8.72 4.016 1.042 0 5.641-2.809 6.938-3.603l6.302-4.481c1.634-1.314 3.633-3.059 5-4.634.216-.249.23-.333.46-.585 1.72-1.883 3.216-3.855 4.652-6.038 1.646-2.502 3.352-5.748 4.172-8.748 2.247-8.227 2.824-19.251-1.911-26.428-.74-1.121-1.611-1.992-2.53-2.93-1.315-1.342-3.186-2.357-4.873-3.125-5.555-2.529-13.408-2.436-19.479-1.406-2.676.455-4.292.925-6.75 1.923a94.73 94.73 0 00-6.003 2.68c-.517.252-.946.418-1.423.661-.493.251-.933.474-1.46.74-.55.279-.934.525-1.42.781-.354.187-1.098.667-1.5.701zm-32.62 3.391l-4.033-5.73c.18-.686 2.394-3.617 2.91-4.181 2.598-2.834 3.833-4.007 7.07-6.158 1.056-.702 1.702-.958 2.577-1.478.768-.456 1.844-.932 2.739-1.314.448-.191 2.636-1.018 3.03-1.018.405 0 .874.901 1.117 1.206l3.033 3.939c-1.34.03-4.772 1.602-5.994 2.222-3.327 1.687-6.297 4.007-8.679 6.864-.778.933-3.48 4.39-3.77 5.648zm-5.878-8.771l-2.305-3.157c1.168-2.238 1.615-3.035 3.21-5.046.326-.411.673-.644 1.005-1.085.467-.62 2.65-2.444 3.326-2.941a27.602 27.602 0 015.285-3.057 53.735 53.735 0 012.98-1.186 21.742 21.742 0 011.598-.485c.452-.121 1.21-.337 1.73-.349l1.844 3.391c-1.2.101-4.918 1.481-6.07 2.027-1.025.487-1.758.832-2.684 1.37-3.373 1.958-6.298 4.534-8.443 7.806-.415.633-1.302 1.959-1.476 2.712z" fill="#8602FF"/><path fill-rule="evenodd" clip-rule="evenodd" d="M520.927 286.743c-1.08-.331-2.897-2.281-4.263-.196-1.173 1.789.533 2.852.775 3.958l-.905.753c-1.179-.652-2.622-2.22-4.045-.502-1.395 1.686.062 2.884.622 4.123-3.124 2.667-.933 3.934-2.471 5.61-.518.564-.909.907-1.444 1.447-1.937 1.952-3.686 3.702-5.63 5.65-1.651 1.655-10.268 10.662-11.284 11.276-.962-.507-1.89-1.47-2.809-2.179a25.04 25.04 0 00-2.971-1.992c-2.295-1.322-4.408-2.314-7.285-2.912-6.403-1.329-12.037 1.72-14.724 5.037-3.13 3.865-3.718 10.647-7.066 13.176-4.01 3.03-15.065 2.204-22.601 7.721-6.411 4.694-11.629 9.719-11.415 19.452.239 10.921 7.675 19.566 14.43 26.702 10.009 10.573 26.613 21.449 40.479 8.804 3.509-3.201 6.416-7.846 8.013-12.466 1.623-4.696 2.188-12.654 4.239-16.065 2.275-3.784 9.495-4.102 13.155-7.244 8.093-6.949 6.158-17.441.18-25.524-.491-.663-1.896-2.252-2.179-3.005 2.591-3.059 7.807-7.822 11.02-11.201l5.468-5.56c1.071-.945 1.425-2.257 3.226-2.355 2.644-.146 2.412-.571 3.912-1.814 1.274.338 2.443 2.159 4.108.531.831-.813.859-2.091.152-3.215-.393-.623-.291-.2-.617-.955l.765-.819c1.193.338 2.456 2.254 4.112.479 1.531-1.641-.155-2.925-.555-4.298 1.632-.823 3.638-3.101 2.889-5.848-.433-1.587-7.732-8.848-8.872-9.235-3.641-1.237-4.857 1.559-6.409 2.666zm-74.46 69.372c-.87.536-2.186 1.821-2.852 2.674-1.223 1.565.192 2.541 1.026 3.38l13.808 13.997c2.718 2.785 2.644 3.122 6.243-.763 1.459-1.574-.154-2.69-.973-3.531l-13.814-13.985c-.807-.817-1.947-2.691-3.438-1.772zm69.019-56.036c2.161.718 3.03-1.263 6.241-4.484 1.806-1.812 5.798-4.973 4.382-6.276-1.45-1.334-4.349 2.529-6.224 4.405-2.525 2.528-5.138 4.307-4.399 6.355zm4.67 4.504c2.162.719 3.031-1.262 6.241-4.483 1.807-1.813 5.798-4.974 4.382-6.277-1.449-1.333-4.348 2.53-6.223 4.406-2.526 2.528-5.139 4.307-4.4 6.354zM497.23 332.94l-11.296 11.445c-.557.587-1.119 1.106-1.828 1.842-1.007 1.045-1.3.738-1.345 2.464-.246 9.366-10.989 13.934-17.56 7.418-6.545-6.492-2.202-17.626 6.509-17.985 2.51-.103 1.628.155 4.618-2.954l11.382-11.975c-2.931-1.587-10.843-9.443-17.831-3.022-1.608 1.478-2.136 3.101-3.013 5.646-4.081 11.837-8.698 10.808-20.833 13.776-7.922 1.938-16.985 8.248-16.579 17.844.398 9.415 8.816 17.871 12.769 21.979 3.856 4.007 12.82 12.597 21.673 12.763 9.569.179 15.492-8.911 17.525-17.224 1.193-4.878 1.332-9.791 3.622-13.782 4.198-7.317 12.166-5.958 15.731-10.189 5.533-6.564-1.485-16.709-3.544-18.046z" fill="#8404FC"/><path fill-rule="evenodd" clip-rule="evenodd" d="M333.386 729.299l5.126-5.228c-.76-1.131-9.313-9.944-10.455-10.595-.905.547-12.745 12.293-13.478 14.126-1.635 4.093 2.781 7.539 4.32 9.081 2.44 2.443 4.453 4.315 7.059 7.002 2.09 2.154 4.682 5.363 7.365 6.377 4.361 1.65 7.917-1.057 9.225-3.722 4.011-8.176-7.957-13.036-9.162-17.041zm-3.61-29.691c1.301-.002 2.655-.311 3.944-.392 5.737-.358 27.787.02 32.377.43.119-2.817.039-5.926.041-8.775.004-5.344 1.168-4.195 6.931-10.391l12.921-13.222c2.539-2.477 7.227-6.273 3.375-11.973-.926-1.37-3.01-2.978-5.52-3.112-4.271-.227-7.179 3.843-10.281 7.008-1.567 1.598-2.962 2.991-4.456 4.535-6.466 6.682-11.721 13.913-20.952 14.059-9.62.152-14.591-7.068-21.085-13.651-2.992-3.034-5.318-5.456-8.63-8.792-1.522-1.533-2.775-3.01-5.728-3.06-5.46-.093-8.62 5.099-7.049 9.788.941 2.808 10.283 11.397 12.639 13.791 3.108 3.16 5.677 5.735 8.655 8.774 2.079 2.121 2.908 1.93 2.807 5.963-.074 2.959-.182 6.074.011 9.02zm14.787-63.167c-10.184 2.321-15.652 11.358-13.938 20.949 1.504 8.421 9.971 16.19 20.511 14.167 8.618-1.655 16.22-10.104 14.138-20.984-1.673-8.744-10.303-16.503-20.711-14.132zm-13.387 69.682c-.253 1.9.099 1.495 2.338 3.854 1.322 1.393 2.08 2.05 3.231 3.223 1.088 1.11 1.973 2.024 3.053 3.13.766.784 2.365 2.802 3.329 3.061.813-1.479.403-11.752.209-14.008-2.122-.198-4.223-.036-6.349-.057-2.452-.026-4.147-.506-5.811.797zm21.558 13.252c1.152-.133 7.694-7.418 9.641-9.256 1.027-.971 2.627-1.946 2.42-3.896-1.563-1.685-9.234-.968-12.174-.877-.294 3.593-.375 10.531.113 14.029zm4.626 4.623c.778 1.771 4.365 3.983 5.069 5.663-4.811 5.627-12.703 9.906-8.976 16.977 1.413 2.68 5.295 5.1 9.206 3.405 2.562-1.109 5.726-4.972 7.399-6.652 2.364-2.375 4.558-4.471 6.955-6.817 7.751-7.586 5.175-8.806-2.191-16.14-1.07-1.066-6.147-6.447-7.136-6.883l-10.326 10.447zm-187.831-22.162c2.958 2.06 4.372.444 6.509 1.495 2.086 1.423.818 5.921 1.315 8.399 2.77.205 8.644-1.003 10.085 1.336 2.193 4.58-7.458 6.516-9.39 9.106.711 2.687 4.473 3.312 4.803 6.052.445 3.699-.958 7.165 1.958 8.901 3.676 2.189 14.277-3.634 17.864-2.67l.269 12.487c2.328.45 35.447.073 42.246.151l2.845-.278.141-33.115c16.033-10.031 21.662-26.66 18.662-45.287-1.52-9.438-7.38-15.956-11.852-20.931-3.355-3.732-7.831-5.77-11.958-8.153-1.405-.811-7.731-2.528-9.803-2.776-7.848-.94-23.604-.776-30.486 1.394-4.306 1.358-7.569 3.098-11.054 5.137a40.178 40.178 0 00-4.782 3.317c-3.106 2.534-2.605 2.554-4.31 4.096-2.835 2.566-4.891 6.026-6.601 9.637-2.059 4.349-2.888 8.879-2.663 13.931.465 10.431 2.518 11.578-1.921 21.363-1.019 2.245-2.14 3.473-1.877 6.408zm1.095 40.53c1.489-.411 2.434-1.571 3.576-2.285-.585-1.6-2.587-3.928-3.611-5.466-3.675-5.52-6.572-12.957-7.305-20.026-2.17-20.925 4.81-26.94 5.159-30.541-1.059-.976-2.256-1.53-3.781-1.434-5.396 7.726-6.885 22.647-5.727 32.67 1.281 11.087 6.453 20.599 11.689 27.082zm-24.614-35.322c.007 11.925 3.466 25.248 9.329 34.88 1.357 2.229 3.875 6.739 5.703 8.407l.339.275c.794-.378 2.624-2.086 3.194-2.715-.225-.992-3.382-5.183-4.353-6.691a61.65 61.65 0 01-4.055-7.382c-2.435-5.3-4.34-11.126-5.069-17.856-1.16-10.705-.203-20.114 3.463-29.75.576-1.513.915-2.792 1.56-4.173.655-1.401 1.45-2.603 1.721-4.141l-3.588-1.626-.673.766c-.221.293-.273.385-.466.755-4.706 9.059-7.112 18.737-7.105 29.251z" fill="#8502FE"/><path d="M497.155 653.051c2.705 2.811 5.15 5.324 7.823 8.101-.75.629-1.402 1.257-2.119 1.819-.717.562-.815 1.157-.424 2.017.782 1.72 1.434 3.505 2.086 5.291.228.628.554.992 1.239.893h.13c1.043.099 2.412-.199 2.999.364.521.495.195 1.95.195 2.976 0 2.182-.032 4.364 0 6.58 0 .793-.261 1.224-1.043 1.091-2.509-.496-3.781.529-4.302 3.042-.261 1.224-1.01 2.348-1.434 3.539-.131.363 0 .992.261 1.256.717.76 1.564 1.422 2.249 2.083-2.673 2.745-5.15 5.225-7.628 7.771a167.439 167.439 0 01-2.249-2.017c-.684 1.223-1.369 2.282-1.89 3.439-.293.661-.424 1.422-.456 2.116-.065 2.646-1.988 4.564-4.596 4.596-3.911.034-7.822.066-11.734.066-3.259 0-5.28-2.149-5.247-5.456 0-.595-.326-1.223-.62-1.752-.488-.992-1.043-1.951-1.662-3.108-.749.694-1.532 1.421-2.216 2.083-2.51-2.579-4.987-5.092-7.758-7.969.62-.496 1.5-1.125 2.217-1.885.261-.298.391-.992.261-1.356a91.918 91.918 0 00-2.249-5.621c-.163-.364-.75-.728-1.174-.761-1.043-.099-2.086-.033-3.259-.033-.033-.562-.098-.992-.098-1.455 0-2.778.033-5.522-.032-8.3 0-.859.195-1.256 1.14-1.256 3.162-.066 3.162-.099 4.27-3.076.424-1.124 1.01-2.182 1.402-3.306.13-.43 0-1.157-.261-1.488-.685-.761-1.532-1.356-2.314-2.017 2.738-2.778 5.215-5.291 8.018-8.168.619.761 1.238 1.588 1.858 2.381.423.529.847.595 1.466.331 1.826-.794 3.716-1.455 5.541-2.282.359-.165.717-.727.783-1.157.13-.86.065-1.72.032-2.612-.032-.662.261-.86.88-.86 2.999.033 6.03.033 9.029.033.717 0 1.043.331.88.959-.619 2.711.652 3.935 3.129 4.497 1.075.231 2.086.893 3.096 1.422.652.331 1.141.231 1.597-.331.685-.827 1.369-1.554 2.184-2.48zm-17.111 60.546c0-1.819 0-1.819 1.922-1.819 1.598 0 1.598 0 1.598 1.654 0 1.95 0 1.95-1.435 1.95-2.085 0-2.085 0-2.085-1.785zm1.792 12.929c1.728 0 1.695 0 1.728 1.951 0 .926.195 1.786-1.304 1.719-2.216-.132-2.249-.033-2.216-1.388.065-2.613-.164-2.216 1.792-2.282zm-1.792 9.193c0-1.786 0-1.786 1.662-1.786 1.858 0 1.858 0 1.858 1.852 0 1.786 0 1.786-1.826 1.786-1.694.033-1.694.033-1.694-1.852zm0-14.881c0-1.686 0-1.686 1.89-1.686.945 0 1.76-.099 1.662 1.356-.163 2.513.196 2.282-1.792 2.282-1.76-.034-1.76-.034-1.76-1.952zm-46.414-15.872c1.499.496 2.836.959 4.204 1.389 2.152.662 4.303 1.29 6.454 1.885.815.231 1.076.628 1.076 1.488-.033 6.283 0 12.565 0 18.848v1.621c.586.033 1.043.066 1.531.066 5.085 0 10.17.033 15.287-.033 1.174 0 1.434.397 1.434 1.488-.032 5.82-.032 11.639 0 17.492 0 1.058-.26 1.455-1.369 1.389-2.379-.132-2.183.364-2.183-2.183 0-4.364-.033-8.762.032-13.127 0-1.091-.358-1.389-1.401-1.389-5.118.033-10.267-.033-15.384.033-1.141 0-1.532-.297-1.532-1.521.032-6.58-.033-13.128-.033-19.708 0-1.058-.261-1.587-1.369-1.885-3.39-.893-6.747-1.951-10.104-2.943a27.766 27.766 0 01-1.793-.595c.619-1.191 1.141-2.315 1.728-3.373 3.194-5.853 6.453-11.673 9.615-17.525.391-.728.554-1.753.489-2.613-.359-4.795-.424-9.589.815-14.285 4.335-16.699 14.699-27.644 31.094-32.042 13.233-3.571 25.358-.364 35.951 8.366 9.876 8.135 14.961 18.816 15.514 31.712.261 6.084.261 12.168-1.108 18.12-2.216 9.656-6.681 18.055-13.917 24.834-1.402 1.323-2.901 2.546-4.27 3.869-.358.33-.587.958-.587 1.455-.032 7.737-.032 15.442-.065 23.18 0 .529-.196 1.455-.424 1.488-.945.132-1.923.066-2.9-.067-.131-.033-.229-.826-.229-1.256V730.56c0-1.885.098-3.803-.032-5.687-.098-1.422.424-2.249 1.532-3.043a43.937 43.937 0 0012.581-13.987c3.552-6.183 5.573-12.863 5.703-20.005.098-4.663.327-9.392-.228-13.988-1.825-14.781-9.549-25.428-23.141-31.149-21.447-9.027-45.501 3.108-51.694 25.858-1.434 5.291-1.694 10.648-.879 16.071.097.694-.131 1.554-.49 2.216-2.9 5.356-5.866 10.68-8.8 16.004-.424.595-.717 1.257-1.108 2.116zm29.856-43.748c.619.463 1.14.86 1.662 1.224 1.043.728 1.01 1.455.294 2.447a18.7 18.7 0 00-3.195 7.176c-.619 2.81 0 2.579-2.999 2.645-.358 0-1.042.199-1.042.331-.098 1.025-.164 2.083.032 3.075.033.198 1.141.331 1.76.297 1.239-.066 1.891.364 2.086 1.687.489 3.141 1.728 6.018 3.586 8.598.456.661.488 1.124-.131 1.686-.619.595-1.173 1.256-1.825 1.984.912.893 1.76 1.687 2.607 2.546.392-.33.652-.562.913-.827 1.565-1.554 1.532-1.487 3.422-.562.489.232 1.337.199 1.728-.099.717-.529.326-2.91-.326-3.604-1.336-1.389-2.771-2.712-3.846-4.266-3.683-5.456-3.748-12.235-.066-17.592 4.727-6.944 10.333-8.663 16.558-7.473 6.714 1.257 11.082 5.655 12.842 12.334 1.728 6.68-.619 12.202-5.573 16.633-.978.893-1.206 1.753-1.141 2.91.098 1.356.912 1.818 2.086 1.19 1.858-.959 1.858-.959 3.324.529.131.133.261.364.424.43.326.066.815.199 1.01.033.75-.661 1.435-1.421 2.413-2.413-.718-.563-1.272-1.026-1.858-1.489-.75-.562-.815-1.124-.261-1.95 1.727-2.546 2.966-5.324 3.52-8.367.326-1.785.424-1.785 2.151-1.785.196 0 .424 0 .619.033.946.132 1.272-.265 1.272-1.257-.033-2.414.032-2.414-2.347-2.513-.652-.033-1.402.034-1.499-.892-.457-3.572-2.021-6.68-3.879-9.689-.163-.265-.065-.959.163-1.224.619-.628 1.402-1.124 1.988-1.62-1.141-1.191-1.923-2.05-2.77-2.943-.587.562-1.206 1.058-1.695 1.653-.619.728-1.108.662-1.858.166-2.347-1.654-4.922-2.91-7.757-3.506-2.249-.463-2.216-.529-2.282-2.909 0-.397-.13-1.092-.261-1.092-1.043-.099-2.118-.132-3.128 0-.163.034-.327 1.092-.261 1.687.098 1.389-.457 2.05-1.793 2.282-3.227.562-6.128 1.884-8.801 3.835-.13.1-.293.133-.455.199-.881-.794-1.728-1.587-2.673-2.447-.782.892-1.597 1.719-2.738 2.909zm20.078 26.19v3.34c.032 2.909-.457 2.446 2.542 2.546.815.033 1.206-.232 1.141-1.125-.065-.859.032-1.719 0-2.612-.033-.793.26-1.224.945-1.687 3.944-2.612 6.388-6.183 6.388-11.143-.032-5.092-2.053-9.127-6.518-11.507-4.564-2.414-9.257-2.249-13.559.694-7.334 4.993-7.269 15.971.13 21.361 1.336.992 1.825 1.918 1.76 3.505-.098 2.514 0 2.448 2.445 2.48 1.01 0 1.238-.396 1.206-1.322-.033-2.877-.033-5.787.032-8.664.033-1.091-.293-1.785-1.238-2.413-2.543-1.654-3.032-5.06-1.141-7.474 2.118-2.711 5.15-3.075 7.561-.893 2.445 2.183 2.804 5.787.294 7.672-1.923 1.455-2.086 3.075-1.956 5.092.033.761-.032 1.455-.032 2.15zm7.137 11.309c.392-1.356-.065-1.753-1.206-1.753-4.889.033-9.778 0-14.667 0-.489 0-1.01 0-1.434.166-.293.099-.619.561-.619.826 0 .265.424.563.717.728.195.099.489.033.717.033h16.492zm-8.865 5.522h6.095c.619 0 1.141 0 1.141-.86-.033-.859-.587-.859-1.173-.859-1.337 0-2.673-.034-4.01-.034-2.737 0-5.443 0-8.148.1-.424 0-1.076.529-1.141.892-.13.86.619.761 1.174.761h6.062zm-.098-25.759c1.206.033 1.956-.695 1.956-1.852 0-1.091-.782-1.918-1.825-1.918-1.141 0-1.923.761-1.923 1.918s.651 1.819 1.792 1.852zm172.655-523.704c0-8.98-.026-17.986 0-26.966.026-5.567 5.85-9.059 10.689-6.486 1.424.761 2.511 1.864 3.184 3.335.259.551.595.735 1.164.787 4.556.368 7.739 4.201 7.273 8.823-.078.761.337.867.802 1.103 2.977 1.47 4.763 3.755 4.763 7.247 0 .682-.104 1.391-.389 2.022-.362.814-.129 1.26.44 1.838 2.459 2.52 2.977 5.54 1.605 8.77-.155.341-.155.84-.026 1.181 1.398 3.992-.052 7.589-3.856 9.401-.596.288-.699.551-.544 1.207 1.035 4.464-1.19 8.193-4.917 9.322-.285.079-.57.499-.647.814-.492 2.73-1.838 4.7-4.529 5.619-.311.105-.596.551-.725.893-.777 2.1-2.174 3.649-4.115 4.621-4.711 2.31-10.068-1.024-10.146-6.354-.078-4.385-.026-8.797-.026-13.182v-13.995zm-13.148-9.217c1.812 1.34 2.951 2.941 3.287 5.068.363 2.495-.414 4.595-2.148 6.328-.465.473-1.087.736-1.63.158-.544-.578-.259-1.103.233-1.628 1.812-1.864 2.122-4.359.854-6.486-1.216-2.048-3.65-2.914-6.005-2.126-.699.236-1.345.236-1.553-.604-.207-.762.285-1.182.958-1.34.828-.183 1.657-.341 2.485-.393 2.743-.105 4.348-2.049 3.83-4.779-.129-.683-.103-1.287.673-1.497.802-.184 1.113.394 1.268 1.024.492 2.075.026 3.886-1.423 5.435-.233.315-.466.526-.829.84zm24.743.079c-.491-.578-.957-1.024-1.345-1.549-1.061-1.523-1.321-3.177-.777-4.962.181-.604.569-.972 1.216-.814.648.157.803.656.699 1.312-.466 3.125.984 4.858 4.115 4.963.751.026 1.527.21 2.278.42.647.184 1.113.657.828 1.418-.259.709-.854.709-1.475.499-1.165-.42-2.329-.42-3.52.026-3.364 1.261-4.4 5.593-1.993 8.271.104.132.233.237.337.342.492.446.699.998.207 1.549-.518.604-1.113.394-1.605-.079-1.475-1.392-2.251-3.098-2.277-5.146-.026-2.652 1.164-4.674 3.312-6.25zm23.371-25.364c-.259.394-.414.761-.673 1.024-2.769 2.809-5.538 5.619-8.308 8.402-.491.499-1.061.866-1.656.237-.621-.631-.233-1.182.259-1.681 2.769-2.809 5.513-5.619 8.308-8.403.31-.288.906-.393 1.372-.393.232.026.439.499.698.814zm6.807 33.74h5.824c.724 0 1.345.158 1.345 1.025 0 .892-.673.997-1.371.997H690.42c-.129 0-.259 0-.388-.026-.621-.052-1.087-.368-1.087-1.024 0-.683.492-.972 1.113-.972 2.019-.026 4.063 0 6.108 0zm-84.192 0h5.719c.725 0 1.45.079 1.424 1.025-.026.866-.673.997-1.372.997H605.84c-.648-.052-1.062-.394-1.062-1.05s.466-.972 1.113-.972h6.083zm7.842 36.787c-.311-.262-.725-.446-.777-.709-.051-.394.026-.945.259-1.234.958-1.077 1.993-2.048 3.002-3.072 1.812-1.838 3.624-3.65 5.41-5.488.517-.525 1.061-.84 1.656-.21.569.604.207 1.155-.259 1.628-2.795 2.836-5.564 5.672-8.36 8.481-.233.237-.569.368-.931.604zm8.929-60.418c-.388-.237-.725-.368-.958-.604a1309.608 1309.608 0 01-8.437-8.56c-.466-.473-.647-1.024-.156-1.549.544-.551 1.113-.368 1.605.131 2.821 2.862 5.642 5.698 8.412 8.586.259.289.336.867.31 1.313-.026.236-.492.446-.776.683zm60.614 59.394c-.285.315-.518.762-.802.814-.389.053-.932-.079-1.191-.341-1.682-1.628-3.312-3.309-4.943-4.989l-3.494-3.545c-.492-.499-.751-1.024-.207-1.628.569-.604 1.113-.315 1.605.157 2.821 2.836 5.616 5.699 8.411 8.561.259.21.388.551.621.971zm-34.293-77.381v5.409c0 .289.078.657-.052.867-.258.367-.646.84-.983.84-.311 0-.699-.499-.957-.866-.13-.21-.052-.578-.052-.867v-10.792c0-.289 0-.577.025-.893.052-.629.311-1.076 1.01-1.076.699 0 .932.499.983 1.103.026.263.026.525.026.787v5.488zm-17.729 91.98c-2.174-3.282-2.174-3.991.026-6.984-.103-.131-.207-.315-.31-.447-1.217-1.312-1.683-2.809-1.01-4.516.699-1.785 2.097-2.809 3.934-2.941 2.459-.157 4.918-.104 7.377-.104 6.263 0 12.552.026 18.815.026 1.346 0 2.563.315 3.598 1.207 2.019 1.76 2.148 4.254.336 6.223-.129.132-.258.289-.439.499 2.225 2.285 2.329 4.622.025 6.959.13.183.233.341.363.472 2.122 2.39 1.579 5.488-1.268 6.932-.648.315-.984.736-1.217 1.392-.75 2.022-2.278 3.361-4.141 4.227-6.444 3.02-12.941 3.073-19.411.079-2.122-.971-3.779-2.494-4.504-4.884-.051-.21-.31-.394-.517-.499-3.598-1.68-4.219-4.358-1.734-7.509.051-.001.051-.079.077-.132zm16.228-12.918h-12.707c-1.812 0-3.08 1.05-3.08 2.441 0 1.418 1.268 2.416 3.08 2.469h.103c8.437 0 16.875 0 25.338-.026.673 0 1.424-.237 1.993-.604 1.372-.841 1.398-2.758.077-3.598-.646-.42-1.501-.63-2.251-.656-4.193-.053-8.386-.026-12.553-.026zm.052 11.842h11.647c.543 0 1.112.026 1.656-.026 1.294-.105 2.355-1.13 2.407-2.285.052-1.208-.802-2.206-2.174-2.468a7.729 7.729 0 00-1.346-.105h-24.639c-.518 0-1.035.078-1.527.21a2.447 2.447 0 00-1.812 2.074c-.077.946.388 1.786 1.424 2.232.569.237 1.242.342 1.863.368 4.141.026 8.308 0 12.501 0zm-.078 7.011h11.155c.751 0 1.501 0 2.226-.079 1.32-.131 2.329-1.156 2.381-2.311.026-1.182-.906-2.206-2.226-2.442-.414-.078-.828-.052-1.268-.052h-24.82c-.414 0-.854.026-1.242.131-1.191.315-1.967 1.313-1.942 2.389.026 1.051.906 2.049 2.097 2.259.673.105 1.345.131 2.019.131 3.882-.026 7.764-.026 11.62-.026zm-11.905 2.126c.802 1.865 2.252 2.731 3.778 3.44 3.96 1.812 8.127 1.996 12.346 1.287 2.226-.368 4.348-1.077 6.134-2.521.673-.551 1.19-1.26 1.786-1.917-.078-.079-.13-.184-.207-.262-7.868-.027-15.762-.027-23.837-.027zm11.284-57.582v26.782c0 3.834-2.329 6.67-6.004 7.352-3.261.604-6.937-1.628-8.179-5.094-.259-.709-.647-1.076-1.346-1.339-2.329-.893-3.545-2.757-3.96-5.172-.103-.657-.388-.919-.957-1.13-3.624-1.286-5.617-4.962-4.737-8.796.207-.919.104-1.339-.802-1.785-3.494-1.655-4.891-5.488-3.494-9.217.13-.315.155-.814.026-1.102-1.398-2.679-1.139-6.197 1.605-8.928.569-.578.673-1.024.388-1.786-1.242-3.492.595-7.614 4.115-9.137.803-.342 1.113-.735 1.087-1.654-.207-4.149 2.666-8.298 7.402-8.403.673-.026.854-.473 1.087-.919 2.252-4.201 7.299-5.33 11.026-2.442 1.915 1.471 2.769 3.493 2.769 5.908-.026 8.928-.026 17.908-.026 26.862zm-27.719-1.077a28.54 28.54 0 011.553-.919c.621-.368 1.268-.499 1.656.263.363.709-.051 1.129-.673 1.496-2.277 1.313-3.105 3.23-2.432 5.803.491 1.891 1.604 3.309 3.545 3.808 1.294.341 2.329-.84 2.097-2.153-.156-.919-.13-1.891-.026-2.81.026-.289.699-.735.983-.657.363.105.647.604.854.972.104.158-.026.446-.026.683-.103 2.389 1.398 4.017 3.727 4.07.699.026 1.269.183 1.32.971.026.867-.595 1.077-1.32 1.103-1.268.027-2.433-.341-3.442-1.129-.466-.394-.828-.342-1.294-.026-1.656 1.129-2.459 3.308-1.941 5.278.88 3.387 4.736 5.146 7.505 3.334.57-.367 1.191-.472 1.579.237.388.708 0 1.207-.621 1.523-.647.315-1.346.498-1.941.84-.259.157-.595.525-.595.814-.026 1.418.673 2.442 1.889 3.072.984.525 1.139.446 1.475-.63.57-1.733 1.605-3.046 3.132-3.991.57-.342 1.19-.526 1.605.157.44.683.077 1.155-.544 1.523a3.541 3.541 0 00-.699.525c-1.604 1.444-2.174 3.23-1.63 5.331.491 1.916 1.812 3.072 3.727 3.413 3.08.551 6.056-1.891 6.134-5.042.077-2.993.026-5.96.026-8.953 0-2.994-1.864-4.543-4.788-4.018-.674.132-1.191 0-1.372-.709-.182-.735.31-1.076.906-1.26 1.501-.447 2.95-.289 4.322.472.259.132.517.289.828.447v-19.667c-1.475.998-2.925 1.444-4.555 1.103-1.139-.236-1.734-.735-1.527-1.392.31-1.05 1.087-.761 1.837-.656 2.226.341 4.297-1.129 4.323-3.282.051-5.383.051-10.766 0-16.149-.026-2.31-1.916-4.411-4.038-4.831-2.329-.473-4.736.814-5.616 3.019-.958 2.337-.182 4.832 1.941 6.303.595.419 1.32.84.725 1.706-.544.814-1.269.394-1.864 0-1.812-1.234-2.899-2.967-3.132-5.199-.077-.735-.336-.945-1.035-.893-4.089.263-5.538 4.228-4.943 6.932.077.315.492.631.828.788.595.315 1.268.473 1.864.788.62.288 1.19.735.776 1.523-.414.814-1.035.63-1.734.262-1.941-1.076-3.908-.997-5.642.42-1.76 1.445-2.123 3.44-1.657 5.619.156.736.466.919 1.269.893 1.268-.026 2.536.211 3.804.447.673.131.958.682.673 1.365-.259.63-.776.735-1.372.499-.362-.131-.724-.263-1.112-.341-1.916-.316-3.598.21-4.763 1.759-1.061 1.496-1.216 3.229-.569 5.146zm31.265 13.838c.44-.236.776-.394 1.113-.578 1.242-.656 2.536-.735 3.856-.42.699.158 1.294.499 1.139 1.313-.155.84-.828.84-1.527.709-2.562-.551-4.607 1.076-4.659 3.728-.025 2.941-.103 5.908.052 8.849.052 1.129.466 2.337 1.061 3.282 1.113 1.76 2.899 2.469 4.97 2.206 1.759-.236 3.027-1.234 3.7-2.941.906-2.337.078-4.779-2.174-6.302-.569-.394-1.009-.813-.595-1.522.44-.736 1.139-.657 1.682-.184.855.761 1.735 1.575 2.407 2.494.492.683.725 1.576 1.061 2.363 1.735-.157 3.106-1.628 3.028-3.334 0-.289-.31-.657-.594-.814-.751-.42-1.605-.683-2.33-1.182-.233-.157-.388-.945-.233-1.155.233-.289.802-.473 1.217-.42.414.026.802.394 1.216.551 2.252.867 4.814-.184 6.108-2.495 1.242-2.231.724-4.805-1.217-6.354-.569-.446-1.035-.604-1.682-.052-.983.814-2.2 1.077-3.468 1.024-.673-.027-1.139-.368-1.139-1.077.026-.682.518-.919 1.139-.971.544-.053 1.113-.053 1.605-.237 1.604-.603 2.355-1.995 2.251-4.122-.025-.709.13-1.287.881-1.392.776-.105 1.112.499 1.112 1.182 0 .893-.155 1.812-.232 2.704-.026.289-.078.709.077.867 1.035 1.155 2.097 1.208 3.416.341 2.977-1.969 3.598-7.273-.284-9.111-.595-.289-.958-.761-.621-1.418.362-.683.931-.735 1.579-.341.517.315 1.035.63 1.604.945.078-.21.181-.342.207-.499.414-1.917.182-3.702-1.268-5.094-1.501-1.418-3.313-1.733-5.228-.998-.725.263-1.32.263-1.605-.525-.284-.761.259-1.26.88-1.365a31.22 31.22 0 013.805-.368c.466-.026.751.026.958-.499 1.371-3.597-1.269-7.378-5.022-7.089-.802.052-1.604.446-2.381.787-.595.263-1.087.316-1.449-.262-.362-.604-.155-1.181.44-1.497.725-.367 1.501-.604 2.226-.945.284-.131.673-.394.725-.656.672-3.125-1.062-6.959-5.073-7.064-.647-.026-.803.263-.88.867-.207 2.153-1.217 3.86-2.951 5.094-.621.446-1.32 1.024-2.045.184-.491-.552-.207-1.103.855-1.812 1.708-1.182 2.51-3.23 2.07-5.331-.44-2.048-2.045-3.623-4.089-3.964-3.184-.525-5.901 2.074-5.901 5.698-.026 4.831-.026 9.636 0 14.467 0 3.046 1.837 4.596 4.788 4.07.647-.105 1.216-.052 1.398.657.207.788-.311 1.155-.958 1.339-1.475.394-2.873.262-4.219-.473-.259-.157-.543-.288-.931-.499.129 6.565.129 13.024.129 19.641z" fill="#8602FF"/><path fill-rule="evenodd" clip-rule="evenodd" d="M596.854 687.113c-1.285.133-5.916.377-6.669-.388-.809-.824-.41-5.256-.418-6.767-.02-3.726.099-3.494 3.686-3.504l14.17-.001c3.664 0 3.671-.237 3.693 3.505.047 8.406 1.137 7.151-6.953 7.199-.496-.119-.149-.248-.562-1.165-.173-.384-.407-.665-.614-1.003.96-1.83 4.884-4.673 3.196-5.364-.701-.287-1.391.953-1.813 1.404-.294.315-.294.285-.537.604-.659.863-1.474 1.628-2.08 2.466-1.439-.282-2.264-.409-3.464.39-1.341.892-1.325 1.949-1.635 2.624zm-3.813-24.589c1.185-.389 10.06-.179 12.031-.167 2.152.012 3.866-.141 4.658 1.522.865 1.817-.258 3.41-1.658 3.877-1.084.361-10.207.165-12.068.157-2.097-.01-3.731.123-4.608-1.536-.909-1.723.26-3.399 1.645-3.853zm13.415-11.247c2.508-.521 4.451 1.251 4.846 3.255.493 2.503-1.244 4.541-3.19 4.926-5.375 1.066-6.946-7.084-1.656-8.181zm-13.431.022c2.462-.543 4.466 1.127 4.899 3.152.533 2.483-1.15 4.576-3.135 5.001-5.343 1.144-7.04-6.987-1.764-8.153zm6.663-8.522c-2.823-.861-2.123-5.601 1.272-5.245 3.06.321 3.068 4.794.428 5.311-.234-.458-.193-.865-.849-.859-.608.006-.627.398-.851.793zm3.543 105.115c-.233.341-.715.177-1.6.177l.003 2.451 18.61-.003-.001-2.448-1.493-.016c-.355-1.198.015-5.824-.127-7.487-.586.012-.769.091-1.309-.137-.227-2.024-.05-5.412-.038-7.572l-.007-21.998c0-.044-.004-.416-.002-.433.065-.491-.017-.205.172-.438 3.057-.168 3.371-1.543 3.354-4.587-.02-3.707-.153-22.317.027-24.538 9.344-1.37 17.66-6.825 16.397-17.437.032-.023.086-.083.103-.051.001.002.643-.211.814-.469.077-.116.351-.993.409-1.176.26-.813.495-1.541.761-2.386 1.985-6.295 2.151-3.726-1.39-8.104-.619-.766-2.585-2.771-2.895-3.395-.605.043-.926.097-1.394.343.471 4.874 3.346 9.424-.989 10.422-1.14.262-2.109-.025-2.779-.635-1.533-1.395-1.333-5.869-2.398-8.478-1.714.034-1.375.481-2.488 3.929-.396 1.224-1.409 3.917-1.51 5.027l5.552 6.131c.523.61.234.409 1.142.289.525 5.012-5.067 8.288-9.78 8.673-1.948-1.823-2.252-1.302-6.093-1.312-2.506-.006-5.023.023-7.528-.006l-.002-1.452c2.052.013 5.073.469 6.33-.805 1.349-1.367.64-4.37.821-6.487 1.167-.086 2.331.118 2.79-.773.318-.617.276-6.672.046-7.241-.416-1.031-1.617-.766-2.831-.865-.317-3.056 1.053-7.858-2.183-8.424-1.888-.33-8.259.212-10.392-.098l-.033-1.558c2.195-.766 3.673-1.927 3.541-4.536-.264-5.226-7.893-5.299-8.4-.26-.257 2.553 1.118 3.97 3.35 4.752l-.009 1.622c-1.607.119-3.573.028-5.195.022-1.288-.003-4.109-.148-5.228.06-3.243.603-1.759 5.514-2.154 8.448-3.284-.004-3.013.21-3 4.337.011 3.569-.714 4.495 3.013 4.489.243 2.112-.508 5.179.775 6.515 1.293 1.347 4.29.631 6.396.839l.038 1.371c-2.446.333-10.195-.269-11.914.143-1.176.282-1.101.923-1.847 1.11-2.982.75-3.014.241-6.999 2.116-2.801 1.317-5.084 3.397-6.572 5.552-1.769 2.563-2.595 5.98-2.071 9.804-1.286.147-.952.472-1.37 1.657l-2.18 7.056c.074.48 5.049 5.574 5.715 6.697l1.437-.23c-.244-3.598-3.542-9.379.862-10.486 4.94-1.241 3.921 5.869 5.262 9.081 1.681.026 1.388-.446 2.495-3.94.371-1.172 1.426-3.933 1.496-5.014l-5.557-6.141c-.54-.563-.221-.364-1.113-.291-.316-4.966 4.839-7.984 8.262-8.392.165 1.413.047 21.06.036 24.208-.008 2.205-.23 4.86 3.329 4.856v30.474l-1.768-.004-.022 7.542-1.637.029-.004 2.594 18.73.001-.016-2.606-1.559-.011-.013-7.522-1.343-.04-.039-30.422 8.982-.027.004 30.417-1.763.065-.019 7.432z" fill="#8602FF"/></svg>