<svg width="30" height="30" viewBox="0 0 30 30" fill="none" xmlns="http://www.w3.org/2000/svg">
<g clip-path="url(#clip0_251_3180)">
<g filter="url(#filter0_di_251_3180)">
<path d="M4.5 4.2C4.5 2.70883 5.70883 1.5 7.2 1.5H17.4577C17.8057 1.5 18.1403 1.63443 18.3916 1.87522L24.334 7.56885C24.5997 7.82347 24.75 8.17553 24.75 8.54363V25.8C24.75 27.2912 23.5411 28.5 22.05 28.5H7.2C5.70883 28.5 4.5 27.2912 4.5 25.8V4.2Z" fill="#E74341"/>
<path d="M7.2002 1.75H17.458C17.7414 1.75009 18.014 1.85955 18.2188 2.05566L24.1611 7.74902C24.3777 7.95651 24.5 8.24402 24.5 8.54395V25.7998C24.5 27.1529 23.4029 28.25 22.0498 28.25H7.2002C5.8471 28.25 4.75 27.1529 4.75 25.7998V4.2002C4.75 2.93177 5.71393 1.88829 6.94922 1.7627L7.2002 1.75Z" stroke="#27272A" stroke-opacity="0.15" stroke-width="0.5"/>
</g>
<path d="M18.375 2.85059L23.775 8.2506H18.375V2.85059Z" fill="white" fill-opacity="0.5"/>
<path fill-rule="evenodd" clip-rule="evenodd" d="M14.5071 17.4577C14.6805 17.8453 14.8795 18.1971 15.104 18.5133C15.3285 18.8294 15.5733 19.0996 15.8387 19.324L16.1907 19.5994C15.8132 19.6708 15.3718 19.7702 14.8668 19.8976C14.3616 20.0251 13.8336 20.196 13.2825 20.4101L13.1907 20.4407L13.6193 19.5382C13.8132 19.1608 13.9841 18.7988 14.1321 18.4521C14.28 18.1053 14.405 17.7739 14.5071 17.4577ZM20.1397 20.7619C20.2213 20.6906 20.2825 20.6065 20.3234 20.5096C20.3642 20.4127 20.3846 20.3082 20.3846 20.196C20.405 20.1042 20.405 20.0175 20.3846 19.9359C20.3642 19.8544 20.3285 19.783 20.2774 19.7218C20.155 19.5178 19.9305 19.3648 19.604 19.2628C19.2774 19.1608 18.8438 19.1098 18.303 19.1098L17.1703 19.171L16.4203 18.6662C16.1448 18.4419 15.8871 18.1384 15.6474 17.756C15.4075 17.3736 15.2009 16.9376 15.0274 16.4481L15.0581 16.3257C15.2009 15.7444 15.3055 15.1478 15.3718 14.5359C15.4382 13.924 15.3285 13.4753 15.0427 13.1897C14.9713 13.1183 14.8897 13.0648 14.7978 13.0291C14.706 12.9934 14.6091 12.9756 14.5071 12.9756H14.3081C14.1448 12.9756 13.9968 13.047 13.8642 13.1897C13.7315 13.3325 13.6499 13.4855 13.6193 13.6486C13.456 14.23 13.405 14.7169 13.4662 15.1096C13.5274 15.5022 13.6397 15.9637 13.803 16.494V16.5093C13.7009 16.8866 13.5734 17.292 13.4203 17.7254C13.2672 18.1588 13.0836 18.5999 12.8693 19.0486L12.0274 20.6243L11.2468 21.0526C10.7264 21.379 10.3361 21.7104 10.0759 22.047C9.81573 22.3835 9.66521 22.6639 9.62441 22.8883C9.60393 22.9699 9.59628 23.0489 9.60138 23.1254C9.60648 23.2019 9.62441 23.281 9.65501 23.3626L9.68561 23.4085L10.0989 23.6685L10.4815 23.7756C10.8387 23.7756 11.2239 23.5614 11.6371 23.1331C12.0504 22.7047 12.5274 22.0266 13.0683 21.0985L13.2366 21.0373C13.6856 20.8945 14.1958 20.7721 14.7672 20.6702C15.3387 20.5682 15.9969 20.4713 16.7418 20.3795C17.1907 20.6039 17.655 20.7696 18.1346 20.8767C18.6142 20.9838 19.0224 21.0373 19.359 21.0373C19.5427 21.0373 19.7009 21.0144 19.8336 20.9685C19.9662 20.9226 20.0682 20.8537 20.1397 20.7619ZM19.7877 20.1501L19.8642 20.2419C19.8642 20.2929 19.8565 20.3234 19.8412 20.3336C19.8259 20.3438 19.8081 20.354 19.7877 20.3642H19.7571L19.5887 20.3795C19.3846 20.3795 19.1371 20.3387 18.8463 20.2572C18.5555 20.1756 18.252 20.0685 17.9356 19.9359C17.9764 19.8951 18.0096 19.8697 18.0351 19.8595C18.0606 19.8493 18.0938 19.8442 18.1346 19.8442C18.7468 19.8442 19.1652 19.8849 19.3897 19.9665C19.6142 20.0481 19.7469 20.1093 19.7877 20.1501ZM11.7978 21.4198C11.5224 21.9399 11.257 22.3427 11.0019 22.6282C10.7469 22.9138 10.5223 23.0923 10.3284 23.1637C10.3488 23.0005 10.4535 22.7838 10.6422 22.5136C10.831 22.2433 11.0784 21.9705 11.3846 21.6951L11.7978 21.4198ZM14.4305 15.4078C14.3285 15.0203 14.2749 14.671 14.2698 14.36C14.2647 14.0489 14.2979 13.8016 14.3693 13.618L14.4305 13.5263L14.5683 13.5569C14.6397 13.669 14.6805 13.7991 14.6907 13.947C14.7009 14.0948 14.6856 14.2861 14.6448 14.5206L14.6142 14.6583L14.4764 15.3772L14.4305 15.4078Z" fill="white"/>
</g>
<defs>
<filter id="filter0_di_251_3180" x="3.5" y="1.5" width="22.25" height="29" filterUnits="userSpaceOnUse" color-interpolation-filters="sRGB">
<feFlood flood-opacity="0" result="BackgroundImageFix"/>
<feColorMatrix in="SourceAlpha" type="matrix" values="0 0 0 0 0 0 0 0 0 0 0 0 0 0 0 0 0 0 127 0" result="hardAlpha"/>
<feOffset dy="1"/>
<feGaussianBlur stdDeviation="0.5"/>
<feComposite in2="hardAlpha" operator="out"/>
<feColorMatrix type="matrix" values="0 0 0 0 0 0 0 0 0 0 0 0 0 0 0 0 0 0 0.06 0"/>
<feBlend mode="normal" in2="BackgroundImageFix" result="effect1_dropShadow_251_3180"/>
<feBlend mode="normal" in="SourceGraphic" in2="effect1_dropShadow_251_3180" result="shape"/>
<feColorMatrix in="SourceAlpha" type="matrix" values="0 0 0 0 0 0 0 0 0 0 0 0 0 0 0 0 0 0 127 0" result="hardAlpha"/>
<feOffset dy="-0.5"/>
<feComposite in2="hardAlpha" operator="arithmetic" k2="-1" k3="1"/>
<feColorMatrix type="matrix" values="0 0 0 0 0 0 0 0 0 0 0 0 0 0 0 0 0 0 0.1 0"/>
<feBlend mode="normal" in2="shape" result="effect2_innerShadow_251_3180"/>
</filter>
<clipPath id="clip0_251_3180">
<rect width="30" height="30" fill="white"/>
</clipPath>
</defs>
</svg>
