<svg width="100" height="100" viewBox="0 0 100 100" fill="none" xmlns="http://www.w3.org/2000/svg">
<g clip-path="url(#clip0_142_4718)">
<path d="M98.7431 47.8877C98.7431 47.8877 94.554 57.8018 98.7431 67.7156L53.2224 97.3186L5.1876 81.4L3.7915 68.6234L98.7431 47.8877Z" fill="#F7E5D5"/>
<path d="M52.8 94.3146C47.5638 87.3033 51.955 79.5808 51.9998 79.5037L52.6043 79.8554C52.5619 79.9285 48.4052 87.2615 53.3601 93.896L52.8 94.3146Z" fill="#6DC6FC"/>
<path d="M83.4884 65.1958L62.415 79.3912L62.8057 79.9712L83.8791 65.7757L83.4884 65.1958Z" fill="#6DC6FC"/>
<path d="M90.3263 65.9181L56.4014 85.499L56.7511 86.105L90.676 66.524L90.3263 65.9181Z" fill="#6DC6FC"/>
<path d="M78.6197 75.6975L70.0513 80.2427L70.3792 80.8609L78.9477 76.3157L78.6197 75.6975Z" fill="#6DC6FC"/>
<path d="M19.5098 82.0504L19.3296 82.726L36.2036 87.2282L36.3838 86.5527L19.5098 82.0504Z" fill="#6DC6FC"/>
<path d="M10.2312 77.938L10.0703 78.6189L41.8943 86.1367L42.0552 85.4559L10.2312 77.938Z" fill="#6DC6FC"/>
<path d="M15.494 76.2841L15.3022 76.9569L32.7879 81.9406L32.9797 81.2678L15.494 76.2841Z" fill="#6DC6FC"/>
<path d="M61.0417 38.6719L99.9999 46.4912L99.3019 49.7029L51.2675 83.9137L5.1876 69.3914V81.4L53.6409 95.9221L98.7431 65.6L99.3019 68.8328L53.6409 98.575L4.21006 82.5172L2.67432 67.4367L61.0417 38.6719Z" fill="#FC8215"/>
<path d="M50.5244 78.0511L11.8359 67.0998L60.1934 41.74L60.3119 41.7619L92.6996 47.6917L50.5244 78.0511ZM13.7145 66.9044L50.3898 77.2859L90.958 48.0835L60.3049 42.4714L13.7145 66.9044Z" fill="#F7AC00"/>
<path d="M51.1677 81.9863L51.0034 81.9386L4.6333 68.3574L4.82998 67.6859L51.0358 81.2193L99.0378 46.6097L99.447 47.1773L51.1677 81.9863Z" fill="#FFC83E"/>
<path d="M87.043 17.1547L43.4769 1.42505L0.130859 28.5467L0.638086 31.0104L17.6455 37.9989L21.5719 61.5223C21.5719 61.5223 46.6924 78.6739 74.3943 57.251L77.4353 26.4834L86.1812 19.6309L87.043 17.1547Z" fill="#6461E2"/>
<path d="M47.2806 50.5548L47.0925 50.4772L0.505371 31.3341L0.770996 30.6872L47.1698 49.7528L85.9655 19.356L86.3972 19.9063L47.2806 50.5548Z" fill="#130749"/>
<path d="M46.6617 47.7286L0 28.871L0.262305 28.2228L46.5586 46.9329L86.8342 16.8745L87.2521 17.4353L46.6617 47.7286Z" fill="#130749"/>
<path d="M46.0858 23.1129C44.2993 23.1129 42.8509 24.0326 42.8509 25.1674C42.8509 25.4018 42.9257 25.6231 43.0394 25.8326L22.5536 37.5248L23.8421 50.6143C22.8261 50.8086 22.0864 51.3639 22.0864 52.0266C22.0864 52.501 22.47 52.9186 23.0569 53.1918C22.7399 54.5797 22.3243 56.7225 22.7567 56.801C23.3978 56.9174 23.7476 54.9821 23.7476 54.9821C23.7476 54.9821 23.9224 59.3073 24.6218 58.8992C25.3212 58.4912 25.4376 55.1688 25.4376 55.1688C25.4376 55.1688 26.3702 58.8408 27.1571 58.3746C27.944 57.9084 26.3118 54.5862 26.3118 54.5862C26.3118 54.5862 28.1769 57.2086 28.7599 56.3928C29.1823 55.8016 27.7097 53.7787 26.8655 52.7074C27.0458 52.5022 27.1571 52.2731 27.1571 52.0264C27.1571 51.3297 26.3419 50.7498 25.2446 50.5858L24.0343 38.2905L44.1544 26.8067C44.6946 27.0643 45.3585 27.2219 46.0856 27.2219C47.8722 27.2219 49.3206 26.3022 49.3206 25.1674C49.3206 24.0326 47.8722 23.1129 46.0858 23.1129Z" fill="#FFC83E"/>
<path d="M44.7328 66.4562L44.7266 65.7567C44.9568 65.7548 45.1879 65.7509 45.4201 65.7452L45.4373 66.4446C45.2016 66.4505 44.9664 66.4542 44.7328 66.4562ZM44.027 66.4562C43.791 66.4542 43.5561 66.4503 43.3227 66.4448L43.3391 65.7454C43.5689 65.7509 43.8004 65.7546 44.033 65.7567L44.027 66.4562ZM42.6178 66.4218C42.3814 66.4122 42.1469 66.4009 41.9139 66.3876L41.9527 65.6895C42.1822 65.7022 42.4135 65.7134 42.6463 65.7231L42.6178 66.4218ZM46.1422 66.4214L46.1135 65.7226C46.343 65.713 46.5742 65.7017 46.8068 65.6888L46.8465 66.3868C46.6104 66.4005 46.3758 66.4118 46.1422 66.4214ZM41.2092 66.3423C40.9732 66.3249 40.7393 66.3058 40.5066 66.2853L40.5688 65.5886C40.7979 65.6091 41.0283 65.6274 41.2611 65.645L41.2092 66.3423ZM47.55 66.3411L47.4988 65.6437C47.7281 65.6267 47.9586 65.6081 48.1904 65.5874L48.2525 66.2841C48.0172 66.305 47.7832 66.3241 47.55 66.3411ZM39.8047 66.2169C39.5693 66.1919 39.3361 66.1653 39.1047 66.137L39.1893 65.4431C39.4174 65.4708 39.6473 65.4968 39.8791 65.5216L39.8047 66.2169ZM48.9547 66.2147L48.8803 65.5194C49.1092 65.4948 49.3389 65.4688 49.5701 65.4409L49.6549 66.1349C49.4201 66.1636 49.1869 66.1901 48.9547 66.2147ZM38.4057 66.0458C38.1711 66.0138 37.9385 65.9796 37.7076 65.9437L37.8148 65.2524C38.0416 65.2876 38.2709 65.3212 38.5014 65.3532L38.4057 66.0458ZM50.3535 66.0437L50.2578 65.3511C50.4855 65.3192 50.7141 65.2858 50.9436 65.2499L51.0516 65.9411C50.818 65.9778 50.5854 66.012 50.3535 66.0437ZM37.0117 65.8302C36.7785 65.7903 36.5469 65.7485 36.3178 65.7056L36.4469 65.0185C36.6727 65.0608 36.9 65.1019 37.1299 65.1411L37.0117 65.8302ZM51.7469 65.827L51.6287 65.138C51.8555 65.0991 52.0832 65.0577 52.3121 65.0149L52.4404 65.7028C52.2082 65.7462 51.9771 65.7876 51.7469 65.827ZM35.6258 65.57C35.3936 65.5226 35.1637 65.4737 34.9363 65.4235L35.0873 64.7405C35.3113 64.7901 35.5377 64.8382 35.7658 64.8851L35.6258 65.57ZM53.1324 65.5669L52.9924 64.8817C53.2178 64.8356 53.4439 64.7874 53.6709 64.7372L53.8219 65.4202C53.5914 65.4712 53.3613 65.5202 53.1324 65.5669ZM34.2484 65.2663C34.0176 65.2114 33.7895 65.1554 33.5641 65.0976L33.7369 64.42C33.959 64.4765 34.1836 64.5317 34.4111 64.586L34.2484 65.2663ZM54.5094 65.2634L54.3475 64.5831C54.5719 64.5298 54.7965 64.4745 55.0221 64.4175L55.1936 65.0958C54.9646 65.1532 54.7365 65.2093 54.5094 65.2634ZM32.882 64.9186C32.6529 64.8565 32.4264 64.7929 32.2031 64.7288L32.3971 64.0567C32.617 64.1202 32.84 64.1825 33.0658 64.2438L32.882 64.9186ZM55.8752 64.9171L55.6928 64.2415C55.915 64.1817 56.1381 64.1196 56.3615 64.0558L56.5541 64.7278C56.3273 64.7931 56.101 64.856 55.8752 64.9171ZM57.2303 64.5286L57.0273 63.8593C57.2477 63.7927 57.4686 63.7237 57.6902 63.653L57.9033 64.319C57.6783 64.3911 57.4541 64.461 57.2303 64.5286ZM31.5271 64.5276C31.2994 64.4583 31.075 64.3876 30.8541 64.3163L31.0693 63.6511C31.2861 63.721 31.5072 63.7903 31.7316 63.8591L31.5271 64.5276ZM58.5723 64.1005L58.3496 63.4372C58.5678 63.3642 58.7863 63.289 59.0053 63.2114L59.2389 63.8706C59.0158 63.9495 58.7938 64.0259 58.5723 64.1005ZM30.1854 64.0946C29.9596 64.0177 29.7377 63.9399 29.5193 63.8616L29.7557 63.2032C29.9697 63.28 30.1883 63.3565 30.4107 63.4319L30.1854 64.0946ZM59.901 63.6321L59.6592 62.9757C59.875 62.896 60.0918 62.8145 60.309 62.7308L60.5596 63.3837C60.3398 63.4683 60.1203 63.5513 59.901 63.6321ZM28.8576 63.6183C28.6332 63.5335 28.4141 63.4489 28.1996 63.3642L28.4564 62.714C28.6676 62.7974 28.8834 62.8806 29.1043 62.964L28.8576 63.6183ZM61.2158 63.1251L60.9549 62.4763C61.1688 62.3905 61.3828 62.3028 61.5969 62.213L61.8674 62.8577C61.65 62.9487 61.4324 63.038 61.2158 63.1251ZM27.5455 63.0991C27.3229 63.0069 27.1062 62.9151 26.8959 62.8235L27.1738 62.1821C27.3809 62.2716 27.5939 62.362 27.8131 62.453L27.5455 63.0991ZM62.515 62.5817L62.2363 61.9403C62.4475 61.8483 62.6592 61.7546 62.8713 61.6589L63.159 62.2962C62.9439 62.3933 62.7295 62.4884 62.515 62.5817ZM26.2508 62.5372C26.0299 62.4368 25.816 62.337 25.6104 62.2394L25.9109 61.6075C26.1131 61.7038 26.3229 61.8015 26.5404 61.9005L26.2508 62.5372ZM63.7984 62.0022L63.502 61.369C63.7105 61.271 63.9197 61.1716 64.1293 61.0702L64.434 61.6999C64.2215 61.8026 64.0098 61.9034 63.7984 62.0022ZM24.9752 61.9304C24.7539 61.8204 24.5439 61.7132 24.3455 61.6095L24.6693 60.9892C24.8643 61.0909 25.0703 61.1962 25.2867 61.304L24.9752 61.9304ZM65.0658 61.3884L64.7523 60.7628C64.9582 60.6601 65.1645 60.5548 65.3709 60.4476L65.6934 61.0685C65.4834 61.1771 65.2744 61.2835 65.0658 61.3884ZM23.7219 61.2753C23.4961 61.1517 23.2902 61.0353 23.1047 60.9282L23.4545 60.3224C23.6357 60.4272 23.8369 60.5409 24.058 60.6618L23.7219 61.2753ZM66.316 60.7415L65.9861 60.1247C66.1896 60.0161 66.3934 59.9058 66.5971 59.7935L66.9346 60.4061C66.7279 60.5198 66.5217 60.6315 66.316 60.7415ZM22.4939 60.5647C22.0943 60.3192 21.8867 60.1743 21.8867 60.1743L22.2863 59.5999C22.2912 59.6034 22.4875 59.7395 22.8607 59.969L22.4939 60.5647ZM67.5486 60.063L67.2037 59.4544C67.4041 59.3407 67.6049 59.2255 67.8059 59.1081L68.159 59.712C67.9555 59.8308 67.752 59.9479 67.5486 60.063ZM68.7645 59.3536L68.4045 58.7538C68.6022 58.6353 68.8004 58.5147 68.9988 58.3925L69.3656 58.9882C69.1645 59.1118 68.9643 59.2339 68.7645 59.3536ZM69.9621 58.6153L69.5885 58.0245C69.7832 57.9013 69.9781 57.7765 70.1732 57.6491L70.5551 58.2353C70.3574 58.364 70.1596 58.4907 69.9621 58.6153ZM71.1418 57.8493L70.7545 57.2673C70.9465 57.1396 71.1387 57.0099 71.3313 56.8786L71.7246 57.4565C71.5301 57.5894 71.3357 57.7204 71.1418 57.8493ZM72.3037 57.0565L71.9035 56.4827C72.0928 56.3509 72.2818 56.2171 72.4711 56.0813L72.8783 56.6503C72.6865 56.7874 72.4949 56.9228 72.3037 57.0565ZM73.4477 56.2384L73.0344 55.6741L73.5941 55.2603L74.0129 55.8204C73.824 55.9614 73.6355 56.1007 73.4477 56.2384Z" fill="#FFC83E"/>
</g>
<defs>
<clipPath id="clip0_142_4718">
<rect width="100" height="100" fill="white"/>
</clipPath>
</defs>
</svg>
