<svg width="192" height="72" viewBox="0 0 192 72" fill="none" xmlns="http://www.w3.org/2000/svg">
<path fill-rule="evenodd" clip-rule="evenodd" d="M26.1077 70.955C26.2979 69.9391 26.098 69.1647 25.8122 68.2489C25.5609 67.4437 25.2912 66.6563 25.0059 65.8812C23.1536 60.8501 21.5972 55.4328 22.9088 49.9532C23.9025 45.8014 26.6863 42.8228 29.6612 40.9456C30.6264 40.3365 32.5991 39.0745 33.4243 38.3977C33.7416 38.1375 34.9157 37.1969 34.9282 36.7434C30.5001 36.5926 25.4608 40.4113 21.5348 39.273C18.774 38.4723 17.8034 35.4151 17.0033 32.8802C16.5643 31.4892 16.1582 30.0929 15.737 28.6861C15.2648 27.1089 13.6502 21.1976 12.7096 20.7546C12.2262 23.1453 13.6311 32.2766 13.96 35.2611C15.137 45.9419 17.9746 56.7998 22.829 66.2485C23.328 67.2199 25.1254 70.7217 26.1077 70.955Z" fill="#8602FF"/>
<path fill-rule="evenodd" clip-rule="evenodd" d="M7.37618 9.45587L0.14209 9.19372L4.27398 13.4639C4.55907 13.7667 4.77374 14.035 5.11268 14.3228C5.47284 14.6287 5.35556 14.7096 5.24921 15.6498L4.0468 26.2544C3.93811 27.2281 3.74761 28.3729 3.70627 29.3299L3.73509 29.2749C3.76883 29.1986 3.74159 29.2659 3.75975 29.2188C3.77251 29.1858 3.78502 29.142 3.79606 29.104C3.8174 29.0298 3.83789 28.9516 3.86009 28.8736L8.05124 14.0686C8.0332 14.0069 5.57416 12.0116 5.49148 11.895L9.04916 11.8802L10.6907 5.80964L12.7358 10.1926L16.3841 9.41109C15.7828 9.99635 15.0843 10.7633 14.4702 11.3986C14.15 11.7299 13.5946 12.1849 13.2897 12.5923L15.0061 19.2407C14.7962 19.1133 14.6473 18.8536 14.4455 18.6825L13.0987 17.2608C12.9953 17.1464 12.9351 17.1032 12.8177 16.9895C12.6343 16.812 12.4642 16.6028 12.2891 16.4096L10.7378 14.7855C10.6505 14.7153 10.7339 14.7665 10.6293 14.7173C10.7294 14.9424 13.155 18.2382 13.487 18.7184C13.7164 19.0504 13.9618 19.3688 14.197 19.7064L16.3523 22.6894C16.3705 22.4765 16.1072 20.5109 16.0612 20.1278L15.2001 12.9835C15.1584 12.6382 15.4999 12.4612 15.8013 12.1761C16.4162 11.5945 17.7115 10.22 18.3143 9.59559L20.4819 7.40827C20.6886 7.19617 21.0497 6.87441 21.2194 6.63692L14.0037 8.29738C13.9008 8.192 12.6972 4.64207 12.5307 4.17396C12.3478 3.66034 11.1678 0.161188 11.0508 0L7.37618 9.45587Z" fill="#F0C228"/>
<path fill-rule="evenodd" clip-rule="evenodd" d="M0 50.0185C0.196763 50.6521 1.83661 51.6469 2.51289 52.0944C3.75456 52.9161 4.12318 53.0417 5.12319 54.0606C5.21225 54.1513 5.32191 54.235 5.40545 54.3308C7.0155 56.1785 7.68834 58.1114 7.68196 60.7188C7.67534 63.4698 6.8375 65.7357 5.98838 68.2056C5.73666 68.9376 5.37319 69.895 5.53327 70.7349C6.50727 70.4242 8.40596 65.9819 8.98692 64.5607C10.9871 59.668 12.1663 54.3745 12.7219 49.0287C12.957 46.7645 13.4321 43.6006 13.4661 41.3429C13.469 41.1387 13.5087 40.3717 13.3715 40.2012C12.6398 41.0326 12.0031 43.6635 11.6186 45.0107C11.209 46.4453 10.6063 48.8218 9.94522 49.9448C7.70478 53.7504 3.58159 49.9043 0 50.0185Z" fill="#F0C228"/>
<path fill-rule="evenodd" clip-rule="evenodd" d="M22.8654 27.9315C20.5314 28.0972 18.5217 30.1465 18.6989 32.7061C18.8599 35.0345 20.9121 36.9881 23.4396 36.861C27.0487 36.6796 29.215 31.7668 26.0889 29.1071C25.3564 28.4838 24.2114 27.836 22.8654 27.9315Z" fill="#8602FF"/>
<path fill-rule="evenodd" clip-rule="evenodd" d="M6.89925 44.621C5.53099 44.7821 4.26553 45.991 4.45432 47.5743C4.61771 48.9446 5.84306 50.2177 7.43053 50.0082C8.801 49.8274 9.99225 48.6165 9.82223 47.0342C9.6646 45.5663 8.29008 44.4574 6.89925 44.621Z" fill="#F0C228"/>
<path d="M54.6344 51.5309V49.3437H52.6347V36.9487H49.8847V49.3437H43.3437C43.2324 49.3437 43.0935 49.3333 42.927 49.3124C42.7605 49.2916 42.6283 49.2255 42.5311 49.1145C42.4339 49.0035 42.3889 48.8575 42.3958 48.6769C42.4027 48.4963 42.4062 48.3367 42.4062 48.198V36.9487H39.6562V49.4063C39.6562 49.6839 39.691 49.9789 39.7606 50.2915C39.8299 50.6038 40.0034 50.8784 40.2814 51.1143C40.5313 51.3225 40.8022 51.4443 41.0938 51.4789C41.3854 51.5137 41.6839 51.5309 41.9895 51.5309H54.6344ZM65.2586 51.5309V49.656H59.863C59.6408 49.656 59.415 49.6422 59.1861 49.6143C58.9569 49.5867 58.7381 49.5277 58.5299 49.4372C58.3214 49.3471 58.141 49.2154 57.9883 49.0415C57.8356 48.8678 57.7172 48.6354 57.6341 48.3436C57.5924 48.177 57.5576 47.941 57.5298 47.6355C57.5023 47.3299 57.4883 47.059 57.4883 46.8229H63.9045C64.1267 46.8229 64.3384 46.7953 64.5397 46.7398C64.7413 46.684 64.9253 46.573 65.0919 46.4065C65.3279 46.1704 65.4737 45.903 65.5295 45.6044C65.5848 45.3057 65.6126 45.0176 65.6126 44.74C65.6126 44.3927 65.5917 44.0488 65.55 43.7086C65.5085 43.3684 65.4286 43.0422 65.3107 42.7294C65.1925 42.4171 65.0329 42.1289 64.8314 41.865C64.63 41.601 64.3698 41.3652 64.0501 41.1569C63.5364 40.8372 62.9636 40.6396 62.3318 40.5631C61.6997 40.4867 61.0575 40.4486 60.4048 40.4486C60.1408 40.4486 59.8354 40.4556 59.4881 40.4692C59.1409 40.4832 58.78 40.5214 58.405 40.5839C58.03 40.6463 57.6585 40.7472 57.2904 40.8858C56.9223 41.0247 56.5854 41.226 56.28 41.49C55.9745 41.754 55.735 42.0456 55.5613 42.365C55.3879 42.6845 55.2559 43.0351 55.1656 43.4172C55.0753 43.7991 55.0198 44.2155 54.9988 44.667C54.9781 45.1184 54.9675 45.601 54.9675 46.1146C54.9675 46.8508 55.0092 47.5729 55.0926 48.2814C55.176 48.9896 55.3982 49.6074 55.7592 50.1353C55.9814 50.4546 56.2314 50.7082 56.5091 50.8957C56.7869 51.0832 57.0716 51.2255 57.3632 51.3225C57.655 51.4199 57.9536 51.4789 58.2592 51.4996C58.5646 51.5206 58.8562 51.5309 59.134 51.5309H65.2586ZM57.4883 44.948C57.5023 44.5871 57.5263 44.2503 57.5611 43.9378C57.5959 43.6254 57.7382 43.3301 57.9883 43.0526C58.1549 42.872 58.3389 42.7294 58.5402 42.6255C58.7418 42.5212 58.9465 42.4484 59.155 42.4067C59.3632 42.365 59.5645 42.3406 59.7589 42.3337C59.9533 42.3268 60.1339 42.3233 60.3007 42.3233C60.6478 42.3233 61.0055 42.3475 61.3733 42.3964C61.7414 42.445 62.0782 42.5873 62.3836 42.8234C62.5642 42.9623 62.7275 43.1567 62.8733 43.4066C63.0191 43.6565 63.0921 43.9552 63.0921 44.3024C63.0921 44.4551 63.0608 44.6009 62.9983 44.74C62.9357 44.8787 62.7864 44.948 62.5506 44.948H57.4883ZM77.1324 51.5309V40.4901H74.6952V44.9065H69.4249V40.4901H66.9875V51.5309H69.4249V46.7814H74.6952V51.5309H77.1324ZM84.5489 51.5309V42.365H88.6942V40.4901H77.9659V42.365H82.1115V51.5309H84.5489ZM91.965 51.5309H95.048C95.3258 51.5309 95.6347 51.5206 95.9749 51.4996C96.3151 51.4789 96.6626 51.4165 97.0167 51.3121C97.3707 51.208 97.7109 51.0484 98.0373 50.833C98.3637 50.6179 98.6589 50.3228 98.9227 49.9479C99.1171 49.6701 99.2735 49.3644 99.3914 49.0313C99.5094 48.6978 99.5996 48.3507 99.6621 47.9896C99.7247 47.6284 99.7629 47.2605 99.7768 46.8856C99.7908 46.5106 99.7977 46.1425 99.7977 45.7813C99.7977 45.4759 99.7908 45.1461 99.7768 44.7918C99.7629 44.4378 99.7178 44.0801 99.6416 43.7192C99.5651 43.358 99.4469 43.004 99.2873 42.6566C99.1275 42.3095 98.9089 41.99 98.6311 41.6984C98.3671 41.4207 98.0824 41.2021 97.777 41.0422C97.4714 40.8824 97.1694 40.761 96.8706 40.6776C96.5721 40.5944 96.2946 40.5422 96.0375 40.5214C95.7805 40.5005 95.5617 40.4901 95.3813 40.4901H91.5273C91.3191 40.4901 91.0899 40.5109 90.84 40.5528C90.5899 40.5944 90.3607 40.6914 90.1525 40.8441C90.0136 40.9554 89.8747 41.1187 89.736 41.3338C89.5969 41.5492 89.5276 41.8373 89.5276 42.1983V55.0723H91.965V51.5309ZM91.965 49.656V42.8858C91.965 42.7469 92.0203 42.6221 92.1315 42.5108C92.1732 42.4832 92.2253 42.4519 92.2877 42.4171C92.3503 42.3823 92.4093 42.365 92.4648 42.365H94.8605C95.402 42.365 95.8535 42.4832 96.2146 42.7191C96.5756 42.9552 96.8326 43.2539 96.9853 43.615C97.0547 43.7678 97.1208 44.014 97.1832 44.3544C97.2456 44.6948 97.277 45.2398 97.277 45.9898C97.277 46.8091 97.2286 47.4133 97.1311 47.8021C97.0339 48.1909 96.9298 48.4689 96.8188 48.6354C96.6797 48.8575 96.4507 49.0832 96.131 49.3124C95.8118 49.5415 95.3467 49.656 94.7354 49.656H91.965Z" fill="#8602FF"/>
<path d="M45.7838 69.5295V60.3391H49.9403V58.4593H39.1831V60.3391H43.3399V69.5295H45.7838ZM51.2979 58.4593V60.3391H56.7497C56.9445 60.3391 57.1499 60.367 57.3659 60.4225C57.5817 60.4783 57.7731 60.6104 57.9403 60.8193C58.0794 60.9865 58.1664 61.1606 58.2012 61.3416C58.236 61.5226 58.2535 61.6967 58.2535 61.8639V62.6366H53.4493C53.1569 62.6366 52.8331 62.6679 52.4782 62.7307C52.1231 62.7934 51.7714 62.9778 51.4234 63.2841C51.0055 63.6462 50.7443 64.0641 50.64 64.5374C50.5354 65.0109 50.4834 65.4913 50.4834 65.9788C50.4834 66.1874 50.4903 66.4242 50.5043 66.689C50.5179 66.9534 50.5564 67.2249 50.619 67.5033C50.6819 67.782 50.7793 68.0498 50.9115 68.3075C51.0439 68.5654 51.2215 68.7914 51.4442 68.9864C51.7645 69.2651 52.1021 69.4251 52.4572 69.467C52.8123 69.5087 53.143 69.5295 53.4493 69.5295H58.7339C58.9985 69.5295 59.2702 69.5053 59.5487 69.4565C59.8271 69.4076 60.0638 69.286 60.2587 69.091C60.4537 68.8959 60.5755 68.6592 60.6241 68.3807C60.673 68.1023 60.6974 67.8654 60.6974 67.6705V61.9263C60.6974 61.2999 60.6207 60.767 60.4675 60.3286C60.3144 59.8899 60.1196 59.5522 59.8828 59.3155C59.6322 59.0511 59.3048 58.8422 58.9011 58.6891C58.4974 58.5357 58.0587 58.4593 57.5852 58.4593H51.2979ZM58.2535 64.5164V67.0649C58.2535 67.1482 58.2466 67.2286 58.2325 67.3051C58.2187 67.3815 58.1699 67.4547 58.0865 67.5243C58.0027 67.5941 57.909 67.6323 57.8044 67.6394C57.7001 67.6463 57.6128 67.6498 57.5435 67.6498H54.1386C53.9855 67.6498 53.8358 67.615 53.6895 67.5452C53.5433 67.4755 53.4286 67.399 53.3448 67.3154C53.1916 67.1623 53.0979 66.9603 53.0629 66.7097C53.0281 66.4592 53.0106 66.2503 53.0106 66.0831C53.0106 65.6792 53.0456 65.3938 53.1152 65.2269C53.1847 65.0595 53.2405 64.9482 53.2824 64.8925C53.4215 64.7115 53.5852 64.6037 53.7731 64.5687C53.961 64.5339 54.0969 64.5164 54.1805 64.5164H58.2535ZM61.3242 69.5295H63.8305L67.2354 60.9865C67.2632 60.931 67.2911 60.8647 67.3188 60.788C67.3466 60.7115 67.3885 60.6733 67.4443 60.6733C67.4998 60.6733 67.5417 60.7115 67.5695 60.788C67.5974 60.8647 67.6253 60.931 67.6531 60.9865L71.0576 69.5295H73.5643L69.0734 59.2529C68.9202 58.9325 68.6938 58.6995 68.3947 58.553C68.0951 58.407 67.7784 58.334 67.4443 58.334C67.1101 58.334 66.793 58.407 66.4938 58.553C66.1942 58.6995 65.9681 58.9325 65.8147 59.2529L61.3242 69.5295ZM74.7132 58.4593V60.3391H80.165C80.3596 60.3391 80.565 60.367 80.781 60.4225C80.9968 60.4783 81.1882 60.6104 81.3554 60.8193C81.4945 60.9865 81.5817 61.1606 81.6165 61.3416C81.6513 61.5226 81.6686 61.6967 81.6686 61.8639V62.6366H76.8644C76.5722 62.6366 76.2484 62.6679 75.8933 62.7307C75.5382 62.7934 75.1865 62.9778 74.8385 63.2841C74.4206 63.6462 74.1596 64.0641 74.0551 64.5374C73.9507 65.0109 73.8985 65.4913 73.8985 65.9788C73.8985 66.1874 73.9054 66.4242 73.9194 66.689C73.9333 66.9534 73.9717 67.2249 74.0341 67.5033C74.097 67.782 74.1946 68.0498 74.3268 68.3075C74.459 68.5654 74.6366 68.7914 74.8593 68.9864C75.1796 69.2651 75.5172 69.4251 75.8725 69.467C76.2276 69.5087 76.5583 69.5295 76.8644 69.5295H82.1492C82.4136 69.5295 82.6853 69.5053 82.964 69.4565C83.2422 69.4076 83.4791 69.286 83.674 69.091C83.869 68.8959 83.9906 68.6592 84.0395 68.3807C84.0881 68.1023 84.1125 67.8654 84.1125 67.6705V61.9263C84.1125 61.2999 84.036 60.767 83.8828 60.3286C83.7295 59.8899 83.5346 59.5522 83.2981 59.3155C83.0473 59.0511 82.7201 58.8422 82.3162 58.6891C81.9125 58.5357 81.4737 58.4593 81.0003 58.4593H74.7132ZM81.6686 64.5164V67.0649C81.6686 67.1482 81.6617 67.2286 81.6478 67.3051C81.634 67.3815 81.5852 67.4547 81.5016 67.5243C81.418 67.5941 81.3241 67.6323 81.2197 67.6394C81.1152 67.6463 81.0281 67.6498 80.9586 67.6498H77.5539C77.4006 67.6498 77.2509 67.615 77.1048 67.5452C76.9586 67.4755 76.8437 67.399 76.7601 67.3154C76.607 67.1623 76.513 66.9603 76.478 66.7097C76.4432 66.4592 76.4259 66.2503 76.4259 66.0831C76.4259 65.6792 76.4607 65.3938 76.5303 65.2269C76.6 65.0595 76.6556 64.9482 76.6975 64.8925C76.8366 64.7115 77.0003 64.6037 77.1882 64.5687C77.3761 64.5339 77.5122 64.5164 77.5956 64.5164H81.6686ZM95.956 69.5295V58.4593H93.5121V62.8873H88.2273V58.4593H85.7835V69.5295H88.2273V64.7672H93.5121V69.5295H95.956ZM103.392 69.5295V60.3391H107.549V58.4593H96.7913V60.3391H100.948V69.5295H103.392ZM113.982 58.334C113.648 58.334 113.286 58.3407 112.896 58.3547C112.506 58.3685 112.109 58.4139 111.705 58.4906C111.301 58.5671 110.911 58.6854 110.535 58.8457C110.159 59.0058 109.818 59.225 109.512 59.5034C109.192 59.7961 108.937 60.1406 108.749 60.5374C108.561 60.9344 108.419 61.3382 108.321 61.749C108.224 62.1596 108.161 62.567 108.133 62.9709C108.106 63.3746 108.092 63.73 108.092 64.0361C108.092 64.3145 108.106 64.6454 108.133 65.0284C108.161 65.4113 108.22 65.8079 108.311 66.2188C108.401 66.6296 108.541 67.0301 108.729 67.42C108.916 67.8098 109.178 68.158 109.512 68.4643C109.818 68.7428 110.159 68.9622 110.535 69.1223C110.911 69.2823 111.301 69.4007 111.705 69.4774C112.109 69.5539 112.506 69.6027 112.896 69.6236C113.286 69.6444 113.648 69.655 113.982 69.655C114.302 69.655 114.657 69.6444 115.047 69.6236C115.437 69.6027 115.837 69.5539 116.248 69.4774C116.659 69.4007 117.056 69.2823 117.439 69.1223C117.822 68.9622 118.159 68.7428 118.452 68.4643C118.856 68.0742 119.193 67.5208 119.465 66.8037C119.736 66.0866 119.872 65.1362 119.872 63.9525C119.872 63.6602 119.858 63.3191 119.83 62.929C119.802 62.5391 119.74 62.1423 119.642 61.7384C119.545 61.3345 119.402 60.9344 119.214 60.5374C119.026 60.1406 118.772 59.7961 118.452 59.5034C118.145 59.225 117.804 59.0058 117.428 58.8457C117.052 58.6854 116.662 58.5671 116.259 58.4906C115.855 58.4139 115.458 58.3685 115.068 58.3547C114.678 58.3407 114.316 58.334 113.982 58.334ZM110.619 64.0153C110.619 63.8343 110.622 63.6183 110.629 63.3677C110.636 63.1172 110.661 62.856 110.703 62.5845C110.744 62.3128 110.814 62.0449 110.911 61.7803C111.009 61.5155 111.141 61.2861 111.308 61.091C111.475 60.896 111.674 60.7394 111.903 60.621C112.133 60.5027 112.366 60.4122 112.603 60.3495C112.84 60.2869 113.08 60.2484 113.324 60.2346C113.567 60.2206 113.787 60.2136 113.982 60.2136C114.205 60.2136 114.435 60.2206 114.671 60.2346C114.908 60.2484 115.141 60.2869 115.371 60.3495C115.601 60.4122 115.823 60.5027 116.039 60.621C116.255 60.7394 116.454 60.896 116.635 61.091C116.83 61.2999 116.976 61.533 117.073 61.7907C117.171 62.0484 117.24 62.3093 117.282 62.5741C117.324 62.8385 117.345 63.0962 117.345 63.347C117.345 63.5835 117.345 63.8064 117.345 64.0153C117.345 64.5026 117.313 64.9971 117.251 65.4982C117.188 65.9995 116.976 66.4521 116.614 66.856C116.252 67.2599 115.837 67.5139 115.371 67.6185C114.904 67.7228 114.441 67.7751 113.982 67.7751C113.536 67.7751 113.073 67.7228 112.593 67.6185C112.112 67.5139 111.691 67.2599 111.329 66.856C110.981 66.4521 110.775 65.9926 110.713 65.4772C110.65 64.9621 110.619 64.4748 110.619 64.0153ZM129.522 63.7855C129.801 63.7576 130.051 63.6846 130.274 63.566C130.497 63.4479 130.685 63.3051 130.838 63.1381C131.061 62.8873 131.2 62.5914 131.256 62.2504C131.312 61.9091 131.339 61.5922 131.339 61.2999C131.339 61.0353 131.312 60.7081 131.256 60.3182C131.2 59.9283 131.033 59.5732 130.755 59.2529C130.587 59.058 130.396 58.9081 130.18 58.8038C129.964 58.6995 129.745 58.6193 129.522 58.5636C129.299 58.5081 129.077 58.4765 128.854 58.4696C128.631 58.4627 128.429 58.4593 128.248 58.4593H123.235C122.998 58.4593 122.751 58.4837 122.494 58.5321C122.236 58.5809 121.989 58.7029 121.752 58.898C121.515 59.0926 121.373 59.3086 121.324 59.5453C121.275 59.7821 121.251 59.9979 121.251 60.1929V67.9004C121.251 68.0814 121.271 68.2902 121.313 68.527C121.355 68.7637 121.473 68.9657 121.669 69.1329C121.863 69.3139 122.097 69.4251 122.368 69.467C122.64 69.5087 122.894 69.5295 123.131 69.5295H128.394C128.715 69.5295 129.083 69.4984 129.501 69.4355C129.919 69.3729 130.295 69.1743 130.629 68.8402C130.81 68.6592 130.95 68.4572 131.047 68.2345C131.144 68.0118 131.218 67.7889 131.266 67.5662C131.315 67.3433 131.346 67.1309 131.36 66.929C131.374 66.7272 131.381 66.5495 131.381 66.3963C131.381 66.1041 131.357 65.7943 131.308 65.4669C131.26 65.1396 131.123 64.837 130.901 64.5583C130.775 64.4052 130.594 64.2555 130.358 64.1093C130.121 63.963 129.842 63.8691 129.522 63.8272V63.7855ZM123.694 62.8664V60.8822C123.694 60.8124 123.702 60.7429 123.715 60.6733C123.729 60.6035 123.771 60.534 123.841 60.4644C123.91 60.3947 123.987 60.3564 124.07 60.3495C124.154 60.3426 124.231 60.3391 124.3 60.3391H127.517C127.684 60.3391 127.851 60.353 128.018 60.3808C128.185 60.4085 128.338 60.4852 128.478 60.6104C128.631 60.75 128.725 60.91 128.76 61.091C128.795 61.2721 128.812 61.4462 128.812 61.6131C128.812 61.7663 128.795 61.9229 128.76 62.0832C128.725 62.2434 128.638 62.3931 128.499 62.5322C128.345 62.6854 128.175 62.7796 127.987 62.8141C127.799 62.8489 127.628 62.8664 127.475 62.8664H123.694ZM123.694 64.7463H127.517C127.656 64.7463 127.827 64.7638 128.029 64.7985C128.231 64.8333 128.408 64.9342 128.561 65.1014C128.701 65.2545 128.784 65.425 128.812 65.6131C128.84 65.801 128.854 65.9788 128.854 66.1458C128.854 66.3268 128.836 66.5287 128.802 66.7514C128.767 66.9744 128.673 67.1623 128.52 67.3154C128.366 67.4688 128.185 67.5627 127.976 67.5975C127.768 67.6323 127.573 67.6498 127.392 67.6498H124.342C124.245 67.6498 124.151 67.6429 124.06 67.6288C123.97 67.615 123.889 67.5662 123.82 67.4824C123.778 67.4131 123.747 67.3329 123.726 67.2424C123.705 67.1519 123.694 67.0649 123.694 66.9813V64.7463Z" fill="#8602FF"/>
<path d="M139.327 68.9828H141.181C141.347 68.9828 141.533 68.9765 141.738 68.964C141.942 68.9514 142.151 68.9139 142.364 68.8512C142.577 68.7886 142.781 68.6925 142.977 68.5633C143.173 68.4337 143.351 68.2563 143.51 68.0311C143.626 67.8641 143.72 67.6803 143.791 67.48C143.862 67.2798 143.916 67.0711 143.954 66.8541C143.992 66.637 144.015 66.4156 144.023 66.1903C144.031 65.965 144.035 65.7438 144.035 65.5267C144.035 65.3429 144.031 65.1446 144.023 64.9318C144.015 64.7189 143.988 64.5041 143.942 64.2871C143.896 64.07 143.825 63.857 143.729 63.6483C143.633 63.4397 143.501 63.2477 143.334 63.0723C143.176 62.9053 143.005 62.774 142.821 62.6778C142.637 62.5819 142.456 62.5087 142.276 62.4586C142.097 62.4087 141.93 62.3774 141.775 62.3648C141.621 62.3523 141.489 62.3461 141.381 62.3461H139.064C138.939 62.3461 138.801 62.3586 138.651 62.3836C138.501 62.4087 138.363 62.467 138.238 62.559C138.154 62.6258 138.071 62.7238 137.987 62.853C137.904 62.9826 137.862 63.1559 137.862 63.3729V71.1113H139.327V68.9828ZM139.327 67.8559V63.7859C139.327 63.7026 139.361 63.6274 139.427 63.5609C139.452 63.544 139.484 63.5252 139.521 63.5043C139.559 63.4835 139.594 63.4729 139.628 63.4729H141.068C141.393 63.4729 141.665 63.544 141.882 63.6859C142.099 63.8278 142.253 64.0073 142.345 64.2244C142.387 64.3162 142.426 64.4644 142.464 64.669C142.502 64.8735 142.52 65.2012 142.52 65.6518C142.52 66.1445 142.491 66.5076 142.433 66.7413C142.374 66.975 142.312 67.1418 142.245 67.2422C142.161 67.3757 142.023 67.5114 141.832 67.6492C141.64 67.7868 141.36 67.8559 140.993 67.8559H139.327ZM150.872 68.9828V67.8559H147.629C147.496 67.8559 147.36 67.8475 147.222 67.8308C147.084 67.814 146.953 67.7786 146.828 67.7241C146.703 67.6701 146.594 67.5906 146.502 67.4863C146.41 67.382 146.339 67.2422 146.289 67.0668C146.264 66.9666 146.244 66.8247 146.227 66.6411C146.21 66.4575 146.202 66.2946 146.202 66.1527H150.058C150.192 66.1527 150.319 66.1361 150.44 66.1026C150.561 66.0691 150.672 66.0024 150.772 65.9023C150.914 65.7604 151.002 65.5997 151.035 65.4202C151.069 65.2407 151.085 65.0675 151.085 64.9005C151.085 64.6919 151.073 64.4854 151.048 64.2808C151.023 64.0762 150.975 63.8801 150.904 63.6922C150.833 63.5043 150.737 63.3313 150.616 63.1725C150.495 63.0139 150.338 62.8718 150.146 62.7467C149.837 62.5547 149.493 62.4359 149.113 62.3899C148.733 62.3439 148.347 62.321 147.955 62.321C147.796 62.321 147.613 62.3251 147.404 62.3335C147.195 62.3419 146.978 62.3648 146.753 62.4024C146.527 62.44 146.304 62.5005 146.083 62.5841C145.862 62.6675 145.659 62.7886 145.475 62.9472C145.292 63.1057 145.148 63.2809 145.043 63.4729C144.939 63.665 144.86 63.8758 144.805 64.1054C144.751 64.3348 144.718 64.5854 144.705 64.8567C144.693 65.128 144.687 65.4183 144.687 65.7269C144.687 66.1695 144.712 66.6035 144.762 67.0292C144.812 67.455 144.945 67.8265 145.162 68.1436C145.296 68.3356 145.446 68.4879 145.613 68.6009C145.78 68.7134 145.951 68.799 146.126 68.8575C146.302 68.9158 146.481 68.9514 146.665 68.964C146.849 68.9765 147.024 68.9828 147.191 68.9828H150.872ZM146.202 65.0258C146.21 64.8087 146.225 64.6063 146.246 64.4184C146.266 64.2307 146.352 64.0531 146.502 63.8864C146.602 63.7777 146.713 63.6922 146.834 63.6295C146.955 63.5671 147.078 63.5231 147.204 63.498C147.329 63.4729 147.45 63.4585 147.567 63.4542C147.683 63.4501 147.792 63.4479 147.892 63.4479C148.101 63.4479 148.316 63.4626 148.537 63.4917C148.758 63.5211 148.961 63.6064 149.144 63.7486C149.253 63.8319 149.351 63.949 149.439 64.0991C149.526 64.2495 149.57 64.429 149.57 64.6376C149.57 64.7292 149.551 64.8171 149.514 64.9005C149.476 64.9841 149.387 65.0258 149.245 65.0258H146.202ZM157.885 61.3442V60.2173H154.316C154.007 60.2173 153.738 60.2506 153.508 60.3176C153.279 60.3843 153.082 60.4698 152.92 60.5742C152.757 60.6785 152.623 60.7891 152.519 60.906C152.415 61.0228 152.333 61.1315 152.275 61.2315C152.116 61.4989 152.016 61.7741 151.974 62.0581C151.932 62.3419 151.912 62.5923 151.912 62.8094V66.2654C151.912 66.5577 151.926 66.8456 151.956 67.1292C151.985 67.4133 152.083 67.7012 152.25 67.9935C152.408 68.2605 152.601 68.465 152.826 68.6071C153.051 68.7491 153.289 68.8532 153.539 68.9201C153.79 68.9867 154.047 69.0264 154.31 69.0389C154.573 69.0515 154.821 69.0577 155.055 69.0577C155.305 69.0577 155.558 69.0515 155.812 69.0389C156.067 69.0264 156.317 68.9888 156.564 68.9264C156.81 68.8638 157.039 68.7657 157.252 68.632C157.465 68.4985 157.651 68.3065 157.809 68.0559C157.926 67.8807 158.016 67.6865 158.079 67.4738C158.141 67.261 158.187 67.0502 158.216 66.8415C158.246 66.6327 158.262 66.4324 158.267 66.2404C158.271 66.0484 158.273 65.8773 158.273 65.7269C158.273 65.3679 158.25 64.9986 158.204 64.6188C158.158 64.2389 158.035 63.8989 157.835 63.5982C157.668 63.3395 157.407 63.112 157.052 62.9159C156.697 62.7195 156.215 62.6217 155.606 62.6217H153.377C153.368 62.4297 153.4 62.246 153.471 62.0706C153.542 61.8953 153.627 61.7615 153.727 61.67C153.903 61.5114 154.111 61.4172 154.353 61.3881C154.596 61.3589 154.809 61.3442 154.992 61.3442H157.885ZM153.377 63.7486H155.28C155.622 63.7486 155.881 63.809 156.056 63.9302C156.232 64.0512 156.353 64.1534 156.419 64.237C156.528 64.3786 156.611 64.5728 156.67 64.8191C156.728 65.0655 156.758 65.4014 156.758 65.827C156.758 65.9607 156.753 66.1069 156.745 66.2654C156.737 66.424 156.718 66.5804 156.689 66.735C156.66 66.8895 156.614 67.0355 156.551 67.1733C156.488 67.3109 156.407 67.4299 156.307 67.5301C156.165 67.6639 155.973 67.7639 155.731 67.8308C155.489 67.8974 155.255 67.9308 155.03 67.9308C154.721 67.9308 154.456 67.887 154.235 67.7993C154.013 67.7116 153.84 67.5969 153.715 67.455C153.623 67.3548 153.544 67.2191 153.477 67.048C153.41 66.877 153.377 66.662 153.377 66.403V63.7486ZM162.781 61.3568H164.133V60.1296H162.781V61.3568ZM161.441 61.3568V60.1296H160.076V61.3568H161.441ZM165.11 68.9828V67.8559H161.867C161.733 67.8559 161.597 67.8475 161.46 67.8308C161.322 67.814 161.191 67.7786 161.065 67.7241C160.94 67.6701 160.831 67.5906 160.74 67.4863C160.648 67.382 160.577 67.2422 160.527 67.0668C160.502 66.9666 160.481 66.8247 160.464 66.6411C160.448 66.4575 160.439 66.2946 160.439 66.1527H164.296C164.429 66.1527 164.557 66.1361 164.678 66.1026C164.799 66.0691 164.91 66.0024 165.01 65.9023C165.151 65.7604 165.239 65.5997 165.273 65.4202C165.306 65.2407 165.323 65.0675 165.323 64.9005C165.323 64.6919 165.31 64.4854 165.285 64.2808C165.26 64.0762 165.212 63.8801 165.141 63.6922C165.07 63.5043 164.974 63.3313 164.853 63.1725C164.732 63.0139 164.575 62.8718 164.384 62.7467C164.075 62.5547 163.73 62.4359 163.35 62.3899C162.971 62.3439 162.584 62.321 162.192 62.321C162.034 62.321 161.85 62.3251 161.641 62.3335C161.433 62.3419 161.215 62.3648 160.99 62.4024C160.765 62.44 160.541 62.5005 160.32 62.5841C160.099 62.6675 159.896 62.7886 159.713 62.9472C159.529 63.1057 159.385 63.2809 159.281 63.4729C159.176 63.665 159.097 63.8758 159.043 64.1054C158.989 64.3348 158.955 64.5854 158.943 64.8567C158.93 65.128 158.924 65.4183 158.924 65.7269C158.924 66.1695 158.949 66.6035 158.999 67.0292C159.049 67.455 159.183 67.8265 159.4 68.1436C159.533 68.3356 159.684 68.4879 159.851 68.6009C160.018 68.7134 160.189 68.799 160.364 68.8575C160.539 68.9158 160.719 68.9514 160.902 68.964C161.086 68.9765 161.261 68.9828 161.428 68.9828H165.11ZM160.439 65.0258C160.448 64.8087 160.462 64.6063 160.483 64.4184C160.504 64.2307 160.589 64.0531 160.74 63.8864C160.84 63.7777 160.95 63.6922 161.072 63.6295C161.193 63.5671 161.316 63.5231 161.441 63.498C161.566 63.4729 161.687 63.4585 161.804 63.4542C161.921 63.4501 162.029 63.4479 162.13 63.4479C162.338 63.4479 162.553 63.4626 162.775 63.4917C162.996 63.5211 163.198 63.6064 163.382 63.7486C163.49 63.8319 163.588 63.949 163.676 64.0991C163.764 64.2495 163.808 64.429 163.808 64.6376C163.808 64.7292 163.789 64.8171 163.751 64.9005C163.714 64.9841 163.624 65.0258 163.482 65.0258H160.439ZM172.247 68.9828V62.3461H170.782V65.0007H167.614V62.3461H166.149V68.9828H167.614V66.1276H170.782V68.9828H172.247ZM179.56 68.9828L176.73 66.0274C176.68 65.9775 176.628 65.9043 176.574 65.8084C176.519 65.7123 176.492 65.6308 176.492 65.5643C176.492 65.4556 176.53 65.3535 176.605 65.2574C176.68 65.1615 176.747 65.0841 176.805 65.0258L179.322 62.3461H177.582L175.465 64.7001C175.374 64.8087 175.273 64.9381 175.165 65.0882C175.056 65.2388 175.002 65.3973 175.002 65.5643C175.002 65.7311 175.046 65.8814 175.134 66.0149C175.221 66.1486 175.303 66.257 175.378 66.3406L177.795 68.9828H179.56ZM174.714 68.9828V62.3461H173.249V68.9828H174.714ZM179.999 62.3461V63.4729H183.267C183.384 63.4729 183.507 63.4898 183.636 63.5231C183.765 63.5565 183.88 63.6358 183.981 63.7611C184.064 63.8611 184.116 63.9654 184.137 64.0741C184.158 64.1825 184.168 64.2871 184.168 64.3871V64.8504H181.288C181.113 64.8504 180.919 64.8694 180.706 64.9068C180.493 64.9444 180.282 65.055 180.074 65.2388C179.823 65.4556 179.667 65.706 179.604 65.99C179.541 66.2737 179.51 66.5616 179.51 66.8541C179.51 66.9791 179.514 67.121 179.523 67.2798C179.531 67.4383 179.554 67.601 179.592 67.768C179.629 67.9349 179.687 68.0956 179.767 68.2501C179.846 68.4047 179.953 68.5402 180.086 68.657C180.278 68.824 180.481 68.9201 180.694 68.9452C180.906 68.9702 181.105 68.9828 181.288 68.9828H184.456C184.615 68.9828 184.778 68.9681 184.945 68.9389C185.112 68.9096 185.254 68.8365 185.371 68.7197C185.487 68.603 185.56 68.4609 185.59 68.2939C185.619 68.127 185.633 67.985 185.633 67.8682V64.4247C185.633 64.049 185.588 63.7298 185.496 63.4667C185.404 63.2038 185.287 63.0014 185.145 62.8593C184.995 62.7007 184.799 62.5757 184.556 62.4836C184.315 62.3921 184.051 62.3461 183.768 62.3461H179.999ZM184.168 65.9775V67.5051C184.168 67.5552 184.164 67.6032 184.156 67.6492C184.147 67.695 184.118 67.7388 184.068 67.7805C184.018 67.8224 183.962 67.8453 183.899 67.8496C183.836 67.8537 183.784 67.8559 183.743 67.8559H181.702C181.61 67.8559 181.52 67.8349 181.432 67.793C181.345 67.7513 181.276 67.7053 181.226 67.6554C181.134 67.5634 181.077 67.4425 181.057 67.2923C181.036 67.1418 181.025 67.0167 181.025 66.9167C181.025 66.6746 181.046 66.5033 181.088 66.403C181.13 66.303 181.163 66.2361 181.188 66.2028C181.272 66.0944 181.37 66.0296 181.482 66.0086C181.595 65.9879 181.677 65.9775 181.727 65.9775H184.168Z" fill="#F0C228"/>
<path d="M107.053 51.4659H108.91C109.077 51.4659 109.263 51.4596 109.468 51.4473C109.673 51.4348 109.882 51.397 110.095 51.3344C110.308 51.2715 110.513 51.1754 110.709 51.046C110.906 50.9162 111.083 50.7384 111.242 50.5129C111.36 50.3455 111.453 50.1615 111.525 49.961C111.596 49.7603 111.65 49.5512 111.688 49.3339C111.725 49.1164 111.748 48.8948 111.757 48.6691C111.765 48.4434 111.769 48.2217 111.769 48.0044C111.769 47.8204 111.765 47.6219 111.757 47.4087C111.748 47.1953 111.721 46.9802 111.675 46.7629C111.629 46.5453 111.558 46.3321 111.462 46.123C111.366 45.914 111.234 45.7217 111.067 45.5461C110.908 45.3789 110.737 45.2474 110.553 45.151C110.369 45.0549 110.187 44.9817 110.007 44.9318C109.827 44.8815 109.66 44.8501 109.505 44.8376C109.351 44.8251 109.219 44.8188 109.11 44.8188H106.79C106.665 44.8188 106.527 44.8313 106.376 44.8564C106.226 44.8815 106.088 44.94 105.962 45.032C105.879 45.099 105.795 45.197 105.711 45.3266C105.628 45.4565 105.586 45.6299 105.586 45.8472V53.5981H107.053V51.4659ZM107.053 50.3373V46.2611C107.053 46.1775 107.087 46.1021 107.154 46.0354C107.179 46.0187 107.21 45.9999 107.248 45.979C107.285 45.958 107.321 45.9474 107.354 45.9474H108.797C109.123 45.9474 109.395 46.0187 109.612 46.1609C109.829 46.3028 109.984 46.4827 110.076 46.7C110.118 46.7922 110.157 46.9404 110.195 47.1454C110.233 47.3502 110.252 47.6783 110.252 48.1297C110.252 48.6233 110.222 48.9868 110.164 49.221C110.105 49.4551 110.043 49.6223 109.976 49.7228C109.892 49.8565 109.754 49.9923 109.562 50.1304C109.369 50.2682 109.089 50.3373 108.721 50.3373H107.053ZM112.91 44.8188V45.9474H116.184C116.301 45.9474 116.424 45.9643 116.554 45.9978C116.683 46.0313 116.799 46.1105 116.899 46.236C116.983 46.3362 117.035 46.4408 117.056 46.5497C117.077 46.6581 117.087 46.7629 117.087 46.8631V47.3273H114.202C114.027 47.3273 113.832 47.3461 113.619 47.3834C113.406 47.4212 113.195 47.532 112.986 47.7161C112.735 47.9332 112.578 48.1842 112.515 48.4686C112.453 48.7527 112.421 49.041 112.421 49.3339C112.421 49.4592 112.426 49.6014 112.434 49.7603C112.442 49.9193 112.465 50.0822 112.503 50.2494C112.54 50.4166 112.599 50.5775 112.678 50.7321C112.758 50.887 112.864 51.0229 112.998 51.14C113.191 51.3071 113.393 51.4033 113.607 51.4285C113.82 51.4536 114.018 51.4659 114.202 51.4659H117.375C117.534 51.4659 117.697 51.4514 117.864 51.4223C118.032 51.3929 118.174 51.3197 118.291 51.2026C118.408 51.0855 118.481 50.9434 118.51 50.7762C118.54 50.609 118.554 50.4669 118.554 50.3496V46.9007C118.554 46.5244 118.508 46.2047 118.416 45.9412C118.324 45.6781 118.207 45.4753 118.065 45.3329C117.915 45.1741 117.718 45.0486 117.476 44.9566C117.233 44.8648 116.97 44.8188 116.686 44.8188H112.91ZM117.087 48.4561V49.9861C117.087 50.0362 117.083 50.0843 117.074 50.1304C117.066 50.1761 117.037 50.2202 116.987 50.2619C116.937 50.3038 116.88 50.3269 116.817 50.331C116.755 50.3353 116.702 50.3373 116.66 50.3373H114.616C114.524 50.3373 114.434 50.3163 114.347 50.2746C114.259 50.2327 114.19 50.1867 114.139 50.1366C114.047 50.0446 113.991 49.9234 113.97 49.7729C113.949 49.6223 113.939 49.4968 113.939 49.3966C113.939 49.1542 113.96 48.9827 114.002 48.8823C114.043 48.7821 114.077 48.7151 114.102 48.6816C114.186 48.573 114.284 48.5082 114.397 48.4872C114.51 48.4665 114.591 48.4561 114.641 48.4561H117.087ZM119.558 51.4659H123.483C123.701 51.4659 123.926 51.4473 124.161 51.4095C124.395 51.3719 124.612 51.2613 124.813 51.0773C124.938 50.96 125.055 50.7846 125.164 50.5503C125.273 50.3163 125.327 50.0027 125.327 49.6098C125.327 49.3005 125.294 49.0536 125.227 48.8698C125.16 48.6857 125.08 48.5436 124.989 48.4434C124.913 48.3513 124.815 48.268 124.694 48.1926C124.573 48.1172 124.42 48.0714 124.236 48.0546V48.017C124.412 48.0001 124.562 47.9541 124.687 47.8792C124.813 47.8038 124.913 47.7202 124.989 47.6282C125.064 47.5364 125.133 47.4024 125.195 47.2268C125.258 47.0512 125.289 46.8128 125.289 46.5119C125.289 46.3112 125.262 46.0917 125.208 45.8535C125.154 45.6152 125.034 45.4083 124.851 45.2327C124.658 45.0404 124.441 44.9234 124.198 44.8815C123.956 44.8396 123.713 44.8188 123.471 44.8188H119.683V45.9474H122.919C122.978 45.9474 123.072 45.9559 123.201 45.9727C123.331 45.9893 123.446 46.0397 123.546 46.123C123.605 46.1734 123.657 46.2442 123.703 46.3362C123.749 46.4283 123.772 46.5538 123.772 46.7125C123.772 46.8715 123.749 46.9968 123.703 47.0888C123.657 47.1808 123.609 47.2519 123.559 47.3022C123.467 47.394 123.373 47.4463 123.276 47.4588C123.18 47.4714 123.074 47.4776 122.957 47.4776H119.746V48.6065H122.906C122.982 48.6065 123.08 48.6149 123.201 48.6315C123.322 48.6483 123.433 48.6941 123.534 48.7695C123.659 48.8613 123.736 48.9661 123.766 49.083C123.795 49.2002 123.81 49.3171 123.81 49.4342C123.81 49.6264 123.786 49.7791 123.74 49.8921C123.695 50.0049 123.642 50.0906 123.584 50.1491C123.492 50.2412 123.385 50.2954 123.264 50.3122C123.143 50.3289 123.019 50.3373 122.894 50.3373H119.558V51.4659ZM131.172 48.017C131.339 48.0001 131.489 47.9563 131.623 47.8854C131.757 47.8142 131.87 47.7286 131.962 47.6282C132.096 47.4776 132.179 47.3001 132.213 47.0951C132.246 46.8903 132.263 46.7 132.263 46.5244C132.263 46.3656 132.246 46.1691 132.213 45.9349C132.179 45.7008 132.079 45.4878 131.912 45.2955C131.811 45.1782 131.696 45.0884 131.567 45.0258C131.437 44.9629 131.305 44.9149 131.172 44.8815C131.038 44.848 130.904 44.8292 130.77 44.8251C130.636 44.8208 130.515 44.8188 130.407 44.8188H127.397C127.254 44.8188 127.106 44.8333 126.951 44.8627C126.796 44.892 126.648 44.9651 126.506 45.0821C126.364 45.1992 126.278 45.3288 126.249 45.4709C126.22 45.6131 126.205 45.7427 126.205 45.8597V50.4878C126.205 50.5965 126.217 50.7218 126.243 50.8641C126.268 51.0063 126.339 51.1272 126.456 51.2279C126.573 51.3363 126.713 51.4033 126.876 51.4285C127.039 51.4536 127.192 51.4659 127.334 51.4659H130.494C130.687 51.4659 130.908 51.4473 131.159 51.4095C131.41 51.3719 131.636 51.2529 131.836 51.0523C131.945 50.9434 132.029 50.8222 132.087 50.6885C132.146 50.5546 132.189 50.4209 132.219 50.2872C132.248 50.1533 132.267 50.0258 132.275 49.9046C132.284 49.7832 132.288 49.6768 132.288 49.5847C132.288 49.4091 132.273 49.2229 132.244 49.0268C132.215 48.8302 132.133 48.6484 131.999 48.481C131.924 48.3891 131.815 48.2991 131.673 48.2114C131.531 48.1235 131.364 48.0671 131.172 48.042V48.017ZM127.672 47.4651V46.2736C127.672 46.2319 127.677 46.19 127.685 46.1481C127.693 46.1064 127.718 46.0645 127.76 46.0228C127.802 45.9809 127.848 45.958 127.898 45.9537C127.948 45.9496 127.994 45.9474 128.036 45.9474H129.968C130.068 45.9474 130.168 45.9559 130.269 45.9727C130.369 45.9893 130.461 46.0354 130.545 46.1105C130.636 46.1943 130.693 46.2902 130.714 46.3991C130.735 46.5078 130.745 46.6121 130.745 46.7125C130.745 46.8045 130.735 46.8987 130.714 46.9946C130.693 47.091 130.641 47.1808 130.557 47.2644C130.465 47.3562 130.363 47.4128 130.25 47.4338C130.137 47.4547 130.035 47.4651 129.942 47.4651H127.672ZM127.672 48.5939H129.968C130.051 48.5939 130.154 48.6043 130.275 48.6252C130.396 48.6462 130.503 48.7067 130.595 48.8071C130.678 48.8991 130.728 49.0015 130.745 49.1143C130.762 49.2272 130.77 49.3339 130.77 49.4342C130.77 49.543 130.76 49.6642 130.739 49.7979C130.718 49.9318 130.661 50.0446 130.57 50.1366C130.478 50.2284 130.369 50.285 130.243 50.306C130.118 50.3269 130.001 50.3373 129.892 50.3373H128.061C128.003 50.3373 127.946 50.3332 127.892 50.3248C127.837 50.3163 127.789 50.2872 127.748 50.2368C127.723 50.1949 127.704 50.1472 127.691 50.0928C127.679 50.0383 127.672 49.9861 127.672 49.9359V48.5939ZM139.625 51.4659V45.7593C139.625 45.5085 139.583 45.3161 139.5 45.1824C139.416 45.0487 139.322 44.9482 139.217 44.8815C139.113 44.8145 139.006 44.7748 138.897 44.7622C138.789 44.7497 138.709 44.7437 138.659 44.7437C138.509 44.7437 138.354 44.7707 138.195 44.8251C138.036 44.8795 137.89 45.0026 137.756 45.1949L134.796 49.5471C134.771 49.589 134.746 49.6286 134.721 49.6662C134.696 49.704 134.663 49.7228 134.621 49.7228C134.57 49.7228 134.541 49.7081 134.533 49.6787C134.524 49.6495 134.52 49.6055 134.52 49.5471L134.583 44.8188H133.115V50.6006C133.115 50.6926 133.126 50.7928 133.147 50.9015C133.168 51.0104 133.212 51.1106 133.279 51.2026C133.346 51.2946 133.442 51.3741 133.567 51.4411C133.692 51.5078 133.864 51.5413 134.081 51.5413C134.332 51.5413 134.524 51.4972 134.658 51.4095C134.792 51.3216 134.917 51.1901 135.034 51.0145L137.957 46.7378C138.007 46.6624 138.045 46.6142 138.07 46.5935C138.095 46.5726 138.116 46.5622 138.132 46.5622C138.183 46.5622 138.208 46.5788 138.208 46.6121C138.208 46.6456 138.208 46.6875 138.208 46.7378L138.157 51.4659H139.625ZM144.09 51.4659V45.9474H146.586V44.8188H140.127V45.9474H142.622V51.4659H144.09ZM153.596 51.4659V45.7593C153.596 45.5085 153.554 45.3161 153.471 45.1824C153.387 45.0487 153.293 44.9482 153.189 44.8815C153.084 44.8145 152.978 44.7748 152.869 44.7622C152.76 44.7497 152.681 44.7437 152.631 44.7437C152.48 44.7437 152.326 44.7707 152.167 44.8251C152.008 44.8795 151.862 45.0026 151.728 45.1949L148.768 49.5471C148.743 49.589 148.717 49.6286 148.693 49.6662C148.668 49.704 148.634 49.7228 148.592 49.7228C148.542 49.7228 148.513 49.7081 148.505 49.6787C148.496 49.6495 148.492 49.6055 148.492 49.5471L148.555 44.8188H147.087V50.6006C147.087 50.6926 147.098 50.7928 147.119 50.9015C147.139 51.0104 147.183 51.1106 147.25 51.2026C147.317 51.2946 147.413 51.3741 147.539 51.4411C147.664 51.5078 147.836 51.5413 148.053 51.5413C148.304 51.5413 148.496 51.4972 148.63 51.4095C148.764 51.3216 148.889 51.1901 149.006 51.0145L151.928 46.7378C151.979 46.6624 152.016 46.6142 152.041 46.5935C152.066 46.5726 152.087 46.5622 152.104 46.5622C152.154 46.5622 152.179 46.5788 152.179 46.6121C152.179 46.6456 152.179 46.6875 152.179 46.7378L152.129 51.4659H153.596ZM154.349 51.4659H156.067L158.137 49.108C158.204 49.0331 158.262 48.943 158.312 48.8387C158.363 48.7339 158.388 48.598 158.388 48.4308C158.388 48.2969 158.363 48.1926 158.312 48.1172C158.262 48.042 158.202 47.9857 158.13 47.9478C158.059 47.9105 157.988 47.8874 157.917 47.8792C157.846 47.8707 157.79 47.8664 157.748 47.8664H156.857C156.732 47.8664 156.615 47.8561 156.506 47.8351C156.397 47.8141 156.301 47.745 156.218 47.6282C156.176 47.5612 156.142 47.4735 156.117 47.3646C156.092 47.256 156.08 47.0931 156.08 46.8756C156.08 46.7585 156.088 46.6352 156.105 46.5056C156.121 46.3762 156.167 46.2652 156.243 46.1734C156.301 46.1064 156.381 46.052 156.481 46.0103C156.581 45.9684 156.69 45.9474 156.807 45.9474H158.726C158.793 45.9474 158.868 45.9518 158.952 45.96C159.035 45.9684 159.102 45.9978 159.152 46.0479C159.203 46.098 159.232 46.1734 159.24 46.2736C159.249 46.3741 159.253 46.4365 159.253 46.4617V51.4659H160.72V46.0354C160.72 45.9265 160.706 45.772 160.676 45.5712C160.647 45.3705 160.557 45.1992 160.407 45.0571C160.281 44.94 160.139 44.8711 159.98 44.8501C159.821 44.8292 159.688 44.8188 159.579 44.8188H156.193C155.917 44.8188 155.687 44.8605 155.503 44.9441C155.319 45.0277 155.168 45.1279 155.051 45.2452C154.834 45.4627 154.698 45.7155 154.644 46.004C154.589 46.2924 154.562 46.5579 154.562 46.8002C154.562 47.0262 154.583 47.2895 154.625 47.5906C154.667 47.8917 154.771 48.1548 154.938 48.3807C155.03 48.506 155.17 48.6315 155.359 48.757C155.547 48.8823 155.808 48.9451 156.142 48.9451H156.494C156.519 48.9451 156.546 48.9471 156.575 48.9514C156.604 48.9555 156.619 48.9786 156.619 49.0203C156.619 49.062 156.59 49.1123 156.531 49.1709L154.349 51.4659Z" fill="#F0C228"/>
<path d="M187.998 61.9351C189.247 61.953 190.345 60.8601 190.305 59.583C190.32 58.3367 189.244 57.2737 187.985 57.2688C186.724 57.2666 185.638 58.3196 185.641 59.6109C185.643 60.9458 186.777 61.971 187.998 61.9351ZM191.111 59.4573V59.82C191.103 59.8779 191.098 59.9386 191.091 59.9965C191.035 60.4019 190.914 60.7845 190.713 61.1422C190.35 61.7768 189.829 62.2349 189.154 62.5149C188.66 62.719 188.147 62.779 187.618 62.7211C187.222 62.6812 186.85 62.5626 186.497 62.3736C186.104 62.1621 185.769 61.8803 185.495 61.5247C185.15 61.0765 184.941 60.5682 184.862 60.0064C184.855 59.9408 184.85 59.8779 184.842 59.8122V59.4018C184.845 59.3895 184.847 59.3768 184.847 59.3647C184.855 59.2055 184.883 59.0497 184.921 58.8957C185.084 58.216 185.432 57.6492 185.963 57.196C186.271 56.934 186.62 56.7476 187.003 56.6221C187.436 56.4806 187.882 56.4406 188.335 56.4856C188.62 56.5164 188.894 56.5892 189.156 56.6998C190.013 57.0575 190.602 57.6742 190.926 58.5458C191.01 58.77 191.065 59.002 191.091 59.2411C191.098 59.3139 191.103 59.3845 191.111 59.4573Z" fill="#F0C228"/>
<path d="M189.206 59.1591C189.11 59.1591 189.014 59.1591 188.916 59.1591C188.888 59.1591 188.868 59.1492 188.853 59.1263C188.825 59.0913 188.8 59.0535 188.772 59.0178C188.513 58.693 188.178 58.5495 187.77 58.64C187.357 58.7336 187.098 59.0027 187.007 59.4183C186.914 59.8594 187.148 60.3076 187.564 60.5039C187.969 60.6925 188.46 60.5819 188.74 60.2341C188.77 60.1942 188.8 60.1514 188.83 60.1115C188.858 60.0734 188.896 60.0508 188.941 60.0508C189.13 60.0508 189.319 60.0508 189.511 60.0529C189.561 60.0529 189.571 60.0629 189.551 60.1115C189.503 60.227 189.457 60.3426 189.394 60.4484C189.158 60.8489 188.807 61.1107 188.357 61.2144C187.393 61.4334 186.521 60.8087 186.358 59.9173C186.239 59.2647 186.453 58.7158 186.972 58.2981C187.216 58.1011 187.5 57.9855 187.813 57.9626C188.402 57.9149 188.893 58.1169 189.271 58.5802C189.394 58.7308 189.485 58.8999 189.548 59.0863C189.568 59.1513 189.566 59.1563 189.498 59.1591C189.399 59.1619 189.304 59.1591 189.206 59.1591Z" fill="#F0C228"/>
</svg>
