<svg width="100" height="100" fill="none" xmlns="http://www.w3.org/2000/svg"><g clip-path="url(#clip0_142_4718)"><path d="M98.743 47.888s-4.189 9.914 0 19.828l-45.52 29.603L5.187 81.4 3.792 68.623l94.951-20.735z" fill="#F7E5D5"/><path d="M52.8 94.315c-5.236-7.012-.845-14.734-.8-14.811l.604.351c-.042.073-4.199 7.406.756 14.041l-.56.419zm30.688-29.119L62.415 79.39l.39.58L83.88 65.776l-.39-.58zm6.838.722L56.401 85.5l.35.606 33.925-19.581-.35-.606zm-11.706 9.78l-8.569 4.545.328.618 8.569-4.545-.328-.618zM19.51 82.05l-.18.676 16.874 4.502.18-.675L19.51 82.05zm-9.279-4.112l-.16.68 31.823 7.519.161-.681-31.824-7.518zm5.263-1.654l-.192.673 17.486 4.984.192-.673-17.486-4.984z" fill="#6DC6FC"/><path d="M61.042 38.672L100 46.492l-.698 3.21-48.035 34.212L5.188 69.39V81.4l48.454 14.522L98.743 65.6l.559 3.233L53.64 98.575 4.21 82.517l-1.537-15.08 58.368-28.765z" fill="#FC8215"/><path d="M50.524 78.051L11.836 67.1l48.357-25.36.119.022 32.388 5.93-42.176 30.36zm-36.81-11.147L50.39 77.286l40.568-29.203-30.653-5.612-46.59 24.433z" fill="#F7AC00"/><path d="M51.168 81.986l-.165-.047-46.37-13.582.197-.671 46.206 13.533 48.002-34.61.409.568-48.28 34.81z" fill="#FFC83E"/><path d="M87.043 17.155L43.477 1.425.13 28.547l.507 2.463L17.645 38l3.927 23.523s25.12 17.152 52.822-4.271l3.041-30.768 8.746-6.852.862-2.476z" fill="#6461E2"/><path d="M47.28 50.555l-.188-.078L.505 31.334l.266-.647L47.17 49.753l38.796-30.397.431.55-39.116 30.649z" fill="#130749"/><path d="M46.662 47.729L0 28.87l.262-.648 46.297 18.71 40.275-30.058.418.56-40.59 30.294z" fill="#130749"/><path d="M46.086 23.113c-1.787 0-3.235.92-3.235 2.054 0 .235.075.456.188.666L22.554 37.525l1.288 13.09c-1.016.194-1.756.749-1.756 1.412 0 .474.384.892.97 1.165-.316 1.388-.732 3.53-.3 3.609.642.116.992-1.819.992-1.819s.174 4.325.874 3.917c.7-.408.816-3.73.816-3.73s.932 3.672 1.72 3.206c.786-.467-.846-3.789-.846-3.789s1.865 2.623 2.448 1.807c.422-.591-1.05-2.614-1.895-3.686.18-.205.292-.434.292-.68 0-.697-.815-1.277-1.912-1.441l-1.21-12.295 20.12-11.484c.54.257 1.203.415 1.93.415 1.787 0 3.236-.92 3.236-2.055 0-1.134-1.449-2.054-3.235-2.054zm-1.353 43.343l-.006-.7c.23-.001.46-.005.693-.01l.017.699c-.235.006-.47.01-.704.011zm-.706 0a46.7 46.7 0 01-.704-.011l.016-.7c.23.006.461.01.694.012l-.006.7zm-1.41-.034c-.236-.01-.47-.021-.703-.034l.039-.699c.23.013.46.024.693.034l-.028.699zm3.525 0l-.029-.7c.23-.009.461-.02.694-.033l.04.698c-.237.013-.471.025-.705.034zm-4.933-.08a38.36 38.36 0 01-.702-.057l.062-.696c.229.02.46.038.692.056l-.052.697zm6.341 0l-.051-.698c.23-.017.46-.036.691-.057l.063.697c-.236.021-.47.04-.703.057zm-7.745-.125a44.332 44.332 0 01-.7-.08l.084-.694c.228.028.458.054.69.079l-.074.695zm9.15-.002l-.075-.696c.23-.024.459-.05.69-.078l.085.694a45.54 45.54 0 01-.7.08zm-10.55-.17a37.758 37.758 0 01-.697-.101l.107-.692c.227.036.456.07.686.101l-.095.693zm11.948-.001l-.095-.693c.227-.032.456-.065.686-.101l.108.691c-.234.037-.467.071-.699.103zm-13.341-.214c-.233-.04-.465-.081-.694-.124l.129-.688c.226.043.453.084.683.123l-.118.69zm14.735-.003l-.118-.689c.227-.039.454-.08.683-.123l.128.688c-.232.043-.463.085-.693.124zm-16.121-.257a44.326 44.326 0 01-.69-.146l.151-.684c.224.05.45.098.679.145l-.14.685zm17.506-.003l-.14-.685c.226-.046.452-.095.679-.145l.15.683c-.23.051-.46.1-.689.147zm-18.884-.3c-.23-.056-.459-.112-.684-.17l.173-.677c.222.056.447.112.674.166l-.163.68zm20.261-.004l-.162-.68c.225-.053.45-.108.675-.165l.172.678c-.23.057-.458.113-.685.167zm-21.627-.344c-.23-.063-.456-.126-.679-.19l.194-.672c.22.063.443.126.669.187l-.184.675zm22.993-.002l-.182-.675c.222-.06.445-.122.669-.186l.192.672a63.26 63.26 0 01-.679.19zm1.355-.388l-.203-.67c.22-.066.442-.135.663-.206l.213.666a47.06 47.06 0 01-.673.21zm-25.703-.001a42.04 42.04 0 01-.673-.212l.215-.665c.217.07.438.14.663.208l-.205.669zm27.045-.428l-.222-.663c.218-.073.436-.148.655-.226l.234.66c-.223.078-.445.155-.667.23zm-28.387-.005a44.09 44.09 0 01-.666-.233l.237-.659c.214.077.432.153.655.229l-.226.663zm29.716-.463l-.242-.656c.216-.08.433-.161.65-.245l.25.653c-.22.084-.439.167-.658.248zm-31.043-.014a54.75 54.75 0 01-.658-.254l.256-.65c.212.083.427.167.648.25l-.246.654zm32.358-.493l-.261-.649c.214-.085.428-.173.642-.263l.27.645c-.217.09-.435.18-.651.267zm-33.67-.026c-.223-.092-.44-.184-.65-.275l.278-.642c.207.09.42.18.64.271l-.268.646zm34.969-.517l-.279-.642c.212-.092.423-.185.635-.281l.288.637a51.2 51.2 0 01-.644.286zm-36.264-.045c-.221-.1-.435-.2-.64-.298l.3-.631c.202.096.412.194.63.293l-.29.636zm37.547-.535l-.296-.633c.209-.098.418-.197.627-.299l.305.63a45.73 45.73 0 01-.636.302zm-38.823-.072a44.69 44.69 0 01-.63-.32l.324-.62c.195.1.401.206.618.314l-.312.626zm40.09-.542l-.313-.625c.206-.103.413-.208.619-.315l.322.62c-.21.11-.419.215-.627.32zm-41.343-.113c-.226-.123-.432-.24-.617-.347l.35-.606c.18.105.382.219.603.34l-.336.613zm42.594-.533l-.33-.617c.204-.109.407-.22.611-.331l.338.612a54.42 54.42 0 01-.619.336zm-43.822-.177c-.4-.246-.607-.39-.607-.39l.4-.575c.004.003.2.14.574.369l-.367.596zm45.055-.502l-.345-.609c.2-.113.4-.229.602-.346l.353.604c-.204.119-.407.236-.61.351zm1.215-.71l-.36-.6a55.5 55.5 0 00.595-.36l.367.595c-.201.124-.402.246-.602.366zm1.198-.738l-.374-.59c.195-.124.39-.248.585-.376l.382.586c-.198.129-.395.256-.593.38zm1.18-.766l-.388-.582c.192-.127.385-.257.577-.388l.394.578-.583.392zm1.162-.792l-.4-.574c.189-.132.378-.266.567-.402l.407.57c-.192.136-.383.272-.574.405zm1.144-.819l-.414-.564.56-.414.419.56-.565.418z" fill="#FFC83E"/></g><defs><clipPath id="clip0_142_4718"><path fill="#fff" d="M0 0h100v100H0z"/></clipPath></defs></svg>